<?xml version="1.0" standalone="no"?>
<!DOCTYPE svg PUBLIC "-//W3C//DTD SVG 1.1//EN" "http://www.w3.org/Graphics/SVG/1.1/DTD/svg11.dtd" >
<svg>
<metadata>
Created by FontForge 20090914 at Sun Aug  8 13:23:47 2021
 By www-data
Copyright (c) 2018 by Creativetacos. All rights reserved.
</metadata>
<defs>
<font id="Banny-BoldRound" horiz-adv-x="550" >
  <font-face 
    font-family="Banny Round"
    font-weight="700"
    font-stretch="normal"
    units-per-em="1024"
    panose-1="0 0 0 0 0 0 0 0 0 0"
    ascent="819"
    descent="-205"
    x-height="519.999"
    cap-height="750"
    bbox="-15 -251 1170.01 999.001"
    underline-thickness="50"
    underline-position="-100"
    unicode-range="U+000D-U+F078"
  />
<missing-glyph horiz-adv-x="100" 
 />
    <glyph glyph-name=".notdef" horiz-adv-x="100" 
 />
    <glyph glyph-name=".null" horiz-adv-x="0" 
 />
    <glyph glyph-name=".null" horiz-adv-x="0" 
 />
    <glyph glyph-name="nonmarkingreturn" unicode="&#xd;" horiz-adv-x="256" 
 />
    <glyph glyph-name="space" unicode=" " horiz-adv-x="250" 
 />
    <glyph glyph-name="exclam" unicode="!" horiz-adv-x="225" 
d="M112 0c-16.667 0 -31 6 -43 18s-18 26.333 -18 43v3c0 16.667 6 31 18 43s26.333 18 43 18h3c16.667 0 31 -6 43 -18s18 -26.333 18 -43v-3c0 -16.667 -6 -31 -18 -43s-26.333 -18 -43 -18h-3zM45 689c0 16.667 6 31 18 43s26.333 18 43 18h13c16.667 0 31 -6 43 -18
s18 -26.333 18 -43v-242c0 -0.666992 -0.166992 -3 -0.5 -7l-0.5 -6l-45 -207c-1.33301 -4.66699 -4 -8.66699 -8 -12s-8.33301 -5 -13 -5c-5.33301 0 -10 1.66699 -14 5s-6.66699 7.33301 -8 12l-45 207l-0.5 6c-0.333008 4 -0.5 6.33301 -0.5 7v242z" />
    <glyph glyph-name="quotedbl" unicode="&#x22;" horiz-adv-x="465" 
d="M268 693c0 15.333 5.66797 28.666 17.001 39.999s25 17 41 17c15.333 0 28.666 -5.66699 39.999 -17s17 -24.666 17 -39.999v-55c0 -0.666992 -0.333008 -3.33398 -1 -8.00098s-1 -7.33398 -1 -8.00098l-21 -75c-2 -7.33301 -6.33301 -13.666 -13 -18.999
s-13.667 -8 -21 -8c-8 0 -15.333 2.66699 -22 8s-11 11.666 -13 18.999l-21 75c0 0.666992 -0.333008 3.33398 -1 8.00098s-1 7.33398 -1 8.00098v55zM80.001 693c0 15.333 5.66797 28.666 17.001 39.999s25 17 41 17c15.333 0 28.666 -5.66699 39.999 -17
s17 -24.666 17 -39.999v-55c0 -0.666992 -0.333008 -3.33398 -1 -8.00098s-1 -7.33398 -1 -8.00098l-21 -75c-2 -7.33301 -6.33301 -13.666 -13 -18.999s-13.667 -8 -21 -8c-8 0 -15.333 2.66699 -22 8s-11 11.666 -13 18.999l-21 75
c0 0.666992 -0.333008 3.33398 -1 8.00098s-1 7.33398 -1 8.00098v55z" />
    <glyph glyph-name="numbersign" unicode="#" horiz-adv-x="670" 
d="M478 742c0.666992 5.33301 3.66699 8 9 8s7.66602 -2.66699 6.99902 -8l-14 -106c-2.66699 -18.667 2 -34.834 14 -48.501s27.667 -20.5 47 -20.5h61c13.333 0 24 -4.66699 32 -14s11 -20.333 9 -33s-8.33301 -23.667 -19 -33s-22.667 -14 -36 -14h-76
c-14.667 0 -28 -5.16699 -40 -15.5s-19 -22.833 -21 -37.5l-10 -73c-2.66699 -19.333 2 -35.833 14 -49.5s27.667 -20.5 47 -20.5h52c13.333 0 24 -4.66699 32 -14s11 -20.333 9 -33s-8.33301 -23.667 -19 -33s-22.667 -14 -36 -14h-67c-14.667 0 -28 -5.16699 -40 -15.5
s-19 -22.833 -21 -37.5l-16 -122c-0.666992 -5.33301 -3.66699 -8 -9 -8s-7.66602 2.66699 -6.99902 8l14 106c2.66699 18.667 -2 34.834 -14 48.501s-27.667 20.5 -47 20.5h-63c-14.667 0 -28 -5.16699 -40 -15.5s-19 -22.833 -21 -37.5l-16 -122
c-0.666992 -5.33301 -3.66699 -8 -9 -8s-7.66602 2.66699 -6.99902 8l14 106c2.66699 18.667 -2 34.834 -14 48.501s-27.667 20.5 -47 20.5h-68c-13.333 0 -24 4.66699 -32 14s-11 20.333 -9 33s8.33301 23.667 19 33s22.667 14 36 14h83c14.667 0 28 5.16699 40 15.5
s19 22.833 21 37.5l10 73c2.66699 19.333 -2 35.833 -14 49.5s-27.667 20.5 -47 20.5h-59c-13.333 0 -24 4.66699 -32 14s-11 20.333 -9 33s8.33301 23.667 19 33s22.667 14 36 14h74c14.667 0 28 5.16699 40 15.5s19 22.833 21 37.5l16 122c0.666992 5.33301 3.66699 8 9 8
s7.66602 -2.66699 6.99902 -8l-14 -106c-2.66699 -18.667 2 -34.834 14 -48.501s27.667 -20.5 47 -20.5h63c14.667 0 28 5.16699 40 15.5s19 22.833 21 37.5zM309 473c-14.667 0 -28 -5.16699 -40 -15.5s-19 -22.833 -21 -37.5l-10 -73c-2.66699 -19.333 2 -35.833 14 -49.5
s27.667 -20.5 47 -20.5h63c14.667 0 28 5.16699 40 15.5s19 22.833 21 37.5l10 73c2.66699 19.333 -2 35.833 -14 49.5s-27.667 20.5 -47 20.5h-63z" />
    <glyph glyph-name="dollar" unicode="$" horiz-adv-x="625" 
d="M328 789c0 10 3.49902 18.667 10.499 26s15.5 11.333 25.5 12h2c10.667 0.666992 19.667 -2.5 27 -9.5s11 -15.833 11 -26.5v-37c0 -5.33301 2.83301 -12.5 8.5 -21.5s11.167 -15.167 16.5 -18.5c40 -24 77.667 -55.333 113 -94l3 -2c1.33301 -2 1.33301 -3.66699 0 -5
l-4 -4l-3 -3c-2.66699 -2 -5 -2 -7 0c-33.333 36 -68 65.333 -104 88c-5.33301 3.33301 -10.5 3.83301 -15.5 1.5s-7.5 -6.5 -7.5 -12.5v-200c0 -4.66699 1.33301 -10.167 4 -16.5s6.16699 -12.5 10.5 -18.5s9 -11.333 14 -16s9.83301 -8 14.5 -10
c96 -42 144 -111.333 144 -208c0 -52 -12.667 -96.167 -38 -132.5s-63.333 -61.5 -114 -75.5c-8 -2.66699 -15.833 -8.5 -23.5 -17.5s-11.5 -17.5 -11.5 -25.5c0 -10 -3.33301 -18.333 -10 -25s-15 -10 -25 -10h-7c-9.33301 0 -17.166 3.16699 -23.499 9.5
s-9.5 14.166 -9.5 23.499v24c0 6 -3 9.33301 -9 10c-11.333 0.666992 -22 1.66699 -32 3c-6 1.33301 -9 -0.666992 -9 -6v-29c0 -10 -3.5 -18.5 -10.5 -25.5s-15.5 -10.5 -25.5 -10.5h-1c-10.667 0 -19.667 3.66699 -27 11s-11 16 -11 26v28c0 3.33301 -1 7.66602 -3 12.999
s-4.66699 10.5 -8 15.5s-6.66602 9.66699 -9.99902 14s-6.66602 7.5 -9.99902 9.5c-44.667 30 -80.334 71.333 -107.001 124c-1.33301 2 -1.66602 4.66699 -0.999023 8s2 6 4 8c5.33301 4 9.66602 2.66699 12.999 -4c23.333 -48 54.666 -86.667 93.999 -116
c6.66699 -4 12.834 -4.66699 18.501 -2s8.5 7.66699 8.5 15v224c0 10 -4.16699 21.333 -12.5 34s-17.166 21.334 -26.499 26.001c-84.667 40 -127 102 -127 186c0 46.667 11.5 86.667 34.5 120s54.833 58 95.5 74c7.33301 2.66699 15.166 9.16699 23.499 19.5
s12.5 19.833 12.5 28.5c0 10 3.5 18.5 10.5 25.5s15.833 10.5 26.5 10.5h5c9.33301 0 17.166 -3.16699 23.499 -9.5s9.5 -14.166 9.5 -23.499v-25c0 -5.33301 3 -8.33301 9 -9c11.333 -0.666992 22 -2 32 -4c6 -1.33301 9 1 9 7v28zM278.999 474
c0 -5.33301 2.66699 -8.66797 8 -10.001c10 -2 20.667 -4 32 -6c6.66699 -1.33301 10 1 10 7v265c0 6 -3 9.66699 -9 11c-10 2 -20.667 3.33301 -32 4c-6 0.666992 -9 -1.66602 -9 -6.99902v-264zM192.999 510.998c2 -2.66699 4.33203 -3.50098 6.99902 -2.50098
s4 3.16699 4 6.5v171c0 2.66699 -1.16699 4.66699 -3.5 6s-4.16602 0.333008 -5.49902 -3c-8 -15.333 -14.167 -33.666 -18.5 -54.999s-6.5 -45 -6.5 -71c0 -20 7.66699 -37.333 23 -52zM287.998 325.997c-6 1.33301 -9.00195 -0.999023 -9.00195 -6.99902v-291
c0 -5.33301 3 -8.66602 9 -9.99902c10.667 -2.66699 21.334 -4.33398 32.001 -5.00098c6 -0.666992 9 2 9 8v289c0 5.33301 -2.66699 8.66602 -8 9.99902s-10.666 2.5 -15.999 3.5s-11 1.83301 -17 2.5zM422.996 279.998c-4.66699 3.33301 -9 3.99707 -13 1.99707
s-6 -6 -6 -12v-214c0 -6 1.83301 -10.167 5.5 -12.5s7.16699 -1.16602 10.5 3.50098c14.667 16.667 25.5 38.834 32.5 66.501s10.5 59.834 10.5 96.501c0 28 -13.333 51.333 -40 70z" />
    <glyph glyph-name="percent" unicode="%" horiz-adv-x="780" 
d="M594 0c20.667 0 36.167 12.833 46.5 38.5s15.5 59.834 15.5 102.501s-5.16699 76.834 -15.5 102.501s-25.833 38.5 -46.5 38.5c-20 0 -35.167 -12.833 -45.5 -38.5s-15.5 -59.834 -15.5 -102.501s5.16699 -76.834 15.5 -102.501s25.5 -38.5 45.5 -38.5zM594 -9
c-42 0 -73.5 13.667 -94.5 41s-31.5 63.666 -31.5 108.999s10.5 81.666 31.5 108.999s52.5 41 94.5 41s73.667 -13.667 95 -41s32 -63.666 32 -108.999s-10.667 -81.666 -32 -108.999s-53 -41 -95 -41zM186 468c20 0 35.167 12.833 45.5 38.5s15.5 59.834 15.5 102.501
s-5.16699 76.834 -15.5 102.501s-25.5 38.5 -45.5 38.5c-20.667 0 -36.167 -12.833 -46.5 -38.5s-15.5 -59.834 -15.5 -102.501s5.16699 -76.834 15.5 -102.501s25.833 -38.5 46.5 -38.5zM186 459c-42 0 -73.667 13.667 -95 41s-32 63.666 -32 108.999
s10.667 81.666 32 108.999s53 41 95 41s73.5 -13.667 94.5 -41s31.5 -63.666 31.5 -108.999s-10.5 -81.666 -31.5 -108.999s-52.5 -41 -94.5 -41zM180 0c-4.66699 0 -8.16699 1.83301 -10.5 5.5s-2.16602 7.5 0.500977 11.5l400 716c2.66699 4 7.16699 7.83301 13.5 11.5
s11.833 5.5 16.5 5.5s8.16699 -1.83301 10.5 -5.5s2.16602 -7.5 -0.500977 -11.5l-400 -716c-2.66699 -4 -7.16699 -7.83301 -13.5 -11.5s-11.833 -5.5 -16.5 -5.5z" />
    <glyph glyph-name="ampersand" unicode="&#x26;" horiz-adv-x="678" 
d="M617 10c0.666992 -6 -0.333008 -9.66699 -3 -11c-27.333 -10.667 -54.166 -13.167 -80.499 -7.5s-50.166 15.5 -71.499 29.5c-4.66699 2.66699 -12 3.83398 -22 3.50098s-17 -2.16602 -21 -5.49902c-38 -26.667 -81 -40 -129 -40c-38 0 -72.5 4.83301 -103.5 14.5
s-57.667 23.167 -80 40.5s-39.5 38.166 -51.5 62.499s-18 51.5 -18 81.5c0 27.333 12 55.5 36 84.5s56.333 55.167 97 78.5c5.33301 3.33301 9.33301 8.66602 12 15.999s2 13.333 -2 18c-16 19.333 -28.5 42.5 -37.5 69.5s-13.5 54.5 -13.5 82.5
c0 25.333 4.16699 48.166 12.5 68.499s20.166 37.833 35.499 52.5s33.666 26 54.999 34s45 12 71 12c49.333 0 88.833 -13 118.5 -39s44.5 -60.333 44.5 -103c0 -18 -13.833 -39.167 -41.5 -63.5s-64.834 -48.5 -111.501 -72.5c-3.33301 -1.33301 -5.5 -4.33301 -6.5 -9
s-0.5 -8.66699 1.5 -12l28.5 -37.5l39.5 -53.5l46.5 -64.5l49.5 -69.5c4.66699 -6 10.334 -8.5 17.001 -7.5s11.334 5.16699 14.001 12.5c17.333 51.333 25.333 109 24 173c0 4 2.66699 5.33301 8 4s8 -4 8 -8c0.666992 -34.667 -1.33301 -67.167 -6 -97.5
s-12 -58.5 -22 -84.5c-0.666992 -3.33301 -1.16699 -7.66602 -1.5 -12.999s-0.333008 -11 0 -17s1.16602 -11.667 2.49902 -17s3 -9.33301 5 -12c17.333 -25.333 30.5 -46.166 39.5 -62.499s11.833 -26.833 8.5 -31.5l3 -3l-2 4l3 -3c12.667 1.33301 25 4 37 8
c4 1.33301 6.33301 -0.333984 7 -5.00098zM278 432c4.66699 -6 9.16699 -9.33398 13.5 -10.001s9.83301 1.33301 16.5 6c18 12.667 32.5 29.5 43.5 50.5s16.5 43.5 16.5 67.5c0 40 -5.83301 72.167 -17.5 96.5s-27.167 36.5 -46.5 36.5c-20 0 -36 -13.167 -48 -39.5
s-18 -61.166 -18 -104.499c0 -18.667 3.66699 -37 11 -55s17 -34 29 -48zM214 333.999c-6 8 -12.332 8.99805 -18.999 2.99805c-12 -11.333 -21.333 -29.666 -28 -54.999s-10 -55.333 -10 -90c0 -29.333 3.16699 -56.166 9.5 -80.499s15.5 -45.166 27.5 -62.499
s26.333 -30.666 43 -39.999s35 -14 55 -14c45.333 0 86 13.667 122 41c4 3.33301 6 7.5 6 12.5s-2 9.5 -6 13.5c-10.667 11.333 -21.167 23.666 -31.5 36.999s-20.833 27.666 -31.5 42.999l-85.5 118.5c-23.667 33 -40.834 57.5 -51.501 73.5z" />
    <glyph glyph-name="quotesingle" unicode="'" horiz-adv-x="245" 
d="M80 693c0 15.333 5.66797 28.666 17.001 39.999s25 17 41 17c15.333 0 28.666 -5.66699 39.999 -17s17 -24.666 17 -39.999v-55c0 -0.666992 -0.333008 -3.33398 -1 -8.00098s-1 -7.33398 -1 -8.00098l-21 -75c-2 -7.33301 -6.33301 -13.666 -13 -18.999
s-13.667 -8 -21 -8c-8 0 -15.333 2.66699 -22 8s-11 11.666 -13 18.999l-21 75c0 0.666992 -0.333008 3.33398 -1 8.00098s-1 7.33398 -1 8.00098v55z" />
    <glyph glyph-name="parenleft" unicode="(" horiz-adv-x="360" 
d="M281 778c6 6 12.5 8.16602 19.5 6.49902s13.5 -5.5 19.5 -11.5c5.33301 -6 7.5 -13.5 6.5 -22.5s-4.5 -16.167 -10.5 -21.5c-94 -92 -141 -223.333 -141 -394c0 -164.667 47 -292.667 141 -384c6 -5.33301 9.5 -12.5 10.5 -21.5s-1.16699 -16.5 -6.5 -22.5
c-6 -6 -12.5 -9.83301 -19.5 -11.5s-13.5 0.5 -19.5 6.5c-120.667 110.667 -181 255 -181 433c0 184.667 60.333 332.334 181 443.001z" />
    <glyph glyph-name="parenright" unicode=")" horiz-adv-x="320" 
d="M79 -98c-6 -6 -12.5 -8.16602 -19.5 -6.49902s-13.5 5.5 -19.5 11.5c-5.33301 6 -7.5 13.5 -6.5 22.5s4.5 16.167 10.5 21.5c94 92 141 223.333 141 394c0 164.667 -47 292.667 -141 384c-6 5.33301 -9.5 12.5 -10.5 21.5s1.16699 16.5 6.5 22.5
c6 6 12.5 9.83301 19.5 11.5s13.5 -0.5 19.5 -6.5c120.667 -110.667 181 -255 181 -433c0 -184.667 -60.333 -332.334 -181 -443.001z" />
    <glyph glyph-name="asterisk" unicode="*" horiz-adv-x="406" 
d="M339 694h-1v-1zM297 528c10 -8 14.8359 -17.8301 14.5029 -29.4971s-5.5 -20.834 -15.5 -27.501c-10.667 -8 -21.667 -10.167 -33 -6.5s-19.333 11.5 -24 23.5l-10 28c-2.66699 6.66699 -6.66699 11.667 -12 15s-10.666 5 -15.999 5s-10.666 -1.66699 -15.999 -5
s-9 -8.33301 -11 -15l-11 -29c-4.66699 -12 -12.5 -19.667 -23.5 -23s-21.833 -1.33301 -32.5 6s-16.167 16.833 -16.5 28.5s4.83398 21.5 15.501 29.5l65 52c3.33301 2.66699 4.66602 6.16699 3.99902 10.5s-3.33398 6.5 -8.00098 6.5
c-17.333 0.666992 -34.666 1.5 -51.999 2.5s-34.666 1.83301 -51.999 2.5c-6.66699 0 -12.167 2.66699 -16.5 8s-5.5 11.333 -3.5 18l7 21c4 12 11.5 19.833 22.5 23.5s21.833 2.16699 32.5 -4.5l26 -17c6 -4 12.167 -5.83301 18.5 -5.5s11.666 2.16602 15.999 5.49902
s7.66602 7.83301 9.99902 13.5s2.5 12.167 0.5 19.5l-8 29c-3.33301 12 -1.5 22.667 5.5 32s16.833 14 29.5 14s22.5 -4.66699 29.5 -14s8.83301 -20 5.5 -32l-8 -30c-2 -6.66699 -1.83301 -12.834 0.5 -18.501s5.66602 -10.167 9.99902 -13.5s9.5 -5.16602 15.5 -5.49902
s12 1.5 18 5.5l24 16c10.667 6.66699 21.5 8.16699 32.5 4.5s18.5 -11.5 22.5 -23.5s2.83301 -22.667 -3.5 -32s-15.833 -14.333 -28.5 -15l-30 -1c-7.33301 -0.666992 -13.333 -2.83398 -18 -6.50098s-7.83398 -8.16699 -9.50098 -13.5s-1.83398 -11 -0.500977 -17
s4.66602 -11.333 9.99902 -16z" />
    <glyph glyph-name="plus" unicode="+" horiz-adv-x="590" 
d="M258 164c0 16.667 -6 31 -18 43s-26.333 18 -43 18h-137c-10 0 -18.333 3.33301 -25 10s-10 15 -10 25s3.33301 18.333 10 25s15 10 25 10h137c16.667 0 31 6 43 18s18 26.333 18 43v127c0 10 3.66699 18.667 11 26s16.333 11 27 11c10 0 18.667 -3.66699 26 -11
s11 -16 11 -26v-127c0 -16.667 6 -31 18 -43s26.333 -18 43 -18h136c10 0 18.333 -3.33301 25 -10s10 -15 10 -25s-3.33301 -18.333 -10 -25s-15 -10 -25 -10h-136c-16.667 0 -31 -6 -43 -18s-18 -26.333 -18 -43v-126c0 -10.667 -3.66699 -19.667 -11 -27s-16 -11 -26 -11
c-10.667 0 -19.667 3.66699 -27 11s-11 16.333 -11 27v126z" />
    <glyph glyph-name="comma" unicode="," horiz-adv-x="225" 
d="M50 64c0 16.667 6 31.001 18 43.001s26.333 18 43 18h3c16.667 0 31 -6 43 -18s18 -26.333 18 -43v-64c0 -38 -7.16699 -66.333 -21.5 -85s-38.5 -29.667 -72.5 -33c-9.33301 -1.33301 -16.833 0.666992 -22.5 6s-8.5 12.666 -8.5 21.999v12c0 4 1.83301 8 5.5 12
s7.5 6.66699 11.5 8c18 3.33301 28.667 16 32 38c2 13.333 -4.66699 20 -20 20h-4c-6.66699 0 -12.5 2.5 -17.5 7.5s-7.5 10.833 -7.5 17.5v39z" />
    <glyph glyph-name="hyphen" unicode="-" horiz-adv-x="365" 
d="M98 216c-13.333 0 -24.666 4.66699 -33.999 14s-14 20.666 -14 33.999c0 12.667 4.66699 23.667 14 33s20.666 14 33.999 14h170c12.667 0 23.667 -4.66699 33 -14s14 -20.333 14 -33c0 -13.333 -4.66699 -24.666 -14 -33.999s-20.333 -14 -33 -14h-170z" />
    <glyph glyph-name="period" unicode="." horiz-adv-x="225" 
d="M111 0c-16.667 0 -31 6 -43 18s-18 26.333 -18 43v3c0 16.667 6 31 18 43s26.333 18 43 18h3c16.667 0 31 -6 43 -18s18 -26.333 18 -43v-3c0 -16.667 -6 -31 -18 -43s-26.333 -18 -43 -18h-3z" />
    <glyph glyph-name="slash" unicode="/" horiz-adv-x="320" 
d="M25 0c-6.66699 0 -11.667 2.33301 -15 7s-4 10.334 -2 17.001l254 702c2 6.66699 6.33301 12.334 13 17.001s13.334 7 20.001 7s11.667 -2.33301 15 -7s4 -10.334 2 -17.001l-254 -702c-2 -6.66699 -6.33301 -12.334 -13 -17.001s-13.334 -7 -20.001 -7z" />
    <glyph glyph-name="zero" unicode="0" horiz-adv-x="700" 
d="M185 375c0 -122 13.833 -213.833 41.5 -275.5s68.5 -92.5 122.5 -92.5s94.667 30.833 122 92.5s41 153.5 41 275.5c0 116 -14.333 206.333 -43 271s-68.667 97 -120 97s-91.5 -32.333 -120.5 -97s-43.5 -155 -43.5 -271zM52 375c0 60.667 6.66602 114.667 19.999 162
s32.833 87.5 58.5 120.5s56.834 58.167 93.501 75.5s78.334 26 125.001 26s88.334 -8.66699 125.001 -26s67.667 -42.5 93 -75.5s44.666 -73.167 57.999 -120.5s20 -101.333 20 -162c0 -127.333 -24.833 -223.166 -74.5 -287.499s-123.5 -96.5 -221.5 -96.5
c-98.667 0 -172.834 32.167 -222.501 96.5s-74.5 160.166 -74.5 287.499z" />
    <glyph glyph-name="one" unicode="1" horiz-adv-x="430" 
d="M330 61c0 -16.667 -6 -31.001 -18 -43.001s-26.333 -18 -43 -18h-6c-16.667 0 -31 6 -43 18s-18 26.333 -18 43v518c0 10.667 -2.66699 19.667 -8 27s-11.833 12.5 -19.5 15.5s-16 3.5 -25 1.5s-16.833 -7 -23.5 -15l-68 -78c-1.33301 -1.33301 -3 -1.66602 -5 -0.999023
s-3 2 -3 4s1 5.66699 3 11s3.66699 8.66602 5 9.99902l154 175c3.33301 4.66699 10.333 9.33398 21 14.001s19 7 25 7h22c14 0 25.833 -4.83301 35.5 -14.5s14.5 -21.5 14.5 -35.5v-639z" />
    <glyph glyph-name="two" unicode="2" horiz-adv-x="595" 
d="M135 0c-18 0 -32.6641 6.00098 -43.9971 18.001s-16 27 -14 45c2.66699 34 8.33398 63.167 17.001 87.5s20.667 45.666 36 63.999s34 34.666 56 48.999s48 28.166 78 41.499c24.667 11.333 47.167 24 67.5 38s37.666 28.667 51.999 44s25.5 31 33.5 47s12 31.333 12 46
c0 28.667 -3.83301 54.834 -11.5 78.501s-18.667 43.834 -33 60.501s-31.5 29.667 -51.5 39s-42.333 14 -67 14c-43.333 0 -78 -12.5 -104 -37.5s-39 -58.167 -39 -99.5c0 -20.667 3.16699 -42 9.5 -64s15.166 -41 26.499 -57c3.33301 -4.66699 2.33301 -8.33398 -3 -11.001
c-6 -3.33301 -11 -2.33301 -15 3c-11.333 16.667 -20.333 36.667 -27 60s-10 46.333 -10 69c0 33.333 5.33301 63.833 16 91.5s25.667 51.334 45 71.001s42.5 34.834 69.5 45.501s57.167 16 90.5 16s63.5 -5.33301 90.5 -16s50 -25.667 69 -45s33.833 -42.833 44.5 -70.5
s16 -58.167 16 -91.5c0 -17.333 -6.16699 -36 -18.5 -56s-29.833 -40.333 -52.5 -61s-50 -41 -82 -61s-67.333 -39 -106 -57c-41.333 -19.333 -75.333 -39 -102 -59s-47.334 -45.333 -62.001 -76c-6 -12.667 -5.83301 -22.834 0.5 -30.501s16.166 -11.5 29.499 -11.5h347
c16.667 0 31 -6 43 -18s18 -26.333 18 -43v-2c0 -16.667 -6 -31 -18 -43s-26.333 -18 -43 -18h-364z" />
    <glyph glyph-name="three" unicode="3" horiz-adv-x="599" 
d="M53 180c-4.66699 20 -2 35.834 8 47.501s25.333 17.5 46 17.5h11c14.667 0 28.667 -6.33301 42 -19s20.666 -26.667 21.999 -42c6 -54 19.333 -96.833 40 -128.5s46.667 -47.5 78 -47.5c17.333 0 33.166 5 47.499 15s26.666 24 36.999 42s18.333 39.667 24 65
s8.5 53.333 8.5 84c0 41.333 -13 74.333 -39 99s-60.333 37 -103 37h-30c-8 0 -15 3 -21 9s-9 13 -9 21v28c0 11.333 3.83301 20.833 11.5 28.5s17.167 11.5 28.5 11.5h40c33.333 0 60 9.83301 80 29.5s30 45.5 30 77.5c0 56.667 -9.83301 102.167 -29.5 136.5
s-45.5 51.5 -77.5 51.5c-24 0 -44.167 -12.833 -60.5 -38.5s-27.5 -60.5 -33.5 -104.5c-1.33301 -14.667 -8.66602 -28.334 -21.999 -41.001s-27.333 -19 -42 -19h-6c-20.667 0 -36.167 4.16699 -46.5 12.5s-13.166 22.833 -8.49902 43.5c11.333 50 36.333 89.667 75 119
s87 44 145 44c34 0 64.833 -4.66699 92.5 -14s51.334 -22.333 71.001 -39s34.834 -36.834 45.501 -60.501s16 -50.167 16 -79.5s-6.66699 -56 -20 -80s-31.666 -44 -54.999 -60c-4.66699 -4 -7.5 -9.66699 -8.5 -17s1.16699 -12.666 6.5 -15.999
c32.667 -20 58.667 -46 78 -78s29 -67.333 29 -106c0 -32.667 -6.16699 -62.5 -18.5 -89.5s-29.5 -50 -51.5 -69s-48.667 -33.667 -80 -44s-66 -15.5 -104 -15.5c-64.667 0 -118.834 17 -162.501 51s-71.834 80 -84.501 138z" />
    <glyph glyph-name="four" unicode="4" horiz-adv-x="595" 
d="M25 210c0 0.666992 0.500977 2.83203 1.50098 6.49902s1.83301 5.83398 2.5 6.50098l323 499c4 6.66699 11.667 13 23 19s20.666 9 27.999 9h17c14 0 25.833 -4.83301 35.5 -14.5s14.5 -21.5 14.5 -35.5v-428c0 -14.667 5.16699 -27.167 15.5 -37.5
s22.833 -15.5 37.5 -15.5h44c5.33301 0 8 -2.66699 8 -8c0 -6 -2.66699 -9 -8 -9h-44c-14.667 0 -27.167 -5.16699 -37.5 -15.5s-15.5 -22.5 -15.5 -36.5v-89c0 -16.667 -6 -31 -18 -43s-26.333 -18 -43 -18h-7c-16.667 0 -31 6 -43 18s-18 26.333 -18 43v80
c0 16.667 -6 31 -18 43s-26.333 18 -43 18h-247c-5.33301 0 -8 2.66699 -8 8zM105.001 313.998c-6.66699 -11.333 -10.334 -22.5 -11.001 -33.5s1.5 -21.167 6.5 -30.5s12.333 -16.833 22 -22.5s21.167 -8.5 34.5 -8.5h123c16.667 0 31 6 43 18s18 26.333 18 43v268
c0 0.666992 0.166992 2.33398 0.5 5.00098l0.5 4l11 77c0.666992 4.66699 -0.166016 8.66699 -2.49902 12s-5.33301 5.66602 -9 6.99902s-7.5 1.5 -11.5 0.5s-7 -3.5 -9 -7.5z" />
    <glyph glyph-name="five" unicode="5" horiz-adv-x="595" 
d="M110 342c-6.66699 1.33301 -9.66211 5.33301 -8.99512 12l39 342c1.33301 15.333 8 28.333 20 39s25.667 16 41 16h258c17.333 0 31.5 -6 42.5 -18s16.167 -26.333 15.5 -43l-1 -5c-1.33301 -16 -7.83301 -29.5 -19.5 -40.5s-25.5 -16.5 -41.5 -16.5h-241
c-14.667 0 -28 -5.16699 -40 -15.5s-19 -22.5 -21 -36.5l-15 -105c-0.666992 -3.33301 0.5 -6 3.5 -8s5.83301 -2.33301 8.5 -1c16 8 36.167 14.333 60.5 19s50.5 7 78.5 7c40 0 76.333 -6 109 -18s60.667 -29.167 84 -51.5s41.333 -49 54 -80s19 -65.5 19 -103.5
c0 -36.667 -6.16699 -70 -18.5 -100s-29.5 -55.667 -51.5 -77s-48.667 -37.833 -80 -49.5s-66 -17.5 -104 -17.5c-64.667 0 -118.834 17 -162.501 51s-71.834 80 -84.501 138c-4.66699 20 -2 35.833 8 47.5s25.333 17.5 46 17.5h11c14.667 0 28.667 -6.33301 42 -19
s20.666 -26.667 21.999 -42c6 -54 19.333 -96.833 40 -128.5s46.667 -47.5 78 -47.5c17.333 0 33.166 5.5 47.499 16.5s26.666 26.333 36.999 46s18.333 43.5 24 71.5s8.5 59 8.5 93c0 44.667 -14 80.667 -42 108s-65 41 -111 41c-30 0 -57.5 -3.5 -82.5 -10.5
s-44.167 -16.167 -57.5 -27.5c-1.33301 -1.33301 -3.83301 -2.5 -7.5 -3.5s-6.16699 -1.16699 -7.5 -0.5z" />
    <glyph glyph-name="six" unicode="6" horiz-adv-x="585" 
d="M533 627c1.33301 -4 -0.334961 -7.33301 -5.00195 -10c-5.33301 -3.33301 -8.66602 -3 -9.99902 1c-13.333 38 -38 68.5 -74 91.5s-77.667 34.5 -125 34.5c-20.667 0 -38.834 -7.66699 -54.501 -23s-28.834 -37 -39.501 -65s-19 -61.667 -25 -101
s-9.66699 -83.333 -11 -132c0 -2.66699 2 -5 6 -7s7 -1.66699 9 1c14.667 18 33.5 32.333 56.5 43s47.833 16 74.5 16c36.667 0 70 -5.5 100 -16.5s55.833 -26.667 77.5 -47s38.334 -44.666 50.001 -72.999s17.5 -59.833 17.5 -94.5c0 -38 -6.16699 -72.667 -18.5 -104
s-29.666 -58 -51.999 -80s-49.166 -39.167 -80.499 -51.5s-66.333 -18.5 -105 -18.5c-89.333 0 -156.333 31.667 -201 95s-67 157.666 -67 282.999c0 58.667 5.5 112 16.5 160s27.5 89 49.5 123s49.5 60.333 82.5 79s71.167 28 114.5 28c51.333 0 96.333 -12 135 -36
s65 -56 79 -96zM330.999 461c-42 0 -75.833 -8.00098 -101.5 -24.001s-39.167 -37.667 -40.5 -65c1.33301 -121.333 13.333 -212.5 36 -273.5s55.667 -91.5 99 -91.5c18 0 34.167 5.66699 48.5 17s26.833 27.5 37.5 48.5s18.834 46 24.501 75s8.5 61.5 8.5 97.5
c0 32 -2.66699 61.333 -8 88s-13 49.334 -23 68.001s-21.833 33.167 -35.5 43.5s-28.834 15.5 -45.501 15.5v1z" />
    <glyph glyph-name="seven" unicode="7" horiz-adv-x="490" 
d="M30 689c0 16.667 6.00098 31 18.001 43s26.333 18 43 18h328c16.667 0 31 -6 43 -18s18 -26.333 18 -43v-36c0 -2 -0.833008 -5.5 -2.5 -10.5s-3.83398 -10 -6.50098 -15l-8 -14.5c-2.66699 -4.66699 -4.66699 -7.66699 -6 -9c-32.667 -34.667 -61 -70.667 -85 -108
s-43.833 -77.666 -59.5 -120.999s-27.834 -90.5 -36.501 -141.5s-14 -107.167 -16 -168.5c-0.666992 -16.667 -7.16699 -31.667 -19.5 -45s-26.5 -20 -42.5 -20h-20c-18.667 0 -33.5 5.66699 -44.5 17s-15.5 26.333 -13.5 45c4 38.667 11.5 76.5 22.5 113.5
s26.333 74.167 46 111.5s43.834 75.5 72.501 114.5s62.334 79.5 101.001 121.5c9.33301 10 14.666 21.167 15.999 33.5s-0.5 23.666 -5.5 33.999s-12.833 19 -23.5 26s-23 10.5 -37 10.5h-221c-16.667 0 -31 6 -43 18s-18 26.333 -18 43v1z" />
    <glyph glyph-name="eight" unicode="8" horiz-adv-x="629" 
d="M205 554c0 -44 8.83203 -79.167 26.499 -105.5s45.834 -39.5 84.501 -39.5c33.333 0 60 11.667 80 35s30 60 30 110c0 56.667 -9.16699 102.334 -27.5 137.001s-45.833 52 -82.5 52c-34 0 -61 -15.833 -81 -47.5s-30 -78.834 -30 -141.501zM85.999 565
c0 32 5.50391 60.1631 16.5039 84.4961s26.5 44.5 46.5 60.5s44.167 28.167 72.5 36.5s59.833 12.5 94.5 12.5c75.333 0 132.333 -17.833 171 -53.5s58 -82.5 58 -140.5c0 -41.333 -10.833 -74.666 -32.5 -99.999s-51.5 -43.666 -89.5 -54.999
c-3.33301 -0.666992 -5.5 -3.66699 -6.5 -9s0.166992 -8.33301 3.5 -9c52.667 -13.333 91.334 -36.5 116.001 -69.5s37 -73.167 37 -120.5c0 -36.667 -6.16699 -68.167 -18.5 -94.5s-29.833 -48.166 -52.5 -65.499s-49.834 -30.166 -81.501 -38.499
s-66.834 -12.5 -105.501 -12.5c-44.667 0 -83.334 5.16699 -116.001 15.5s-59.5 24.666 -80.5 42.999s-36.667 40.5 -47 66.5s-15.5 55 -15.5 87c0 50 12.667 90.333 38 121s60.333 52.334 105 65.001c3.33301 1.33301 5.66602 5.33301 6.99902 12s0.333008 10.667 -3 12
c-40.667 12 -70.334 31.167 -89.001 57.5s-28 57.833 -28 94.5zM194.003 211.996c0 -61.333 9.83301 -110.832 29.5 -148.499s50.5 -56.5 92.5 -56.5c36.667 0 66 16.5 88 49.5s33 85.5 33 157.5c0 53.333 -9.66699 96.166 -29 128.499s-50 48.5 -92 48.5
c-36.667 0 -66.167 -14.167 -88.5 -42.5s-33.5 -73.833 -33.5 -136.5z" />
    <glyph glyph-name="nine" unicode="9" horiz-adv-x="585" 
d="M97 123c-1.33301 4 0.667969 7.66699 6.00098 11c4.66699 2.66699 7.66699 2 9 -2c13.333 -38 38 -68.5 74 -91.5s77.667 -34.5 125 -34.5c20.667 0 38.834 7.66699 54.501 23s28.834 37 39.501 65s19 61.667 25 101s9.66699 83.333 11 132c0 2.66699 -2 5 -6 7
s-7 1.66699 -9 -1c-14.667 -18 -33.5 -32.333 -56.5 -43s-47.833 -16 -74.5 -16c-36.667 0 -70 5.5 -100 16.5s-55.833 26.667 -77.5 47s-38.334 44.666 -50.001 72.999s-17.5 59.833 -17.5 94.5c0 38 6.16699 72.667 18.5 104s29.666 58 51.999 80
s49.166 39.167 80.499 51.5s66.333 18.5 105 18.5c89.333 0 156.333 -31.667 201 -95s67 -157.666 67 -282.999c0 -58.667 -5.5 -112 -16.5 -160s-27.5 -89 -49.5 -123s-49.5 -60.333 -82.5 -79s-71.167 -28 -114.5 -28c-51.333 0 -96.333 12 -135 36s-65 56 -79 96z
M299.001 290c42 0 75.833 7.83398 101.5 23.501s39.167 37.167 40.5 64.5c-1.33301 121.333 -13.333 212.5 -36 273.5s-55.667 91.5 -99 91.5c-18 0 -34.167 -5.66699 -48.5 -17s-26.833 -27.5 -37.5 -48.5s-18.834 -46 -24.501 -75s-8.5 -61.5 -8.5 -97.5
c0 -32 2.66699 -61.333 8 -88s13 -49.334 23 -68.001s21.833 -33.167 35.5 -43.5s28.834 -15.5 45.501 -15.5z" />
    <glyph glyph-name="colon" unicode=":" horiz-adv-x="225" 
d="M111 395c-16.667 0 -31 6 -43 18s-18 26.333 -18 43v3c0 16.667 6 31 18 43s26.333 18 43 18h3c16.667 0 31 -6 43 -18s18 -26.333 18 -43v-3c0 -16.667 -6 -31 -18 -43s-26.333 -18 -43 -18h-3zM111 0c-16.667 0 -31 6 -43 18s-18 26.333 -18 43v3c0 16.667 6 31 18 43
s26.333 18 43 18h3c16.667 0 31 -6 43 -18s18 -26.333 18 -43v-3c0 -16.667 -6 -31 -18 -43s-26.333 -18 -43 -18h-3z" />
    <glyph glyph-name="semicolon" unicode=";" horiz-adv-x="225" 
d="M111 395c-16.667 0 -31 6 -43 18s-18 26.333 -18 43v3c0 16.667 6 31 18 43s26.333 18 43 18h3c16.667 0 31 -6 43 -18s18 -26.333 18 -43v-3c0 -16.667 -6 -31 -18 -43s-26.333 -18 -43 -18h-3zM50 64c0 16.667 6 31.001 18 43.001s26.333 18 43 18h3
c16.667 0 31 -6 43 -18s18 -26.333 18 -43v-64c0 -38 -7.16699 -66.333 -21.5 -85s-38.5 -29.667 -72.5 -33c-9.33301 -1.33301 -16.833 0.666992 -22.5 6s-8.5 12.666 -8.5 21.999v12c0 4 1.83301 8 5.5 12s7.5 6.66699 11.5 8c18 3.33301 28.667 16 32 38
c2 13.333 -4.66699 20 -20 20h-4c-6.66699 0 -12.5 2.5 -17.5 7.5s-7.5 10.833 -7.5 17.5v39z" />
    <glyph glyph-name="less" unicode="&#x3c;" horiz-adv-x="555" 
d="M451 475c11.333 5.33301 21.5 5 30.5 -1s13.5 -15 13.5 -27v-7c0 -10.667 -4 -21.834 -12 -33.501s-16.667 -19.5 -26 -23.5l-166 -66c-13.333 -5.33301 -23.333 -13.333 -30 -24s-10 -21.667 -10 -33s3.33301 -22.333 10 -33s16.667 -18.667 30 -24l166 -66
c9.33301 -4 18 -11.833 26 -23.5s12 -22.834 12 -33.501v-6c0 -12.667 -4.5 -22 -13.5 -28s-19.167 -6.33301 -30.5 -1l-369 157c-9.33301 4 -17.833 11.833 -25.5 23.5s-11.5 22.834 -11.5 33.501v3c0 10.667 3.83301 21.834 11.5 33.501s16.167 19.5 25.5 23.5z" />
    <glyph glyph-name="equal" unicode="=" horiz-adv-x="604" 
d="M39 165c0 10 3.33301 18.333 10 25s15 10 25 10h445c10 0 18.333 -3.33301 25 -10s10 -15 10 -25s-3.33301 -18.333 -10 -25s-15 -10 -25 -10h-445c-10 0 -18.333 3.33301 -25 10s-10 15 -10 25zM39 365c0 10 3.33301 18.333 10 25s15 10 25 10h445
c10 0 18.333 -3.33301 25 -10s10 -15 10 -25s-3.33301 -18.333 -10 -25s-15 -10 -25 -10h-445c-10 0 -18.333 3.33301 -25 10s-10 15 -10 25z" />
    <glyph glyph-name="greater" unicode="&#x3e;" horiz-adv-x="555" 
d="M264 203c13.333 5.33301 23.333 13.333 30 24s10 21.667 10 33s-3.33301 22.333 -10 33s-16.667 18.667 -30 24l-166 66c-9.33301 4 -18 11.833 -26 23.5s-12 22.834 -12 33.501v7c0 12 4.5 21 13.5 27s19.167 6.33301 30.5 1l369 -156
c9.33301 -4 17.833 -11.833 25.5 -23.5s11.5 -22.834 11.5 -33.501v-3c0 -10.667 -3.83301 -21.834 -11.5 -33.501s-16.167 -19.5 -25.5 -23.5l-369 -157c-11.333 -5.33301 -21.5 -5 -30.5 1s-13.5 15.333 -13.5 28v6c0 10.667 4 21.834 12 33.501s16.667 19.5 26 23.5z" />
    <glyph glyph-name="question" unicode="?" horiz-adv-x="565" 
d="M265 0c-16.667 0 -31 6 -43 18s-18 26.333 -18 43v3c0 16.667 6 31 18 43s26.333 18 43 18h3c16.667 0 31 -6 43 -18s18 -26.333 18 -43v-3c0 -16.667 -6 -31 -18 -43s-26.333 -18 -43 -18h-3zM70 550c-19.333 3.33301 -33.1699 9.66406 -41.5029 18.9971
s-9.16602 23.333 -2.49902 42c15.333 45.333 45 81.333 89 108s97 40 159 40c36 0 68.833 -4.83301 98.5 -14.5s55 -23.5 76 -41.5s37.333 -39.5 49 -64.5s17.5 -52.833 17.5 -83.5c0 -35.333 -9.5 -67.166 -28.5 -95.499s-50.833 -58.166 -95.5 -89.499
c-12 -8 -22 -15.833 -30 -23.5s-14.667 -15.667 -20 -24s-9.5 -17.666 -12.5 -27.999s-4.83301 -22.5 -5.5 -36.5c-1.33301 -11.333 -6.83301 -22.166 -16.5 -32.499s-20.167 -15.5 -31.5 -15.5h-9c-16 0 -29.167 5.33301 -39.5 16s-15.166 24 -14.499 40
c1.33301 24 3.83301 44.5 7.5 61.5s9.33398 32.167 17.001 45.5s17.5 25.666 29.5 36.999s26.667 23 44 35c30.667 21.333 52.5 40.5 65.5 57.5s19.5 34.5 19.5 52.5c0 34 -11 61.5 -33 82.5s-51.333 31.5 -88 31.5c-34 0 -63.333 -8.16699 -88 -24.5s-42 -38.5 -52 -66.5
c-2.66699 -8 -9 -15.5 -19 -22.5s-19 -9.83301 -27 -8.5z" />
    <glyph glyph-name="at" unicode="@" horiz-adv-x="1225" 
d="M1035 -133c1.33301 0.666992 3.16895 1.33398 5.50195 2.00098s4.16602 0.333984 5.49902 -0.999023c0.666992 -1.33301 0.333984 -3 -0.999023 -5s-2.33301 -3.33301 -3 -4c-24.667 -16 -52.667 -30.667 -84 -44s-64.333 -24.833 -99 -34.5s-70.5 -17 -107.5 -22
s-73.5 -7.5 -109.5 -7.5c-87.333 0 -166.833 12.5 -238.5 37.5s-133 60.167 -184 105.5s-90.5 99.833 -118.5 163.5s-42 134.5 -42 212.5s13.833 148.833 41.5 212.5s66.834 118.167 117.501 163.5s111.334 80.5 182.001 105.5s149.334 37.5 236.001 37.5
c80 0 152.833 -10.333 218.5 -31s121.834 -49.834 168.501 -87.501s82.834 -83 108.501 -136s38.5 -111.833 38.5 -176.5c0 -54 -6.16699 -103 -18.5 -147s-30 -81.667 -53 -113s-50.333 -55.666 -82 -72.999s-67.167 -26 -106.5 -26c-44 0 -80.5 10.833 -109.5 32.5
s-48.5 51.167 -58.5 88.5c-0.666992 3.33301 -4.33398 4.66602 -11.001 3.99902s-10.667 -2.66699 -12 -6c-16.667 -32 -38.834 -57 -66.501 -75s-58.834 -27 -93.501 -27c-38.667 0 -73.334 6 -104.001 18s-56 29.167 -76 51.5s-34.333 49 -43 80s-10.667 65.5 -6 103.5
c4 36 14 68.833 30 98.5s36.5 55 61.5 76s53.833 37.333 86.5 49s68.334 17.5 107.001 17.5c32 0 58.833 -8.83301 80.5 -26.5s37.167 -46.167 46.5 -85.5c0 -2 1.5 -3.16699 4.5 -3.5s4.5 0.5 4.5 2.5c3.33301 28 6.83301 52 10.5 72s7.5 30 11.5 30h95l2 -1l1 -3l2 -1
c-2 -4.66699 -4 -12.334 -6 -23.001s-4 -23.167 -6 -37.5s-3.83301 -29.833 -5.5 -46.5s-3.16699 -33.334 -4.5 -50.001c-2.66699 -39.333 -5.33398 -82.333 -8.00098 -129c-7.33301 -60.667 -4.5 -109.334 8.5 -146.001s34.167 -55 63.5 -55c25.333 0 48.5 8.33301 69.5 25
s39 40.334 54 71.001s26.5 67.5 34.5 110.5s12 90.833 12 143.5c0 63.333 -10.833 120.666 -32.5 171.999s-52.167 95.5 -91.5 132.5s-86.5 65.5 -141.5 85.5s-116.167 30 -183.5 30c-74 0 -141.167 -12.167 -201.5 -36.5s-112 -58.666 -155 -102.999
s-76.333 -97.833 -100 -160.5s-35.5 -132 -35.5 -208s12 -145.333 36 -208s57.667 -116.167 101 -160.5s95.666 -78.666 156.999 -102.999s129.333 -36.5 204 -36.5c35.333 0 71.166 2.5 107.499 7.5s71.666 12.167 105.999 21.5s66.833 20.5 97.5 33.5s58 27.5 82 43.5z
M744.003 304l0.501953 1.99902l0.5 2c-1.33301 67.333 -13.833 115.5 -37.5 144.5s-55.167 43.5 -94.5 43.5c-20.667 0 -40.334 -5.33301 -59.001 -16s-35.5 -26 -50.5 -46s-27.5 -43.833 -37.5 -71.5s-17 -58.5 -21 -92.5c-4 -36 -4.33301 -68.5 -1 -97.5s10 -54 20 -75
s23.167 -37.167 39.5 -48.5s35.166 -17 56.499 -17c23.333 0 45.166 4.33301 65.499 13s38.333 20.667 54 36s28.5 33.833 38.5 55.5s16.667 45.834 20 72.501c0.666992 8.66699 1 18 1 28c0.666992 9.33301 1.33398 19.5 2.00098 30.5s1.66699 23.167 3 36.5z" />
    <glyph glyph-name="A" unicode="A" horiz-adv-x="754" 
d="M513 252c1.33301 -4.66699 -0.335938 -7.00098 -5.00293 -7.00098l-313 1c-11.333 0 -22.833 -4 -34.5 -12s-19.5 -17.333 -23.5 -28l-58 -155l-8 -20.5l-8 -20.5c-2 -6 -6 -9 -12 -9h-7h-5c0.666992 2 1.33398 4.33301 2.00098 7c0.666992 2 1.66699 4.5 3 7.5
s2.66602 6.5 3.99902 10.5c3.33301 8 9.33301 23.833 18 47.5l32 85.5l41.5 110l45.5 121l44.5 118l38.5 101.5l27.5 71.5c7 18 10.5 27.333 10.5 28l8 21c2 5.33301 6.16699 10.166 12.5 14.499s12.166 6.5 17.499 6.5h75c10.667 0 21.834 -4 33.501 -12
s19.5 -17.333 23.5 -28l251 -663l9 -22l6.5 -17.5c1.66699 -4.33301 2.5 -6.83301 2.5 -7.5c0.666992 -1.33301 0.333984 -1.66602 -0.999023 -0.999023s-2.66602 1 -3.99902 1h-112c-5.33301 0 -10.666 1.83301 -15.999 5.5s-9 7.83398 -11 12.501l-7 19l-5 12l-37.5 101.5
l-38.5 101.5v-0.5v-0.5zM187.998 343.999c-8 -21.333 -6.16602 -40.5 5.50098 -57.5s29.167 -25.5 52.5 -25.5h175c23.333 0 40.833 8.5 52.5 25.5s13.5 36.167 5.5 57.5l-88 234c-4.66699 14 -12.334 24.5 -23.001 31.5s-22 10.5 -34 10.5s-23.333 -3.5 -34 -10.5
s-18.667 -17.167 -24 -30.5z" />
    <glyph glyph-name="B" unicode="B" horiz-adv-x="693" 
d="M488 427c-2.66699 -0.666992 -3.66797 -3.83105 -3.00098 -9.49805s2 -8.5 4 -8.5c52.667 -12 94 -34.667 124 -68s45 -74.333 45 -123c0 -38.667 -5 -71.834 -15 -99.501s-26 -50.167 -48 -67.5s-50.5 -30 -85.5 -38s-77.167 -12 -126.5 -12h-235
c-16.667 0 -31 6 -43 18s-18 26.333 -18 43v628c0 16.667 6 31 18 43s26.333 18 43 18h197c49.333 0 91.5 -3.66699 126.5 -11s63.5 -18.833 85.5 -34.5s38 -36 48 -61s15 -55.5 15 -91.5c0 -30 -11.667 -55.833 -35 -77.5s-55.666 -37.834 -96.999 -48.501z
M214.999 481.003c0 -16.667 5.99902 -30.998 17.999 -42.998s26.333 -18 43 -18h83c38.667 0 69.667 11.167 93 33.5s35 52.166 35 89.499c0 69.333 -10.667 118.666 -32 147.999s-57.666 44 -108.999 44h-70c-16.667 0 -31 -6 -43 -18s-18 -26.333 -18 -43v-193z
M214.998 76.0049c0 -16.667 6 -31 18 -43s26.333 -18 43 -18h102c51.333 0 87.833 16.5 109.5 49.5s32.5 88.5 32.5 166.5c0 52.667 -11 95 -33 127s-51 48 -87 48h-124c-16.667 0 -31 -6 -43 -18s-18 -26.333 -18 -43v-269z" />
    <glyph glyph-name="C" unicode="C" horiz-adv-x="695" 
d="M656 174c2.66699 5.33301 6.66406 6.00488 11.9971 2.00488c4.66699 -4 5.66699 -8.66699 3 -14c-12 -25.333 -27 -48.666 -45 -69.999s-37.667 -39.333 -59 -54s-44.166 -26.167 -68.499 -34.5s-48.833 -12.5 -73.5 -12.5c-56 0 -107 10.333 -153 31
s-85.167 48.5 -117.5 83.5s-57.5 75.667 -75.5 122s-27 95.5 -27 147.5s9 101.167 27 147.5s43.167 87 75.5 122s71.5 62.833 117.5 83.5s97 31 153 31c21.333 0 43.166 -4.16699 65.499 -12.5s44.333 -19.833 66 -34.5s42.167 -32.667 61.5 -54
s36.666 -44.666 51.999 -69.999c0.666992 -1.33301 1.33398 -3.33301 2.00098 -6s0.666992 -4.33398 0 -5.00098l-4 -3l-4 -3c-1.33301 -0.666992 -3 -0.333984 -5 0.999023s-3.33301 2.66602 -4 3.99902c-15.333 25.333 -32.166 48.166 -50.499 68.499
s-37.666 37.833 -57.999 52.5s-40.833 26 -61.5 34s-40.667 12 -60 12c-35.333 0 -67.5 -9.83301 -96.5 -29.5s-53.833 -46.334 -74.5 -80.001s-36.667 -72.667 -48 -117s-17 -91.5 -17 -141.5s5.66699 -97.167 17 -141.5s27.333 -83.333 48 -117s45.5 -60.334 74.5 -80.001
s61.167 -29.5 96.5 -29.5c22.667 0 45.334 4 68.001 12s44 19.333 64 34s38.5 32.167 55.5 52.5s31.5 43.166 43.5 68.499z" />
    <glyph glyph-name="D" unicode="D" horiz-adv-x="765" 
d="M350 0l-201.998 0.000976562c-16.667 0 -31 6 -43 18s-18 26.333 -18 43v628c0 16.667 6 31 18 43s26.333 18 43 18h172c129.333 0 226.666 -31.333 291.999 -94s98 -156.334 98 -281.001c0 -128 -29.333 -222.5 -88 -283.5s-149.334 -91.5 -272.001 -91.5z
M215.002 76.001c0 -16.667 5.99902 -31.001 17.999 -43.001s26.333 -18 43 -18h73c76.667 0 133.167 29.333 169.5 88s54.5 149.334 54.5 272.001c0 120 -21.167 210 -63.5 270s-105.166 90 -188.499 90h-53c-14.667 0 -27.167 -5.16699 -37.5 -15.5
s-15.5 -22.833 -15.5 -37.5v-606z" />
    <glyph glyph-name="E" unicode="E" horiz-adv-x="640" 
d="M582 16c5.33301 0 8 -2.66699 8 -8s-2.66699 -8 -8 -8h-434c-16.667 0 -31 6 -43 18s-18 26.333 -18 43v628c0 16.667 6 31 18 43s26.333 18 43 18h419c5.33301 0 8 -2.66699 8 -8s-2.66699 -8 -8 -8h-291c-16.667 0 -31 -6 -43 -18s-18 -26.333 -18 -43v-218
c0 -16.667 6 -31 18 -43s26.333 -18 43 -18h272c4.66699 0 7 -2.33301 7 -7s-2.33301 -7 -7 -7h-272c-16.667 0 -31 -6 -43 -18s-18 -26.333 -18 -43v-242c0 -16.667 6 -31 18 -43s26.333 -18 43 -18h306z" />
    <glyph glyph-name="F" unicode="F" horiz-adv-x="605" 
d="M538 394c4.66699 0 7 -2.33301 7 -7s-2.33301 -7 -7 -7h-262c-16.667 0 -31 -6 -43 -18s-18 -26.333 -18 -43v-258c0 -16.667 -6 -31 -18 -43s-26.333 -18 -43 -18h-6c-16.667 0 -31 6 -43 18s-18 26.333 -18 43v628c0 16.667 6 31 18 43s26.333 18 43 18h419
c5.33301 0 8 -2.66699 8 -8s-2.66699 -8 -8 -8h-291c-16.667 0 -31 -6 -43 -18s-18 -26.333 -18 -43v-218c0 -16.667 6 -31 18 -43s26.333 -18 43 -18h262z" />
    <glyph glyph-name="G" unicode="G" horiz-adv-x="746" 
d="M460 395c-5.33301 0 -8.00098 2.66992 -8.00098 8.00293s2.66699 8 8 8h180c16.667 0 31 -6 43 -18s18 -26.333 18 -43v-217c0 -6.66699 -2.83301 -15.5 -8.5 -26.5s-11.167 -18.5 -16.5 -22.5c-37.333 -28.667 -75.833 -51.334 -115.5 -68.001s-77.5 -25 -113.5 -25
c-59.333 0 -113.333 9.16699 -162 27.5s-90.167 44.333 -124.5 78s-61 74.167 -80 121.5s-28.5 99.666 -28.5 156.999s9.5 109.666 28.5 156.999s45.667 87.833 80 121.5s75.833 59.667 124.5 78s102.667 27.5 162 27.5c18 0 36.833 -4.16699 56.5 -12.5
s39 -19.833 58 -34.5s37.667 -32.667 56 -54s35.166 -44.666 50.499 -69.999c0.666992 -1.33301 1.33398 -3.33301 2.00098 -6s0.666992 -4.33398 0 -5.00098l-4 -3l-4 -3c-1.33301 -0.666992 -3 -0.333984 -5 0.999023s-3.33301 2.66602 -4 3.99902
c-14.667 25.333 -30.667 48.166 -48 68.499s-35 37.833 -53 52.5s-36 26 -54 34s-35 12 -51 12c-38.667 0 -73.834 -8.83301 -105.501 -26.5s-58.834 -42.5 -81.501 -74.5s-40.167 -70.667 -52.5 -116s-18.5 -95.666 -18.5 -150.999s6.16699 -105.666 18.5 -150.999
s29.833 -84 52.5 -116s49.834 -56.833 81.501 -74.5s66.834 -26.5 105.501 -26.5c32.667 0 67.334 7.83301 104.001 23.5s72.667 36.834 108 63.501c5.33301 4.66699 10.5 12.167 15.5 22.5s7.5 18.833 7.5 25.5v192c0 16.667 -6 31 -18 43s-26.333 18 -43 18h-161z" />
    <glyph glyph-name="H" unicode="H" horiz-adv-x="778" 
d="M693 61c0 -16.667 -6 -31 -18 -43s-26.333 -18 -43 -18h-6c-16.667 0 -31 6 -43 18s-18 26.333 -18 43v265c0 16.667 -6 31 -18 43s-26.333 18 -43 18h-228c-16.667 0 -31 -6 -43 -18s-18 -26.333 -18 -43v-265c0 -16.667 -6 -31 -18 -43s-26.333 -18 -43 -18h-6
c-16.667 0 -31 6 -43 18s-18 26.333 -18 43v628c0 16.667 6 31 18 43s26.333 18 43 18h6c16.667 0 31 -6 43 -18s18 -26.333 18 -43v-225c0 -16.667 6 -31 18 -43s26.333 -18 43 -18h228c16.667 0 31 6 43 18s18 26.333 18 43v225c0 16.667 6 31 18 43s26.333 18 43 18h6
c16.667 0 31 -6 43 -18s18 -26.333 18 -43v-628z" />
    <glyph glyph-name="I" unicode="I" horiz-adv-x="301" 
d="M216 61c0 -16.667 -6 -31 -18 -43s-26.333 -18 -43 -18h-6c-16.667 0 -31 6 -43 18s-18 26.333 -18 43v628c0 16.667 6 31 18 43s26.333 18 43 18h6c16.667 0 31 -6 43 -18s18 -26.333 18 -43v-628z" />
    <glyph glyph-name="J" unicode="J" horiz-adv-x="565" 
d="M49 248c0 8 3 15.668 9 23.001s13.333 12 22 14l72 13c6.66699 0.666992 12.5 -1 17.5 -5s7.5 -9.33301 7.5 -16v-25c0 -84.667 7 -146.334 21 -185.001s36.333 -58 67 -58c28.667 0 50.334 19.333 65.001 58s22 89.667 22 153v469c0 16.667 6 31 18 43s26.333 18 43 18
h6c16.667 0 31 -6 43 -18s18 -26.333 18 -43v-469c0 -34 -4.5 -65.167 -13.5 -93.5s-22.5 -52.5 -40.5 -72.5s-40.5 -35.5 -67.5 -46.5s-58.167 -16.5 -93.5 -16.5c-74.667 0 -129.334 18 -164.001 54s-52 93 -52 171v32z" />
    <glyph glyph-name="K" unicode="K" horiz-adv-x="683" 
d="M668 8c3.33301 -5.33301 1.66797 -7.99805 -4.99902 -7.99805h-118c-6 0 -13 2.33301 -21 7s-13.667 9.66699 -17 15l-13 21l-4 7l-178 292c-6.66699 10.667 -9.33398 23.167 -8.00098 37.5s6 26.166 14 35.499l16 18c12 13.333 26.333 19.166 43 17.499
s29.667 -10.167 39 -25.5l227 -375l12.5 -20.5c4.33301 -7 8.5 -14.167 12.5 -21.5zM612.002 750.002c3.33301 0 4 -1.33398 2 -4.00098l-20.5 -22.5c-9 -9.66699 -15.167 -16.167 -18.5 -19.5l-345 -386c-3.33301 -2.66699 -6.83301 -9 -10.5 -19s-5.5 -17 -5.5 -21v-216
c0 -16.667 -6 -31 -18 -43s-26.333 -18 -43 -18h-6c-16.667 0 -31 6 -43 18s-18 26.333 -18 43v628c0 16.667 6 31 18 43s26.333 18 43 18h6c16.667 0 31 -6 43 -18s18 -26.333 18 -43v-204c0 -15.333 3.66699 -28 11 -38s16.5 -17.167 27.5 -21.5
s22.833 -5.16602 35.5 -2.49902s23.667 9.66699 33 21l262 294l5 6l6 3c2.66699 1.33301 4.66699 2 6 2h12z" />
    <glyph glyph-name="L" unicode="L" horiz-adv-x="571" 
d="M533 16c5.33301 0 8 -2.66699 8 -8s-2.66699 -8 -8 -8h-384c-16.667 0 -31 6 -43 18s-18 26.333 -18 43v628c0 16.667 6 31 18 43s26.333 18 43 18h6c16.667 0 31 -6 43 -18s18 -26.333 18 -43v-612c0 -16.667 6 -31 18 -43s26.333 -18 43 -18h256z" />
    <glyph glyph-name="M" unicode="M" horiz-adv-x="825" 
d="M133 10c0 -6.66699 -2.99902 -10 -8.99902 -10c-6.66699 -0 -10 3.33301 -10 10v679c0 16.667 6 31 18 43s26.333 18 43 18h22c12.667 0 25 -4.66699 37 -14s19.667 -20.333 23 -33l108 -431c3.33301 -15.333 10.833 -27 22.5 -35s24 -12 37 -12
s25.167 3.83301 36.5 11.5s19 19.5 23 35.5l108 432c3.33301 12 11 22.667 23 32s24.333 14 37 14h27c16.667 0 31 -6 43 -18s18 -26.333 18 -43v-628c0 -16.667 -6 -31 -18 -43s-26.333 -18 -43 -18h-2c-16.667 0 -31 6 -43 18s-18 26.333 -18 43v302
c0 12 -4 21.667 -12 29s-17.333 11.666 -28 12.999s-20.834 -0.5 -30.501 -5.5s-15.834 -13.5 -18.501 -25.5l-83 -328c-3.33301 -12 -11 -22.667 -23 -32s-24.333 -14 -37 -14h-18c-13.333 0 -25.833 4.66699 -37.5 14s-19.167 20 -22.5 32l-83 327
c-3.33301 12 -9.83301 20.5 -19.5 25.5s-19.667 6.83301 -30 5.5s-19.666 -5.66602 -27.999 -12.999s-12.5 -17 -12.5 -29v-352z" />
    <glyph glyph-name="N" unicode="N" horiz-adv-x="668" 
d="M133 10c0 -6.66699 -3 -10 -9 -10c-6.66699 -0 -10 3.33301 -10 10v679c0 16.667 6 31 18 43s26.333 18 43 18h41c10.667 0 21.834 -3.83301 33.501 -11.5s19.5 -16.5 23.5 -26.5l173 -411c6 -14.667 15.667 -24.834 29 -30.501s26.5 -7.16699 39.5 -4.5
s24.5 9.16699 34.5 19.5s15 23.5 15 39.5v416c0 6 3.33301 9 10 9c6 0 9 -3 9 -9v-680c0 -16.667 -6 -31 -18 -43s-26.333 -18 -43 -18h-51c-10.667 0 -21.834 3.83301 -33.501 11.5s-19.5 16.5 -23.5 26.5l-163 387c-6 14.667 -15.667 24.834 -29 30.501
s-26.5 7.16699 -39.5 4.5s-24.5 -9.16699 -34.5 -19.5s-15 -23.5 -15 -39.5v-391z" />
    <glyph glyph-name="O" unicode="O" horiz-adv-x="814" 
d="M194 375c0 -55.333 5.16699 -105.666 15.5 -150.999s24.833 -84 43.5 -116s41.167 -56.833 67.5 -74.5s55.5 -26.5 87.5 -26.5s61.167 8.83301 87.5 26.5s48.833 42.5 67.5 74.5s33.167 70.667 43.5 116s15.5 95.666 15.5 150.999c0 52.667 -5.5 101.334 -16.5 146.001
s-26 83.5 -45 116.5s-41.5 58.833 -67.5 77.5s-54.333 28 -85 28s-59 -9.33301 -85 -28s-48.5 -44.5 -67.5 -77.5s-34 -71.833 -45 -116.5s-16.5 -93.334 -16.5 -146.001zM57 375c0 54.667 8.83105 105.5 26.498 152.5s42.334 87.667 74.001 122
s68.834 61.166 111.501 80.499s89 29 139 29s96.333 -9.66699 139 -29s79.834 -46.166 111.501 -80.499s56.334 -75 74.001 -122s26.5 -97.833 26.5 -152.5c0 -57.333 -8.33301 -109.666 -25 -156.999s-40.334 -87.833 -71.001 -121.5s-67.667 -59.667 -111 -78
s-91.333 -27.5 -144 -27.5s-100.667 9.16699 -144 27.5s-80.333 44.333 -111 78s-54.334 74.167 -71.001 121.5s-25 99.666 -25 156.999z" />
    <glyph glyph-name="P" unicode="P" horiz-adv-x="624" 
d="M215 61c0 -16.667 -6 -31 -18 -43s-26.333 -18 -43 -18h-6c-16.667 0 -31 6 -43 18s-18 26.333 -18 43v628c0 16.667 6 31 18 43s26.333 18 43 18h178c175.333 0 263 -75 263 -225c0 -135.333 -87.667 -203 -263 -203h-55c-16 0 -29.333 -5.33301 -40 -16
s-16 -23.667 -16 -39v-206zM215 393c0 -15.333 5.5 -28.5 16.5 -39.5s24.167 -16.5 39.5 -16.5h56c89.333 0 134 62.667 134 188c0 140 -45.333 210 -136 210h-55c-15.333 0 -28.333 -5.33301 -39 -16s-16 -23.667 -16 -39v-287z" />
    <glyph glyph-name="Q" unicode="Q" horiz-adv-x="814" 
d="M195 375c0 -55.333 5.16895 -105.668 15.502 -151.001s24.833 -84.166 43.5 -116.499s41.167 -57.333 67.5 -75s55.5 -26.5 87.5 -26.5c29.333 0 56.666 7.66699 81.999 23c4 2.66699 6 6 6 10s-1.33301 7.66699 -4 11l-55 54c-4 4 -4 8 0 12
c3.33301 4 6.66602 4.33301 9.99902 1c10 -8.66699 20.333 -17 31 -25s21.667 -15.333 33 -22c4.66699 -3.33301 9.83398 -4.5 15.501 -3.5s10.167 3.83301 13.5 8.5c25.333 32 45.166 73.5 59.499 124.5s21.5 109.5 21.5 175.5c0 52.667 -5.5 101.334 -16.5 146.001
s-26 83.5 -45 116.5s-41.5 58.833 -67.5 77.5s-54.333 28 -85 28s-59 -9.33301 -85 -28s-48.5 -44.5 -67.5 -77.5s-34 -71.833 -45 -116.5s-16.5 -93.334 -16.5 -146.001h1zM58.002 373.998c0 54.667 8.83301 105.499 26.5 152.499s42.167 87.667 73.5 122
s68.333 61.166 111 80.499s89 29 139 29s96.333 -9.66699 139 -29s79.834 -46.166 111.501 -80.499s56.334 -75 74.001 -122s26.5 -97.833 26.5 -152.5c0 -74.667 -13.5 -140 -40.5 -196s-65.167 -100 -114.5 -132c-6 -4 -8.16699 -9.16699 -6.5 -15.5
s5.83398 -10.833 12.501 -13.5c22 -10 40.333 -17.667 55 -23s22.667 -8.33301 24 -9c3.33301 -1.33301 4.66602 -2.5 3.99902 -3.5s-2.33398 -2.33301 -5.00098 -4l-9 -5.5c-3.33301 -2 -6 -4 -8 -6l-38 -40l-16 -17c-4.66699 6.66699 -10.667 14.334 -18 23.001l-23.5 28
l-31.5 36c-3.33301 3.33301 -8.5 5.83301 -15.5 7.5s-12.833 1.83398 -17.5 0.500977c-32 -9.33301 -66 -14 -102 -14c-52.667 0 -100.667 9.16699 -144 27.5s-80.333 44.333 -111 78s-54.334 74.167 -71.001 121.5s-25 99.666 -25 156.999z" />
    <glyph glyph-name="R" unicode="R" horiz-adv-x="624" 
d="M590 50c2 -3.33301 3.66699 -6.66797 5 -10.001c2 -2.66699 3.83301 -5.66699 5.5 -9s3.5 -6.66602 5.5 -9.99902l6 -10c1.33301 -2.66699 1.33301 -5.16699 0 -7.5s-3.33301 -3.5 -6 -3.5h-99c-8.66699 -0 -18.667 3.33301 -30 10s-19.333 13.667 -24 21l-138 245
c-8.66699 15.333 -9 29.833 -1 43.5s21 20.5 39 20.5h37c8.66699 0 18.667 -3.33301 30 -10s19.333 -13.667 24 -21zM215 60.998c0 -16.667 -6 -31 -18 -43s-26.333 -18 -43 -18h-6c-16.667 0 -31 6 -43 18s-18 26.333 -18 43v628c0 16.667 6 31 18 43s26.333 18 43 18h178
c175.333 0 263 -75 263 -225c0 -122 -87.667 -183 -263 -183h-55c-16 0 -29.333 -5.33301 -40 -16s-16 -23.667 -16 -39v-226zM215 412.998c0 -15.333 5.5 -28.5 16.5 -39.5s24.167 -16.5 39.5 -16.5h56c89.333 0 134 56 134 168c0 140 -45.333 210 -136 210h-55
c-15.333 0 -28.333 -5.33301 -39 -16s-16 -23.667 -16 -39v-267z" />
    <glyph glyph-name="S" unicode="S" horiz-adv-x="625" 
d="M543 608l-3.00098 -2.49805c-2 -1.66699 -3 -2.83398 -3 -3.50098h-1c-1.33301 -0.666992 -3.16602 -0.5 -5.49902 0.5s-3.83301 2.16699 -4.5 3.5c-42 44.667 -85.333 78.5 -130 101.5s-86.667 34.5 -126 34.5c-30.667 0 -55.334 -16.667 -74.001 -50
s-28 -77.666 -28 -132.999c0 -54 53.333 -90 160 -108c86.667 -14.667 151.834 -42.167 195.501 -82.5s65.5 -93.166 65.5 -158.499c0 -32.667 -5.16699 -62.5 -15.5 -89.5s-25.666 -50 -45.999 -69s-45.833 -33.833 -76.5 -44.5s-66 -16 -106 -16
c-58.667 0 -113 14.833 -163 44.5s-89.667 73.834 -119 132.501c-2.66699 6 -1.33398 11 3.99902 15s9.33301 3 12 -3c28.667 -56.667 66.5 -99.5 113.5 -128.5s97.833 -43.5 152.5 -43.5c38.667 0 67.667 18 87 54s29 84 29 144c0 57.333 -56 95.666 -168 114.999
c-171.333 29.333 -257 104.333 -257 225c0 32 5.66699 61.167 17 87.5s27.166 48.666 47.499 66.999s45 32.666 74 42.999s60.833 15.5 95.5 15.5c37.333 0 72.333 -7.33301 105 -22s61.334 -31 86.001 -49c28.667 -20.667 55 -44.334 79 -71.001l3 -3c2 -2 2 -4 0 -6z" />
    <glyph glyph-name="T" unicode="T" horiz-adv-x="595" 
d="M577 750c5.33301 0 8 -2.66699 8 -8s-2.66699 -8 -8 -8h-154c-16.667 0 -31 -6 -43 -18s-18 -26.333 -18 -43v-612c0 -16.667 -6 -31 -18 -43s-26.333 -18 -43 -18h-7c-16.667 0 -31 6 -43 18s-18 26.333 -18 43v612c0 16.667 -6 31 -18 43s-26.333 18 -43 18h-154
c-5.33301 0 -8 2.66699 -8 8s2.66699 8 8 8h559z" />
    <glyph glyph-name="U" unicode="U" horiz-adv-x="704" 
d="M605 741c0 6 3.33301 9.00195 10 9.00195c6 0 9 -3 9 -9v-447c0 -100.667 -22.667 -176.334 -68 -227.001s-113.333 -76 -204 -76c-181.333 0 -272 99.333 -272 298v400c0 16.667 6 31 18 43s26.333 18 43 18h6c16.667 0 31 -6 43 -18s18 -26.333 18 -43v-377
c0 -100.667 12 -176.334 36 -227.001s60 -76 108 -76c168.667 0 253 96.333 253 289v443z" />
    <glyph glyph-name="V" unicode="V" horiz-adv-x="637" 
d="M572 747c0.666992 2 2.00195 3.00098 4.00195 3.00098h7c7.33301 -0.666992 9.66602 -4.33398 6.99902 -11.001l-10 -34l-2 -4l-202 -657c-3.33301 -11.333 -10.833 -21.333 -22.5 -30s-23.5 -13 -35.5 -13h-30c-12 0 -23.833 4.33301 -35.5 13s-19.167 18.667 -22.5 30
l-203 657l-2 5l-12 39l-1 3c-0.666992 2 0 3 2 3h125c6 0 10 -3 12 -9l2 -9l143 -502c4 -15.333 11.667 -26.833 23 -34.5s23.166 -11.5 35.499 -11.5s24.166 3.66699 35.499 11s19.333 18.666 24 33.999l144 473c0.666992 3.33301 2.83398 10.333 6.50098 21
s6.16699 18.334 7.5 23.001z" />
    <glyph glyph-name="W" unicode="W" horiz-adv-x="837" 
d="M783 741c1.33301 6 5.33789 9.33301 12.0049 10h4h5c0 -2 -0.333008 -4.33301 -1 -7c0 -2 -0.333008 -4.5 -1 -7.5s-1.33398 -6.5 -2.00098 -10.5l-60 -335.5l-59 -336.5c-2.66699 -13.333 -10 -25.666 -22 -36.999s-25 -17 -39 -17h-22c-14 0 -26.833 5 -38.5 15
s-18.834 21.667 -21.501 35l-59 318c-2.66699 16.667 -10 29 -22 37s-24.667 12 -38 12s-26 -4 -38 -12s-19.333 -20.333 -22 -37l-59 -318c-2.66699 -13.333 -9.83398 -25 -21.501 -35s-24.5 -15 -38.5 -15h-21c-14 0 -26.833 5 -38.5 15s-18.834 22 -21.501 36l-117 652
l-4 22c-1.33301 7.33301 -2.33301 13.166 -3 17.499s-1 6.83301 -1 7.5c0 1.33301 0.5 1.66602 1.5 0.999023s2.16699 -1 3.5 -1h127h5c0.666992 -2 1 -4.33301 1 -7c0.666992 -2 1.16699 -4.5 1.5 -7.5s0.833008 -6.5 1.5 -10.5l54 -338
c2.66699 -15.333 9.5 -26.833 20.5 -34.5s23.167 -11.667 36.5 -12s25.666 3.33398 36.999 11.001s18.333 19.167 21 34.5l57 314c2.66699 13.333 9.83398 25 21.501 35s24.5 15 38.5 15h22c14 0 26.833 -5 38.5 -15s18.834 -21.667 21.501 -35l60 -326
c2.66699 -16 9.66699 -27.833 21 -35.5s23.666 -11.5 36.999 -11.5s25.666 4 36.999 12s18.333 19.667 21 35l57 326z" />
    <glyph glyph-name="X" unicode="X" horiz-adv-x="690" 
d="M66 26l111.997 142l110 143c6.66699 8.66699 10.834 19.167 12.501 31.5s-0.166016 22.833 -5.49902 31.5l-90.5 157.5l-90.5 157.5c-8 14 -8.83301 28 -2.5 42s17.5 21 33.5 21h66c0.666992 -1.33301 2.5 -4.5 5.5 -9.5s6.5 -10.5 10.5 -16.5l13 -24l104 -181
c6 -10 13.333 -17.833 22 -23.5s17.667 -8.83398 27 -9.50098s18.666 1.16602 27.999 5.49902s17.666 11.166 24.999 20.499l147 188c1.33301 2 3 4.33301 5 7c2 2 4 4.5 6 7.5s4.66699 6.5 8 10.5l13 16c1.33301 2 4 4 8 6s7.33301 3 10 3h5h6
c-1.33301 -2 -3 -4.33301 -5 -7c-2 -2 -4 -4.5 -6 -7.5s-4.66699 -6.5 -8 -10.5l-106.5 -135.5l-105.5 -136.5c-6.66699 -8 -10.667 -18 -12 -30s0.666992 -22.667 6 -32l97 -169.5l97 -169.5c8 -14 8 -26.333 0 -37s-19.667 -16 -35 -16h-67
c-0.666992 1.33301 -2.5 4.5 -5.5 9.5l-10.5 17.5c-4 6.66699 -8.33301 14.334 -13 23.001l-112 195c-6 10.667 -13.333 18.667 -22 24s-17.667 8.33301 -27 9s-18.666 -1.16602 -27.999 -5.49902s-17.666 -11.166 -24.999 -20.499l-160 -206l-30 -38
c-1.33301 -2 -4.16602 -4 -8.49902 -6s-7.5 -3 -9.5 -3h-6h-6c1.33301 2 3 4.33301 5 7c2 2 4 4.5 6 7.5s4.66699 6.5 8 10.5z" />
    <glyph glyph-name="Y" unicode="Y" horiz-adv-x="633" 
d="M144 750c3.33301 0 6.83496 -1.16602 10.502 -3.49902s6.16699 -4.83301 7.5 -7.5l8 -14c2.66699 -4.66699 5 -9 7 -13c2.66699 -4.66699 5 -9 7 -13l174 -315c2.66699 -4.66699 7 -7 13 -7c5.33301 0.666992 9.33301 3.33398 12 8.00098l179 328l11.5 21
c5 9.33301 7.83301 14.666 8.5 15.999c1.33301 2 2.66602 2.5 3.99902 1.5s3.33301 -1.5 6 -1.5c6 0 7.33301 -2.66699 4 -8l-196 -357c-1.33301 -2 -3 -7 -5 -15s-3 -13 -3 -15v-294c0 -16.667 -6 -31 -18 -43s-26.333 -18 -43 -18h-6c-16.667 0 -31 6 -43 18
s-18 26.333 -18 43v253c0 2 -1 7 -3 15s-3.66699 13 -5 15l-200 356l-4 8c-2 2.66699 -3.83301 5.66699 -5.5 9s-3.5 6.66602 -5.5 9.99902l-6 12c-2 2.66699 -2.33301 5.16699 -1 7.5s3.66602 3.5 6.99902 3.5h103z" />
    <glyph glyph-name="Z" unicode="Z" horiz-adv-x="655" 
d="M602 16c5.33301 0 8 -2.66699 8 -8s-2.66699 -8 -8 -8h-549c-5.33301 0 -8 2.66699 -8 8c0 1.33301 0.5 3.83301 1.5 7.5s1.83301 6.16699 2.5 7.5l364 618c6 11.333 9.16699 22.5 9.5 33.5s-2.16699 20.833 -7.5 29.5s-12.666 15.834 -21.999 21.501
s-20.333 8.5 -33 8.5h-292c-5.33301 0 -8 2.66699 -8 8s2.66699 8 8 8h534c5.33301 0 8 -2.66699 8 -8c0 -1.33301 -0.5 -3.83301 -1.5 -7.5s-1.83301 -6.16699 -2.5 -7.5l-364 -618c-6 -11.333 -9.16699 -22.5 -9.5 -33.5s2.16699 -20.833 7.5 -29.5
s12.666 -15.834 21.999 -21.501s20.333 -8.5 33 -8.5h307z" />
    <glyph glyph-name="bracketleft" unicode="[" horiz-adv-x="360" 
d="M261 685c-16.667 0 -31 -6.00195 -43 -18.002s-18 -26.333 -18 -43v-613c0 -16.667 6 -31 18 -43s26.333 -18 43 -18h37c8.66699 0 16.167 -3.16699 22.5 -9.5s9.5 -14.166 9.5 -23.499c0 -8.66699 -3.16699 -16.167 -9.5 -22.5s-13.833 -9.5 -22.5 -9.5h-112
c-16.667 0 -31 6 -43 18s-18 26.333 -18 43v743c0 16.667 6 31 18 43s26.333 18 43 18h112c8.66699 0 16.167 -3.16699 22.5 -9.5s9.5 -13.833 9.5 -22.5c0 -9.33301 -3.16699 -17.166 -9.5 -23.499s-13.833 -9.5 -22.5 -9.5h-37z" />
    <glyph glyph-name="backslash" unicode="\" horiz-adv-x="340" 
d="M315 0c-6.66699 0 -13.5 2.33301 -20.5 7s-11.5 10 -13.5 16l-272 704c-2 6 -1.5 11.333 1.5 16s7.83301 7 14.5 7s13.5 -2.33301 20.5 -7s11.5 -10 13.5 -16l272 -704c2 -6 1.5 -11.333 -1.5 -16s-7.83301 -7 -14.5 -7z" />
    <glyph glyph-name="bracketright" unicode="]" horiz-adv-x="360" 
d="M160 624c0 16.667 -6 31.002 -18 43.002s-26.333 18 -43 18h-36c-9.33301 0 -17.166 3.16699 -23.499 9.5s-9.5 14.166 -9.5 23.499c0 8.66699 3.16699 16.167 9.5 22.5s14.166 9.5 23.499 9.5h111c16.667 0 31 -6 43 -18s18 -26.333 18 -43v-743
c0 -16.667 -6 -31 -18 -43s-26.333 -18 -43 -18h-111c-9.33301 0 -17.166 3.16699 -23.499 9.5s-9.5 13.833 -9.5 22.5c0 9.33301 3.16699 17.166 9.5 23.499s14.166 9.5 23.499 9.5h36c16.667 0 31 6 43 18s18 26.333 18 43v613z" />
    <glyph glyph-name="asciicircum" unicode="^" horiz-adv-x="340" 
d="M179 657c-4.66699 2.66699 -7.66797 3.5 -9.00098 2.5s-3.66602 -3.16699 -6.99902 -6.5l-40 -37c-3.33301 -2.66699 -10 -6 -20 -10s-17.333 -6 -22 -6h-28c-12 0 -20.333 4.66699 -25 14s-3.66699 18.666 3 27.999l63 83c4 6 11.5 11.667 22.5 17s19.833 8 26.5 8h54
c6.66699 0 15.5 -2.66699 26.5 -8s18.5 -11 22.5 -17l63 -83c6.66699 -9.33301 7.66699 -18.666 3 -27.999s-12.667 -14 -24 -14h-22h-31c-6.66699 8.66699 -13.334 16.667 -20.001 24c-6 7.33301 -12.167 14 -18.5 20s-12.166 10.333 -17.499 13z" />
    <glyph glyph-name="underscore" unicode="_" horiz-adv-x="680" 
d="M85 -135c-10 0 -18.333 3.33301 -25 10s-10 15 -10 25s3.33301 18.333 10 25s15 10 25 10h510c10 0 18.333 -3.33301 25 -10s10 -15 10 -25s-3.33301 -18.333 -10 -25s-15 -10 -25 -10h-510z" />
    <glyph glyph-name="grave" unicode="`" horiz-adv-x="340" 
d="M151 600c-7.33301 0 -16.666 2.99902 -27.999 8.99902s-19 12.333 -23 19l-39 59c-9.33301 14.667 -10.333 28.834 -3 42.501s19.666 20.5 36.999 20.5h32c11.333 0 22.833 -4.16699 34.5 -12.5s19.167 -17.833 22.5 -28.5l22 -59c4 -13.333 2.5 -25 -4.5 -35
s-17.167 -15 -30.5 -15h-20z" />
    <glyph glyph-name="a" unicode="a" 
d="M85 381c-5.33301 1.33301 -7.33301 4.33203 -6 8.99902c15.333 42 40.833 75.667 76.5 101s75.834 38 120.501 38c30 0 57.167 -3.5 81.5 -10.5s45.166 -18.333 62.499 -34s30.833 -35.667 40.5 -60s14.5 -53.833 14.5 -88.5v-226c0 -9.33301 1 -15.666 3 -18.999
s8.33301 -5.33301 19 -6c6 0 11.333 -2.16699 16 -6.5s7 -9.16602 7 -14.499v-21c0 -12 -4 -22.167 -12 -30.5s-18 -12.5 -30 -12.5c-28 0.666992 -50 2.16699 -66 4.5s-27.833 7.33301 -35.5 15s-12.334 18.667 -14.001 33s-2.5 33.5 -2.5 57.5v8h-0.5
c-0.333008 0 -0.5 -0.333008 -0.5 -1c-10 -48 -27.833 -81 -53.5 -99s-57.167 -27 -94.5 -27c-61.333 0 -105.166 9.66699 -131.499 29s-39.5 44.666 -39.5 75.999c0 44.667 15.5 80.667 46.5 108s72.5 41 124.5 41c22 0 42.167 2.16699 60.5 6.5s34 11.833 47 22.5
s23.167 25 30.5 43s11 40.667 11 68c0 47.333 -7.66699 80.833 -23 100.5s-35.666 29.5 -60.999 29.5c-40.667 0 -77.334 -12 -110.001 -36s-56.334 -55.667 -71.001 -95c-1.33301 -4 -4.66602 -5 -9.99902 -3zM360 281.999c0 2.66699 -1.83496 4.5 -5.50195 5.5
s-6.16699 0.5 -7.5 -1.5c-12.667 -20 -29.667 -33.667 -51 -41s-46 -11 -74 -11c-20 0 -36.167 -12.167 -48.5 -36.5s-18.5 -56.5 -18.5 -96.5c0 -30 4.66699 -53.833 14 -71.5s25 -26.5 47 -26.5c20 0 38.333 2.66699 55 8s31.334 14.5 44.001 27.5
s22.834 30.167 30.501 51.5s12.5 48.333 14.5 81v111z" />
    <glyph glyph-name="b" unicode="b" horiz-adv-x="599" 
d="M185 58c0 -16 -5.66699 -29.8369 -17 -41.5039s-24.666 -17.5 -39.999 -17.5c-16 0 -29.667 5.5 -41 16.5s-17 24.5 -17 40.5v635c0 15.333 5.66699 28.666 17 39.999s25 17 41 17c15.333 0 28.666 -5.66699 39.999 -17s17 -24.666 17 -39.999v-280
c0 -2.66699 2.33301 -4.66699 7 -6s7.33398 -0.666016 8.00098 2.00098c15.333 42 36.833 72.667 64.5 92s60.5 29 98.5 29c28 0 53.5 -6.5 76.5 -19.5s42.5 -31.167 58.5 -54.5s28.5 -51.666 37.5 -84.999s13.5 -70 13.5 -110s-4.5 -76.667 -13.5 -110
s-21.5 -61.666 -37.5 -84.999s-35.5 -41.5 -58.5 -54.5s-48.5 -19.5 -76.5 -19.5c-38 0 -70.833 9.66699 -98.5 29s-49.167 50 -64.5 92c-0.666992 2.66699 -3.33398 3.33398 -8.00098 2.00098s-7 -3.33301 -7 -6v-49zM185 257.996
c0 -82.667 15.166 -143.165 45.499 -181.498s70.5 -57.5 120.5 -57.5c11.333 0 21.333 5.66699 30 17s16.334 27.5 23.001 48.5s11.667 46.167 15 75.5s5 62 5 98c0 38 -1.66699 72.667 -5 104s-7.83301 58.166 -13.5 80.499s-12.667 39.666 -21 51.999
s-17.5 18.5 -27.5 18.5c-51.333 0 -92.833 -20.5 -124.5 -61.5s-47.5 -105.5 -47.5 -193.5z" />
    <glyph glyph-name="c" unicode="c" horiz-adv-x="532" 
d="M484 135c1.33301 4 4.99805 4.66699 10.998 2c5.33301 -2.66699 7.33301 -6 6 -10c-16.667 -41.333 -40.167 -74.333 -70.5 -99s-63.166 -37 -98.499 -37c-42 0 -80.333 5.33301 -115 16s-64.334 27 -89.001 49s-43.667 49.833 -57 83.5s-20 73.834 -20 120.501
s6.66699 86.834 20 120.501s32.333 61.5 57 83.5s54.334 38.333 89.001 49s73 16 115 16c32.667 0 63 -13.833 91 -41.5s53.333 -64.5 76 -110.5c0.666992 -1.33301 1.16699 -3 1.5 -5s-0.166992 -3.33301 -1.5 -4l-3 -2l-5 -2
c-1.33301 -0.666992 -2.83301 -0.333984 -4.5 0.999023s-2.5 2.66602 -2.5 3.99902c-22.667 44 -46.667 79.5 -72 106.5s-52.333 40.5 -81 40.5c-46.667 0 -84.334 -20.5 -113.001 -61.5s-43 -105.833 -43 -194.5c0 -88 14.333 -152.5 43 -193.5s66.334 -61.5 113.001 -61.5
c30.667 0 59.834 11.833 87.501 35.5s49.5 55.167 65.5 94.5z" />
    <glyph glyph-name="d" unicode="d" horiz-adv-x="632" 
d="M175 260c0 -38 2 -72.667 6 -104s9.66699 -58.166 17 -80.499s16 -39.666 26 -51.999s21.333 -18.5 34 -18.5c28 0 53.667 6.16699 77 18.5s43.333 29.666 60 51.999s29.5 49.166 38.5 80.499s13.5 66 13.5 104s-4.5 72.667 -13.5 104s-21.833 58.166 -38.5 80.499
s-36.667 39.666 -60 51.999s-49 18.5 -77 18.5c-12.667 0 -24 -6.16699 -34 -18.5s-18.667 -29.666 -26 -51.999s-13 -49.166 -17 -80.499s-6 -66 -6 -104zM50 260c0 40 4.83301 76.6729 14.5 110.006s23.334 61.666 41.001 84.999s39 41.5 64 54.5s52.833 19.5 83.5 19.5
c41.333 0 77.166 -11.5 107.499 -34.5s53.833 -54.833 70.5 -95.5c0.666992 -2.66699 3.5 -3.83398 8.5 -3.50098s7.5 2.16602 7.5 5.49902v292c0 15.333 5.66699 28.666 17 39.999s25 17 41 17c15.333 0 28.666 -5.66699 39.999 -17s17 -24.666 17 -39.999v-636
c0 -15.333 -5.66699 -28.666 -17 -39.999s-24.666 -17 -39.999 -17c-16 0 -29.667 5.66699 -41 17s-17 24.666 -17 39.999v62c0 3.33301 -2.5 5.16602 -7.5 5.49902s-7.83301 -0.833984 -8.5 -3.50098c-16.667 -40.667 -40.167 -72.5 -70.5 -95.5
s-66.166 -34.5 -107.499 -34.5c-30.667 0 -58.5 6.5 -83.5 19.5s-46.333 31.167 -64 54.5s-31.334 51.666 -41.001 84.999s-14.5 70 -14.5 110z" />
    <glyph glyph-name="e" unicode="e" horiz-adv-x="538" 
d="M490 134c1.33301 4 4.66699 5.00098 10 3.00098c4.66699 -2.66699 6.33398 -6 5.00098 -10c-6 -20.667 -16 -39.334 -30 -56.001s-31 -31 -51 -43s-42.333 -21.167 -67 -27.5s-51 -9.5 -79 -9.5c-34 0 -65.167 5.33301 -93.5 16s-52.5 27 -72.5 49
s-35.5 49.833 -46.5 83.5s-16.5 73.834 -16.5 120.501s5.66699 86.834 17 120.501s27.333 61.5 48 83.5s45.667 38.333 75 49s61.666 16 96.999 16c37.333 0 69.833 -5.16699 97.5 -15.5s51 -25 70 -44s33.833 -42 44.5 -69s18 -57.167 22 -90.5
c2 -18.667 -2.5 -33.334 -13.5 -44.001s-25.833 -16 -44.5 -16h-226c-18 0 -32.833 -5.33301 -44.5 -16s-16.5 -25 -14.5 -43c4.66699 -64 16.167 -111 34.5 -141s40.833 -45 67.5 -45c52 0 97.167 11.667 135.5 35s63.5 54.666 75.5 93.999zM346.001 262.001
c18.667 0 33.502 6.16602 44.502 18.499s15.833 27.833 14.5 46.5c-5.33301 58.667 -17.333 104.834 -36 138.501s-46.334 50.5 -83.001 50.5c-29.333 0 -53.833 -15.333 -73.5 -46s-31.834 -79.667 -36.501 -147c-1.33301 -18 3.66699 -32.667 15 -44s26 -17 44 -17h111z
" />
    <glyph glyph-name="f" unicode="f" horiz-adv-x="410" 
d="M333 750c4.66699 0 6.99805 -2.33398 6.99805 -7.00098s-2.33301 -7 -7 -7h-83c-9.33301 0 -15.833 -10 -19.5 -30s-5.5 -53.667 -5.5 -101v-42c0 -12 4.16699 -22.167 12.5 -30.5s18.5 -12.5 30.5 -12.5h66c4 0 6 -2 6 -6c0 -4.66699 -2 -7 -6 -7h-51
c-16 0 -29.667 -5.66699 -41 -17s-17 -24.666 -17 -39.999v-392c0 -16 -5.66699 -29.667 -17 -41s-24.666 -17 -39.999 -17c-16 0 -29.667 5.66699 -41 17s-17 25 -17 41v409c0 11.333 -3.83301 20.833 -11.5 28.5s-17.167 11.5 -28.5 11.5h-33c-4.66699 0 -7 2.33301 -7 7
c0 4 2.33301 6 7 6h33c11.333 0 20.833 3.83301 28.5 11.5s11.5 17.167 11.5 28.5v45c0 52 10.333 89.167 31 111.5s55.334 33.5 104.001 33.5h88z" />
    <glyph glyph-name="g" unicode="g" horiz-adv-x="622" 
d="M77 -96c-1.33301 5.33301 1.66602 8 8.99902 8c1.33301 0 3.33301 -1.16699 6 -3.5s4 -4.16602 4 -5.49902c6 -18.667 28.167 -31.834 66.5 -39.501s87.833 -11.5 148.5 -11.5c46 0 78.5 13.5 97.5 40.5s28.5 62.833 28.5 107.5v122c0 2.66699 -2.5 4.33398 -7.5 5.00098
s-7.83301 -0.333008 -8.5 -3c-16 -39.333 -38.833 -70 -68.5 -92s-64.5 -33 -104.5 -33c-30 0 -57.167 4.83301 -81.5 14.5s-45.166 24.834 -62.499 45.501s-30.666 47.5 -39.999 80.5s-14 72.833 -14 119.5c0 48.667 4.66699 90 14 124s22.666 61.833 39.999 83.5
s38.166 37.334 62.499 47.001s51.5 14.5 81.5 14.5c40 0 74.833 -11.333 104.5 -34s52.5 -54.334 68.5 -95.001c0.666992 -2.66699 3.5 -3.66699 8.5 -3s7.5 2.66699 7.5 6v61c0 15.333 5.66699 28.666 17 39.999s25 17 41 17c15.333 0 28.666 -5.66699 39.999 -17
s17 -24.666 17 -39.999v-414c0 -32 -4.33301 -60.833 -13 -86.5s-22.667 -47.834 -42 -66.501s-44.166 -33 -74.499 -43s-67.166 -15 -110.499 -15c-67.333 0 -122.333 5.16699 -165 15.5s-66 27.166 -70 50.499zM174.999 260c0 -88.667 7.16699 -151.832 21.5 -189.499
s33.166 -56.5 56.499 -56.5c27.333 0 52.333 5.83301 75 17.5s42 28.334 58 50.001s28.5 47.667 37.5 78s13.5 63.833 13.5 100.5c0 38 -4.5 72.667 -13.5 104s-21.5 58.166 -37.5 80.499s-35.333 39.666 -58 51.999s-47.667 18.5 -75 18.5
c-23.333 0 -42.166 -19.5 -56.499 -58.5s-21.5 -104.5 -21.5 -196.5z" />
    <glyph glyph-name="h" unicode="h" horiz-adv-x="555" 
d="M485 58c0 -16 -5.66797 -29.666 -17.001 -40.999s-24.666 -17.333 -39.999 -18c-16 0 -29.667 5.66699 -41 17s-17 25 -17 41v257c0 64.667 -2.66699 113.167 -8 145.5s-12.333 48.5 -21 48.5c-23.333 0 -44.666 -4.5 -63.999 -13.5s-35.833 -21.833 -49.5 -38.5
s-24.167 -36.667 -31.5 -60s-11 -49 -11 -77v-262c0 -16 -5.66699 -29.667 -17 -41s-24.666 -17 -39.999 -17c-16 0 -29.667 5.66699 -41 17s-17 25 -17 41v635c0 15.333 5.66699 28.666 17 39.999s25 17 41 17c15.333 0 28.666 -5.66699 39.999 -17s17 -24.666 17 -39.999
v-266c0 -2.66699 2 -4.33398 6 -5.00098s6.66699 0.333008 8 3c13.333 31.333 32.666 56 57.999 74s55.333 27 90 27c42 0 75.5 -17.5 100.5 -52.5s37.5 -87.5 37.5 -157.5v-257z" />
    <glyph glyph-name="i" unicode="i" horiz-adv-x="255" 
d="M126 600c-16.667 0 -31 6 -43 18s-18 26.333 -18 43v3c0 16.667 6 31 18 43s26.333 18 43 18h3c16.667 0 31 -6 43 -18s18 -26.333 18 -43v-3c0 -16.667 -6 -31 -18 -43s-26.333 -18 -43 -18h-3zM185 58c0 -16 -5.66699 -29.667 -17 -41s-24.666 -17 -39.999 -17
c-16 0 -29.667 5.66699 -41 17s-17 25 -17 41v405c0 15.333 5.66699 28.666 17 39.999s25 17 41 17c15.333 0 28.666 -5.66699 39.999 -17s17 -24.666 17 -39.999v-405z" />
    <glyph glyph-name="j" unicode="j" horiz-adv-x="255" 
d="M126 600c-16.667 0 -31 6 -43 18s-18 26.333 -18 43v3c0 16.667 6 31 18 43s26.333 18 43 18h3c16.667 0 31 -6 43 -18s18 -26.333 18 -43v-3c0 -16.667 -6 -31 -18 -43s-26.333 -18 -43 -18h-3zM-15 -82c0 4.66699 2.33496 7.00098 7.00195 7.00098h28
c9.33301 0 17.166 3.66699 23.499 11s11.5 15.666 15.5 24.999s6.83301 18 8.5 26s2.5 12.333 2.5 13v2v2v459c0 15.333 5.66699 28.666 17 39.999s25 17 41 17c15.333 0 28.666 -5.66699 39.999 -17s17 -24.666 17 -39.999v-451v-12c-8 -16.667 -19 -31.667 -33 -45
c-13.333 -12 -30 -22.333 -50 -31s-45.667 -13 -77 -13h-33c-4.66699 0 -7 2.33301 -7 7z" />
    <glyph glyph-name="k" unicode="k" horiz-adv-x="520" 
d="M474 62c8.66699 -14.667 9.66406 -28.6699 2.99707 -42.0029s-18.334 -20 -35.001 -20h-35c-8 0 -17.667 3.33301 -29 10s-19.333 13.667 -24 21l-121 208c-3.33301 6 -8.16602 9.33301 -14.499 10s-11.5 -1.33301 -15.5 -6l-1 -1c-3.33301 -3.33301 -7 -10 -11 -20
s-6 -17.333 -6 -22v-143c0 -15.333 -5.66699 -28.666 -17 -39.999s-24.666 -17 -39.999 -17c-16 0 -29.667 5.66699 -41 17s-17 25 -17 41v635c0 15.333 5.66699 28.666 17 39.999s25 17 41 17c15.333 0 28.666 -5.66699 39.999 -17s17 -24.666 17 -39.999v-293
c0 -14.667 3.66699 -27.167 11 -37.5s16.333 -17.666 27 -21.999s22.167 -5.16602 34.5 -2.49902s23.5 9.33398 33.5 20.001l107 113c0.666992 0.666992 3.33398 3.5 8.00098 8.5l15 16l15 16c4.66699 5 7.33398 7.83301 8.00098 8.5
c1.33301 1.33301 2.83301 1.66602 4.5 0.999023s3.83398 -1 6.50098 -1c2 0 3.33301 -0.833008 4 -2.5s0.333984 -3.5 -0.999023 -5.5l-34 -36l-6 -6l-79 -84c-8.66699 -8.66699 -14.334 -19.667 -17.001 -33s-1 -25 5 -35l73.5 -128.5z" />
    <glyph glyph-name="l" unicode="l" horiz-adv-x="255" 
d="M185 57c0 -15.333 -5.66699 -28.667 -17 -40s-24.666 -17 -39.999 -17c-16 0 -29.667 5.66699 -41 17s-17 25 -17 41v635c0 15.333 5.66699 28.666 17 39.999s25 17 41 17c15.333 0 28.666 -5.66699 39.999 -17s17 -24.666 17 -39.999v-636z" />
    <glyph glyph-name="m" unicode="m" horiz-adv-x="839" 
d="M774 58c0 -16 -5.6709 -29.668 -17.0039 -41.001s-24.666 -17 -39.999 -17c-16 0 -29.667 5.66699 -41 17s-17 25 -17 41v257c0 64.667 -2.5 113.167 -7.5 145.5s-11.5 48.5 -19.5 48.5c-47.333 0 -84.666 -17.833 -111.999 -53.5s-41 -82.5 -41 -140.5v-257
c0 -16 -5.66699 -29.667 -17 -41s-24.666 -17 -39.999 -17c-16 0 -29.667 5.66699 -41 17s-17 25 -17 41v257c0 64.667 -2.5 113.167 -7.5 145.5s-11.5 48.5 -19.5 48.5c-22.667 0 -43.334 -4.5 -62.001 -13.5s-34.667 -21.833 -48 -38.5s-23.666 -36.667 -30.999 -60
s-11 -49 -11 -77v-262c0 -16 -5.66699 -29.667 -17 -41s-24.666 -17 -39.999 -17c-16 0 -29.667 5.66699 -41 17s-17 25 -17 41v405c0 15.333 5.66699 28.666 17 39.999s25 17 41 17c15.333 0 28.666 -5.66699 39.999 -17s17 -24.666 17 -39.999v-37
c0 -2.66699 2 -4.16699 6 -4.5s6.33301 0.5 7 2.5c13.333 31.333 32.5 56 57.5 74s54.5 27 88.5 27c29.333 0 54.5 -9 75.5 -27s36.5 -45.333 46.5 -82c1.33301 -2.66699 5 -4.5 11 -5.5s9.66699 0.166992 11 3.5c12.667 34.667 32 61.834 58 81.501s57 29.5 93 29.5
c40.667 0 73.334 -17.5 98.001 -52.5s37 -87.5 37 -157.5v-257z" />
    <glyph glyph-name="n" unicode="n" 
d="M485 58c0 -16 -5.66797 -29.666 -17.001 -40.999s-24.666 -17.333 -39.999 -18c-16 0 -29.667 5.66699 -41 17s-17 25 -17 41v257c0 64.667 -2.66699 113.167 -8 145.5s-12.333 48.5 -21 48.5c-23.333 0 -44.666 -4.5 -63.999 -13.5s-35.833 -21.833 -49.5 -38.5
s-24.167 -36.667 -31.5 -60s-11 -49 -11 -77v-262c0 -16 -5.66699 -29.667 -17 -41s-24.666 -17 -39.999 -17c-16 0 -29.667 5.66699 -41 17s-17 25 -17 41v405c0 15.333 5.66699 28.666 17 39.999s25 17 41 17c15.333 0 28.666 -5.66699 39.999 -17s17 -24.666 17 -39.999
v-36c0 -2.66699 2 -4.33398 6 -5.00098s6.66699 0.333008 8 3c13.333 31.333 32.666 56 57.999 74s55.333 27 90 27c42 0 75.5 -17.5 100.5 -52.5s37.5 -87.5 37.5 -157.5v-257z" />
    <glyph glyph-name="o" unicode="o" horiz-adv-x="590" 
d="M175 260c0 -38.667 2.33301 -73.667 7 -105s12 -58.166 22 -80.499s22.5 -39.666 37.5 -51.999s32.833 -18.5 53.5 -18.5c36 0 65 20.5 87 61.5s33 105.833 33 194.5c0 38.667 -2.33301 73.667 -7 105s-12 58.166 -22 80.499s-22.5 39.666 -37.5 51.999
s-32.833 18.5 -53.5 18.5c-36 0 -65 -20.5 -87 -61.5s-33 -105.833 -33 -194.5zM50 260c0 46.667 5.83301 86.834 17.5 120.501s28.334 61.5 50.001 83.5s47.5 38.333 77.5 49s63.333 16 100 16c42 0 78.5 -6.5 109.5 -19.5s56.5 -31.167 76.5 -54.5
s34.833 -51.666 44.5 -84.999s14.5 -70 14.5 -110c0 -46.667 -5.83301 -86.834 -17.5 -120.501s-28.334 -61.5 -50.001 -83.5s-47.5 -38.333 -77.5 -49s-63.333 -16 -100 -16c-42 0 -78.5 6.5 -109.5 19.5s-56.5 31.167 -76.5 54.5s-34.833 51.666 -44.5 84.999
s-14.5 70 -14.5 110z" />
    <glyph glyph-name="p" unicode="p" horiz-adv-x="599" 
d="M185 -97c0 -16 -5.66699 -29.8369 -17 -41.5039s-24.666 -17.5 -39.999 -17.5c-16 0 -29.667 5.5 -41 16.5s-17 24.5 -17 40.5v560c0 15.333 5.66699 28.666 17 39.999s25 17 41 17c15.333 0 28.666 -5.66699 39.999 -17s17 -24.666 17 -39.999v-50
c0 -2.66699 2.33301 -4.66699 7 -6s7.33398 -0.666016 8.00098 2.00098c15.333 42 36.833 72.667 64.5 92s60.5 29 98.5 29c28 0 53.5 -6.5 76.5 -19.5s42.5 -31.167 58.5 -54.5s28.5 -51.666 37.5 -84.999s13.5 -70 13.5 -110s-4.5 -76.667 -13.5 -110
s-21.5 -61.666 -37.5 -84.999s-35.5 -41.5 -58.5 -54.5s-48.5 -19.5 -76.5 -19.5c-38 0 -70.833 9.66699 -98.5 29s-49.167 50 -64.5 92c-0.666992 2.66699 -3.33398 3.33398 -8.00098 2.00098s-7 -3.33301 -7 -6v-204zM185 257.996c0 -88 15.833 -152.496 47.5 -193.496
s73.167 -61.5 124.5 -61.5c10 0 19.167 6.16699 27.5 18.5s15.333 29.666 21 51.999s10.167 49.166 13.5 80.499s5 66 5 104s-1.66699 72.667 -5 104s-7.83301 58.166 -13.5 80.499s-12.667 39.666 -21 51.999s-17.5 18.5 -27.5 18.5c-51.333 0 -92.833 -20.5 -124.5 -61.5
s-47.5 -105.5 -47.5 -193.5z" />
    <glyph glyph-name="q" unicode="q" horiz-adv-x="632" 
d="M175 260c0 -38 2 -72.667 6 -104s9.66699 -58.166 17 -80.499s16 -39.666 26 -51.999s21.333 -18.5 34 -18.5c28 0 53.667 6.16699 77 18.5s43.333 29.666 60 51.999s29.5 49.166 38.5 80.499s13.5 66 13.5 104s-4.5 72.667 -13.5 104s-21.833 58.166 -38.5 80.499
s-36.667 39.666 -60 51.999s-49 18.5 -77 18.5c-12.667 0 -24 -6.16699 -34 -18.5s-18.667 -29.666 -26 -51.999s-13 -49.166 -17 -80.499s-6 -66 -6 -104zM50 260c0 40 4.83301 76.6729 14.5 110.006s23.334 61.666 41.001 84.999s39 41.5 64 54.5s52.833 19.5 83.5 19.5
c41.333 0 77.166 -11.5 107.499 -34.5s53.833 -54.833 70.5 -95.5c0.666992 -2.66699 3.5 -3.83398 8.5 -3.50098s7.5 2.16602 7.5 5.49902v62c0 15.333 5.66699 28.666 17 39.999s25 17 41 17c15.333 0 28.666 -5.66699 39.999 -17s17 -24.666 17 -39.999v-561
c0 -15.333 -5.66699 -28.666 -17 -39.999s-24.666 -17 -39.999 -17c-16 0 -29.667 5.66699 -41 17s-17 24.666 -17 39.999v217c0 3.33301 -2.5 5.16602 -7.5 5.49902s-7.83301 -0.833984 -8.5 -3.50098c-16.667 -40.667 -40.167 -72.5 -70.5 -95.5
s-66.166 -34.5 -107.499 -34.5c-30.667 0 -58.5 6.5 -83.5 19.5s-46.333 31.167 -64 54.5s-31.334 51.666 -41.001 84.999s-14.5 70 -14.5 110z" />
    <glyph glyph-name="r" unicode="r" horiz-adv-x="370" 
d="M350 507c0 -4 -2.00098 -6 -6.00098 -6h-6c-27.333 0 -50.666 -6.5 -69.999 -19.5s-35.166 -31.333 -47.499 -55s-21.333 -52.167 -27 -85.5s-8.5 -70.333 -8.5 -111v-172c0 -16 -5.66699 -29.667 -17 -41s-24.666 -17 -39.999 -17c-16 0 -29.667 5.66699 -41 17
s-17 25 -17 41v405c0 15.333 5.66699 28.666 17 39.999s25 17 41 17c15.333 0 28.666 -5.66699 39.999 -17s17 -24.666 17 -39.999v-74c0 -2 1.66699 -3.33301 5 -4s5.33301 0 6 2c11.333 42 28.666 74.667 51.999 98s54 35 92 35h5c3.33301 0 5 -1.66699 5 -5v-8z" />
    <glyph glyph-name="s" unicode="s" horiz-adv-x="524" 
d="M53 126c-1.33301 2 -2.33008 4.00098 -2.99707 6.00098c-2 3.33301 -3 5.33301 -3 6l5 3l3 1l3 1l1 1c1.33301 0 2.66602 -0.666992 3.99902 -2s2 -2.33301 2 -3c16.667 -39.333 44.334 -70.833 83.001 -94.5s82 -35.5 130 -35.5c30 0 54 11.167 72 33.5
s27 52.166 27 89.499c0 18.667 -10.167 34.834 -30.5 48.501s-50.833 23.167 -91.5 28.5c-66 8 -115.5 27.167 -148.5 57.5s-49.5 67.5 -49.5 111.5c0 22 4.83301 42 14.5 60s23.167 33.5 40.5 46.5s38.333 23 63 30s52 10.5 82 10.5c39.333 0 76.666 -12.167 111.999 -36.5
s63.333 -57.166 84 -98.499l3 -5c2 -4 1 -7 -3 -9h-1c-5.33301 -2.66699 -9 -2 -11 2c-18.667 40.667 -44.667 73.167 -78 97.5s-68 36.5 -104 36.5c-28 0 -50.167 -11.333 -66.5 -34s-24.5 -53 -24.5 -91c0 -18.667 9.66699 -34.834 29 -48.501s48.333 -22.834 87 -27.501
c70 -8.66699 122.5 -28 157.5 -58s52.5 -66.667 52.5 -110c0 -22 -5.16699 -42 -15.5 -60s-24.833 -33.5 -43.5 -46.5s-41.167 -23 -67.5 -30s-55.5 -10.5 -87.5 -10.5c-50.667 0 -96.334 11.833 -137.001 35.5s-70.334 55.167 -89.001 94.5h-1z" />
    <glyph glyph-name="t" unicode="t" horiz-adv-x="345" 
d="M309 520c4 0 5.99707 -1.99707 5.99707 -5.99707c0 -4.66699 -2 -7 -6 -7h-49c-15.333 0 -28.333 -5.33301 -39 -16s-16 -23.667 -16 -39v-307c0 -49.333 0.166992 -83.5 0.5 -102.5s1.83301 -28.5 4.5 -28.5h98c4.66699 0 7 -2.33301 7 -7s-2.33301 -7 -7 -7h-105
c-26.667 0 -47.667 2.5 -63 7.5s-26.666 13.167 -33.999 24.5s-11.833 26.166 -13.5 44.499s-2.5 41.166 -2.5 68.499v322c0 11.333 -3.83301 20.833 -11.5 28.5s-17.167 11.5 -28.5 11.5h-33c-4.66699 0 -7 2.33301 -7 7c0 4 2.33301 6 7 6h33
c11.333 0 20.833 3.83301 28.5 11.5s11.5 17.167 11.5 28.5v66c0 6 2.5 14.5 7.5 25.5s9.83301 18.167 14.5 21.5l36 30c6 5.33301 12.333 8.33301 19 9s12.834 -0.333008 18.501 -3s10.334 -6.83398 14.001 -12.501s5.5 -12.5 5.5 -20.5v-101
c0 -15.333 5.33301 -28.333 16 -39s23.667 -16 39 -16h49z" />
    <glyph glyph-name="u" unicode="u" 
d="M480 58c0 -16 -5.66699 -29.667 -17 -41s-24.666 -17 -39.999 -17h-7c-14 0 -26 5 -36 15s-15 22 -15 36v16c0 2 -1.66699 3.33301 -5 4s-5.66602 0 -6.99902 -2c-11.333 -24.667 -27.833 -43.834 -49.5 -57.501s-47.167 -20.5 -76.5 -20.5
c-31.333 0 -57.5 4.5 -78.5 13.5s-37.667 22.167 -50 39.5s-21 39 -26 65s-7.5 56.333 -7.5 91v263c0 15.333 5.66699 28.666 17 39.999s25 17 41 17c15.333 0 28.666 -5.66699 39.999 -17s17 -24.666 17 -39.999v-263c0 -64 3.5 -112.167 10.5 -144.5
s20.833 -48.5 41.5 -48.5c40 0 72.167 12.833 96.5 38.5s36.5 59.834 36.5 102.501v315c0 15.333 5.66699 28.666 17 39.999s25 17 41 17c15.333 0 28.666 -5.66699 39.999 -17s17 -24.666 17 -39.999v-405z" />
    <glyph glyph-name="v" unicode="v" horiz-adv-x="482" 
d="M37 471c-0.666992 0 -1.49316 1.66699 -2.49316 5l-4 13l-5 15.5c-1.66699 5 -2.83398 9.16699 -3.50098 12.5c-0.666992 2.66699 0.333008 4 3 4h108h18c2 -6.66699 3.66699 -12.667 5 -18s2.66602 -10.333 3.99902 -15s2.33301 -8 3 -10l69 -256
c4 -15.333 11.5 -26.833 22.5 -34.5s22.667 -11.667 35 -12s24.166 3.16699 35.499 10.5s19.666 18.333 24.999 33l79 251c-0.666992 0 0.166016 3.5 2.49902 10.5l6.5 19.5l3 10c2 6.66699 6.33301 10 13 10h10l-7 -25c-2.66699 -6.66699 -4.83398 -12.5 -6.50098 -17.5
s-2.83398 -7.5 -3.50098 -7.5l-140 -428c-4 -10.667 -11.833 -20.334 -23.5 -29.001s-23.5 -13 -35.5 -13h-14c-12 0 -23.833 4.33301 -35.5 13s-19.5 18.334 -23.5 29.001l-139 428z" />
    <glyph glyph-name="w" unicode="w" horiz-adv-x="737" 
d="M32 471c-0.666992 0 -1.49121 1.66406 -2.49121 4.99707s-2 7.66602 -3 12.999s-2.16699 10.5 -3.5 15.5s-2.33301 9.16699 -3 12.5c-0.666992 2.66699 0.333008 4 3 4h105c8.66699 0 14 -4 16 -12l2 -13l4 -22l42 -225c2 -12.667 7.5 -22.167 16.5 -28.5
s18.833 -9.66602 29.5 -9.99902s20.667 2.5 30 8.5s15.333 15 18 27l55 227c2.66699 12.667 10 23.667 22 33s24.333 14 37 14h3c13.333 0 25.833 -4.66699 37.5 -14s19.167 -20.666 22.5 -33.999l51 -226c2.66699 -13.333 9 -23.333 19 -30s20.667 -10 32 -10
s22 3.33301 32 10s16.667 16.667 20 30l52 224c-0.666992 0 0 3.33301 2 10s3.66699 13.334 5 20.001l3 11c1.33301 6 5.33301 9 12 9h9c-2 -9.33301 -3.66699 -17.666 -5 -24.999c-1.33301 -6.66699 -2.66602 -12.5 -3.99902 -17.5s-2.33301 -7.5 -3 -7.5l-104 -424
c-2.66699 -12.667 -9.83398 -23.5 -21.501 -32.5s-23.834 -13.5 -36.501 -13.5s-24.834 4.5 -36.501 13.5s-18.834 19.833 -21.501 32.5l-48 199c-4 15.333 -11.833 26.833 -23.5 34.5s-23.834 11.5 -36.501 11.5s-24.834 -3.83301 -36.501 -11.5
s-19.167 -19.167 -22.5 -34.5l-49 -199c-2.66699 -12.667 -9.83398 -23.5 -21.501 -32.5s-23.834 -13.5 -36.501 -13.5s-24.834 4.5 -36.501 13.5s-18.834 19.833 -21.501 32.5l-105 424z" />
    <glyph glyph-name="x" unicode="x" horiz-adv-x="525" 
d="M39 0c-2 0 -2.33496 1 -1.00195 3l8 10.5l10 13.5l9.5 13.5l6.5 9.5l57.5 79.5l57.5 78.5c6 8.66699 9.33301 20 10 34s-2 25.333 -8 34l-138 199c-3.33301 4 -7.83301 10.167 -13.5 18.5s-10.5 15.166 -14.5 20.499c-2.66699 4 -2 6 2 6h131c2 0 3.66699 -0.666992 5 -2
l1 -3l28 -40l4 -5l45 -64c11.333 -17.333 26.166 -26 44.499 -26s33.5 8.33301 45.5 25l77 106c1.33301 2 3.83301 4 7.5 6s6.83398 3 9.50098 3h7c2 0 2.33301 -1 1 -3l-8 -10.5l-10 -13.5l-9.5 -13.5l-6.5 -9.5l-43 -58.5l-43 -59.5
c-4.66699 -6 -7.16699 -14.167 -7.5 -24.5s1.83398 -18.5 6.50098 -24.5l178 -258c3.33301 -4 7.83301 -10.167 13.5 -18.5s10.5 -15.166 14.5 -20.499c2.66699 -4 2 -6 -2 -6h-131c-2 0 -3.33301 1 -4 3l-2 2l-28 40l-4 5l-74 107c-12.667 18.667 -29.167 28 -49.5 28
s-37.166 -9 -50.499 -27l-108 -149c-1.33301 -2 -3.83301 -4 -7.5 -6s-6.5 -3 -8.5 -3h-8z" />
    <glyph glyph-name="y" unicode="y" horiz-adv-x="462" 
d="M243 -74c-8.66699 -24 -17.3291 -44.165 -25.9961 -60.498s-18.834 -29.333 -30.501 -39s-24.834 -16.5 -39.501 -20.5s-32.334 -6 -53.001 -6h-42c-5.33301 0 -8 2.33301 -8 7c0 5.33301 2.66699 8 8 8h42c18 0 33.667 1.83301 47 5.5s25.166 10 35.499 19
s19.666 21 27.999 36s16.5 33.833 24.5 56.5l3 7v8c0 3.33301 -0.333008 5.66602 -1 6.99902l-198 505c-6 16 -4.83301 30.167 3.5 42.5s20.833 18.5 37.5 18.5h52c3.33301 0 6.83301 -1.33301 10.5 -4s6.16699 -5.33398 7.5 -8.00098l5 -13l9 -24l75 -196
c5.33301 -14 13.333 -24.333 24 -31s22 -10 34 -10s23.333 3.66699 34 11s18.334 18 23.001 32l68 198l13 36c2 6 6.33301 9 13 9s9 -3 7 -9l-146 -418l-59 -169z" />
    <glyph glyph-name="z" unicode="z" horiz-adv-x="460" 
d="M390 163c0 2 1.33301 3 4 3h43c2 0 3 -1 3 -3c0 -2.66699 -1 -4 -3 -4h-43c-2.66699 0 -4 1.33301 -4 4zM52 507c-4.66699 0 -6.99902 2.33301 -6.99902 7c0 4 2.33301 6 7 6h367c3.33301 0 5 -1.66699 5 -5s-2.33301 -5 -7 -5c-88.667 -2 -179.334 -3 -272.001 -3h-93z
M30.001 6c0 0.666992 0.330078 2.33105 0.99707 4.99805s1.33398 4.33398 2.00098 5.00098l237 455c4 7.33301 11.333 14.5 22 21.5s20.334 10.833 29.001 11.5l34 2c16 0.666992 27.833 -5.16602 35.5 -17.499s7.83398 -25.833 0.500977 -40.5l-214 -400
c-3.33301 -5.33301 -9.83301 -11.5 -19.5 -18.5s-17.5 -11.167 -23.5 -12.5c-1.33301 0 -1.5 -0.666992 -0.5 -2s2.16699 -2 3.5 -2c48.667 0.666992 97.667 1 147 1h148c5.33301 0 8 -2.33301 8 -7s-2.33301 -7 -7 -7h-397c-4 0 -6 2 -6 6z" />
    <glyph glyph-name="braceleft" unicode="{" horiz-adv-x="342" 
d="M280 750c8.66699 0 16.167 -3.16992 22.5 -9.50293s9.5 -13.833 9.5 -22.5s-3.16699 -16.167 -9.5 -22.5s-13.833 -9.5 -22.5 -9.5h-38c-12.667 0 -22.834 -5.33301 -30.501 -16s-11.5 -24.667 -11.5 -42v-211c0 -22 -3.16699 -41 -9.5 -57s-15.166 -28 -26.499 -36
c-2 -0.666992 -3 -2.66699 -3 -6s1 -5.33301 3 -6c11.333 -8 20.166 -20 26.499 -36s9.5 -35 9.5 -57v-211c0 -17.333 3.83301 -31.333 11.5 -42s17.834 -16 30.501 -16h38c8.66699 0 16.167 -3.16699 22.5 -9.5s9.5 -14.166 9.5 -23.499
c0 -8.66699 -3.16699 -16.167 -9.5 -22.5s-13.833 -9.5 -22.5 -9.5h-38c-35.333 0 -63.666 11.167 -84.999 33.5s-32 52.166 -32 89.499v226c0 16.667 -4.33301 29.334 -13 38.001s-20.667 14 -36 16c-5.33301 1.33301 -10.166 4.33301 -14.499 9s-6.5 9.33398 -6.5 14.001
v13c0 4.66699 2.16699 9.33398 6.5 14.001s9.16602 7.66699 14.499 9c15.333 2 27.333 7.33301 36 16s13 21.334 13 38.001v226c0 37.333 10.667 67.166 32 89.499s49.666 33.5 84.999 33.5h38z" />
    <glyph glyph-name="bar" unicode="|" horiz-adv-x="165" 
d="M45 763c0 10 3.66699 18.667 11 26s16.333 11 27 11c10 0 18.667 -3.66699 26 -11s11 -16 11 -26v-976c0 -10 -3.66699 -18.667 -11 -26s-16 -11 -26 -11c-10.667 0 -19.667 3.66699 -27 11s-11 16 -11 26v976z" />
    <glyph glyph-name="braceright" unicode="}" horiz-adv-x="342" 
d="M30 718c0 8.66699 3.16602 16.1709 9.49902 22.5039s13.833 9.5 22.5 9.5l38 -1c35.333 0 63.666 -11.167 84.999 -33.5s32 -52.166 32 -89.499v-226c0 -16.667 4.33301 -29.334 13 -38.001s20.667 -14 36 -16c5.33301 -1.33301 10.166 -4.33301 14.499 -9
s6.5 -9.33398 6.5 -14.001v-13c0 -4.66699 -2.16699 -9.33398 -6.5 -14.001s-9.16602 -7.66699 -14.499 -9c-15.333 -2 -27.333 -7.33301 -36 -16s-13 -21.334 -13 -38.001v-226c0 -37.333 -10.667 -67.166 -32 -89.499s-49.666 -33.5 -84.999 -33.5h-37
c-9.33301 0 -17.166 3.16699 -23.499 9.5s-9.5 13.833 -9.5 22.5c0 9.33301 3.16699 17.166 9.5 23.499s14.166 9.5 23.499 9.5h37c12.667 0 22.834 5.33301 30.501 16s11.5 24.667 11.5 42v211c0 22 3.16699 41 9.5 57s15.166 28 26.499 36c2 0.666992 3 2.66699 3 6
s-1 5.33301 -3 6c-11.333 8 -20.166 20 -26.499 36s-9.5 35 -9.5 57v211c0 17.333 -3.83301 31.333 -11.5 42s-17.834 16 -30.501 16h-37c-9.33301 0 -17.166 3.16699 -23.499 9.5s-9.5 14.166 -9.5 23.499z" />
    <glyph glyph-name="asciitilde" unicode="~" horiz-adv-x="340" 
d="M91 281c-0.666992 -5.33301 -3.16504 -10.1602 -7.49805 -14.4932s-8.83301 -6.5 -13.5 -6.5l-22 1c-13.333 0 -23.666 3.5 -30.999 10.5s-10 17.167 -8 30.5c4 30.667 12.333 56.167 25 76.5s29 33.166 49 38.499c14 4 21.667 -2.33301 23 -19l1 -12v0
c-0.666992 9.33301 -1.33398 17.166 -2.00098 23.499s-1.33398 9.5 -2.00098 9.5c12.667 0 26.334 -3.83301 41.001 -11.5s28 -16.334 40 -26.001s22.333 -18.5 31 -26.5s13.334 -12.667 14.001 -14c2.66699 -2.66699 3.5 -3.5 2.5 -2.5s0.166992 2.5 3.5 4.5
c7.33301 5.33301 12 20.666 14 45.999c0.666992 5.33301 3.16699 10.166 7.5 14.499s9.16602 6.5 14.499 6.5h22c13.333 0 23.666 -3.5 30.999 -10.5s10 -17.167 8 -30.5c-3.33301 -28.667 -10.833 -52.667 -22.5 -72s-26.167 -32.666 -43.5 -39.999
c-10.667 -4.66699 -18.334 -4.83398 -23.001 -0.500977s-7.66699 12.166 -9 23.499l-1 16l-4 45c1.33301 -16.667 2.33301 -31.667 3 -45c1.33301 -12 2.33301 -22.5 3 -31.5s1.33398 -13.5 2.00098 -13.5c-13.333 0 -25.833 4 -37.5 12s-22.667 17 -33 27l-29 27
c-9 8 -17.833 12 -26.5 12c-5.33301 0 -9.83301 -4.33301 -13.5 -13s-5.83398 -20.334 -6.50098 -35.001z" />
    <glyph glyph-name="nonbreakingspace" unicode="&#xa0;" horiz-adv-x="220" 
 />
    <glyph glyph-name="exclamdown" unicode="&#xa1;" horiz-adv-x="225" 
d="M51 689c0 16.667 6 31 18 43s26.333 18 43 18h3c16.667 0 31 -6 43 -18s18 -26.333 18 -43v-3c0 -16.667 -6 -31 -18 -43s-26.333 -18 -43 -18h-3c-16.667 0 -31 6 -43 18s-18 26.333 -18 43v3zM106 0c-16.667 0 -31 6 -43 18s-18 26.333 -18 43v242
c0 0.666992 0.166992 3 0.5 7l0.5 6l45 207c1.33301 4.66699 4 8.66699 8 12s8.66699 5 14 5c4.66699 0 9 -1.66699 13 -5s6.66699 -7.33301 8 -12l45 -207l0.5 -6c0.333008 -4 0.5 -6.33301 0.5 -7v-242c0 -16.667 -6 -31 -18 -43s-26.333 -18 -43 -18h-13z" />
    <glyph glyph-name="cent" unicode="&#xa2;" horiz-adv-x="532" 
d="M294 562c0 8.66699 3.33203 16.332 9.99902 22.999s14.334 10 23.001 10l6 1c10 0 18.5 -3.5 25.5 -10.5s10.5 -15.5 10.5 -25.5v-10c0 -5.33301 2.66699 -12.333 8 -21s10 -14.334 14 -17.001c20.667 -12.667 39.834 -30.5 57.501 -53.5s34.5 -50.167 50.5 -81.5
c0.666992 -1.33301 1 -2.83301 1 -4.5s-0.666992 -2.83398 -2 -3.50098l-3 -2l-5 -2c-2.66699 -1.33301 -5 -0.333008 -7 3c-14.667 29.333 -30 54.833 -46 76.5s-32.667 38.834 -50 51.501c-5.33301 4 -9.83301 4.5 -13.5 1.5s-5.5 -7.83301 -5.5 -14.5v-446
c0 -7.33301 2 -12.833 6 -16.5s9.33301 -3.5 16 0.5c18.667 10 36 24.5 52 43.5s29 41.167 39 66.5c1.33301 2.66699 3.16602 4.66699 5.49902 6s4.5 1.33301 6.5 0s3.5 -3.5 4.5 -6.5s0.833008 -5.5 -0.5 -7.5c-10.667 -26.667 -24.5 -49.834 -41.5 -69.501
s-36.167 -34.834 -57.5 -45.501c-5.33301 -3.33301 -11.5 -9.66602 -18.5 -18.999s-10.5 -17 -10.5 -23v-6c0 -9.33301 -3.5 -17.5 -10.5 -24.5s-15.167 -10.5 -24.5 -10.5h-6c-9.33301 0 -17.333 3.33301 -24 10s-10 14.334 -10 23.001s-3.33301 16.834 -10 24.501
s-14 12.167 -22 13.5c-64.667 10.667 -116.167 37.5 -154.5 80.5s-57.5 104.167 -57.5 183.5s19.167 140.5 57.5 183.5s89.833 69.833 154.5 80.5c8 1.33301 15.333 5.83301 22 13.5s10 15.834 10 24.501zM257.999 26.998c10.667 -7.33301 19.334 -8.66992 26.001 -4.00293
s10 13.334 10 26.001v427c0 12.667 -3.33301 21.334 -10 26.001s-15.334 3.33398 -26.001 -3.99902c-26 -16.667 -46.333 -44.334 -61 -83.001s-22 -89.667 -22 -153s7.33301 -114.166 22 -152.499s35 -65.833 61 -82.5z" />
    <glyph glyph-name="guillemotleft" unicode="&#xab;" horiz-adv-x="565" 
d="M377 443c4 6 11.5 12 22.5 18s20.5 9 28.5 9h17c11.333 0 19.5 -4.5 24.5 -13.5s4.16699 -18.5 -2.5 -28.5l-89 -134c-6 -8.66699 -9 -20 -9 -34s3 -25.333 9 -34l89 -134c6.66699 -10 7.5 -19.5 2.5 -28.5s-13.167 -13.5 -24.5 -13.5h-17c-8 0 -17.5 3 -28.5 9
s-18.5 12 -22.5 18l-99 149c-6 8.66699 -9 20 -9 34s3 25.333 9 34zM192 443c4 6 11.5 12 22.5 18s20.5 9 28.5 9h17c11.333 0 19.5 -4.5 24.5 -13.5s4.16699 -18.5 -2.5 -28.5l-89 -134c-6 -8.66699 -9 -20 -9 -34s3 -25.333 9 -34l89 -134
c6.66699 -10 7.5 -19.5 2.5 -28.5s-13.167 -13.5 -24.5 -13.5h-17c-8 0 -17.5 3 -28.5 9s-18.5 12 -22.5 18l-99 149c-6 8.66699 -9 20 -9 34s3 25.333 9 34z" />
    <glyph glyph-name="logicalnot" unicode="&#xac;" horiz-adv-x="417" 
d="M367 115c0 -6 -2.66699 -9 -8 -9c-6 0 -9 3 -9 9v80c0 16.667 -6 31 -18 43s-26.333 18 -43 18h-232c-4.66699 0 -7 2.33301 -7 7s2.33301 7 7 7h249c16.667 0 31 -6 43 -18s18 -26.333 18 -43v-94z" />
    <glyph glyph-name="acute" unicode="&#xb4;" horiz-adv-x="340" 
d="M171 600c-14 0 -24.6689 5.00098 -32.002 15.001s-8.66602 21.667 -3.99902 35l21 59c3.33301 10.667 11 20.167 23 28.5s23.667 12.5 35 12.5h31c17.333 0 29.833 -6.83301 37.5 -20.5s6.5 -27.834 -3.5 -42.501l-38 -59c-4 -6.66699 -11.667 -13 -23 -19
s-20.666 -9 -27.999 -9h-19z" />
    <glyph glyph-name="periodcentered" unicode="&#xb7;" horiz-adv-x="225" 
d="M111 198c-16.667 0 -31 6 -43 18s-18 26.333 -18 43v3c0 16.667 6 31 18 43s26.333 18 43 18h3c16.667 0 31 -6 43 -18s18 -26.333 18 -43v-3c0 -16.667 -6 -31 -18 -43s-26.333 -18 -43 -18h-3z" />
    <glyph glyph-name="guillemotright" unicode="&#xbb;" horiz-adv-x="547" 
d="M265 428c-6.66699 10 -7.5 19.5 -2.5 28.5s13.167 13.5 24.5 13.5h17c8 0 17.5 -3 28.5 -9s18.5 -12 22.5 -18l99 -149c6 -8.66699 9 -20 9 -34s-3 -25.333 -9 -34l-99 -149c-4 -6 -11.5 -12 -22.5 -18s-20.5 -9 -28.5 -9h-17c-11.333 0 -19.5 4.5 -24.5 13.5
s-4.16699 18.5 2.5 28.5l89 134c6 8.66699 9 20 9 34s-3 25.333 -9 34zM80 428c-6.66699 10 -7.5 19.5 -2.5 28.5s13.167 13.5 24.5 13.5h17c8 0 17.5 -3 28.5 -9s18.5 -12 22.5 -18l99 -149c6 -8.66699 9 -20 9 -34s-3 -25.333 -9 -34l-99 -149c-4 -6 -11.5 -12 -22.5 -18
s-20.5 -9 -28.5 -9h-17c-11.333 0 -19.5 4.5 -24.5 13.5s-4.16699 18.5 2.5 28.5l89 134c6 8.66699 9 20 9 34s-3 25.333 -9 34z" />
    <glyph glyph-name="questiondown" unicode="&#xbf;" 
d="M250 750c16.667 0 31 -6 43 -18s18 -26.333 18 -43v-3c0 -16.667 -6 -31 -18 -43s-26.333 -18 -43 -18h-3c-16.667 0 -31 6 -43 18s-18 26.333 -18 43v3c0 16.667 6 31 18 43s26.333 18 43 18h3zM445 200c19.333 -3.33301 33.1699 -9.66406 41.5029 -18.9971
s9.16602 -23.333 2.49902 -42c-15.333 -45.333 -45 -81.333 -89 -108s-97 -40 -159 -40c-36 0 -68.833 4.83301 -98.5 14.5s-55 23.5 -76 41.5s-37.333 39.5 -49 64.5s-17.5 52.833 -17.5 83.5c0 35.333 9.5 67.166 28.5 95.499s50.833 58.166 95.5 89.499
c12 8 22 15.833 30 23.5s14.667 15.667 20 24s9.5 17.666 12.5 27.999s4.83301 22.5 5.5 36.5c1.33301 11.333 6.83301 22.166 16.5 32.499s20.5 15.5 32.5 15.5h8c16 0 29.167 -5.33301 39.5 -16s15.166 -24 14.499 -40c-1.33301 -24 -3.83301 -44.5 -7.5 -61.5
s-9.33398 -32.167 -17.001 -45.5s-17.5 -25.666 -29.5 -36.999s-26.667 -23 -44 -35c-30.667 -21.333 -52.5 -40.5 -65.5 -57.5s-19.5 -34.5 -19.5 -52.5c0 -34 11 -61.5 33 -82.5s51.333 -31.5 88 -31.5c34 0 63.333 8.16699 88 24.5s42 38.5 52 66.5
c2.66699 8 9 15.5 19 22.5s19 9.83301 27 8.5z" />
    <glyph glyph-name="Agrave" unicode="&#xc0;" horiz-adv-x="754" 
d="M375 830c-7.33301 0 -16.666 2.99902 -27.999 8.99902s-19 12.333 -23 19l-39 59c-9.33301 14.667 -10.333 28.834 -3 42.501s19.666 20.5 36.999 20.5h32c11.333 0 22.833 -4.16699 34.5 -12.5s19.167 -17.833 22.5 -28.5l22 -59c4 -13.333 2.5 -25 -4.5 -35
s-17.167 -15 -30.5 -15h-20zM513 251.999c1.33301 -4.66699 -0.335938 -7.00098 -5.00293 -7.00098l-313 1c-11.333 0 -22.833 -4 -34.5 -12s-19.5 -17.333 -23.5 -28l-58 -155l-8 -20.5l-8 -20.5c-2 -6 -6 -9 -12 -9h-7h-5c0.666992 2 1.33398 4.33301 2.00098 7
c0.666992 2 1.66699 4.5 3 7.5s2.66602 6.5 3.99902 10.5c3.33301 8 9.33301 23.833 18 47.5l32 85.5l41.5 110l45.5 121l44.5 118l38.5 101.5l27.5 71.5c7 18 10.5 27.333 10.5 28l8 21c2 5.33301 6.16699 10.166 12.5 14.499s12.166 6.5 17.499 6.5h75
c10.667 0 21.834 -4 33.501 -12s19.5 -17.333 23.5 -28l251 -663l9 -22l6.5 -17.5c1.66699 -4.33301 2.5 -6.83301 2.5 -7.5c0.666992 -1.33301 0.333984 -1.66602 -0.999023 -0.999023s-2.66602 1 -3.99902 1h-112c-5.33301 0 -10.666 1.83301 -15.999 5.5
s-9 7.83398 -11 12.501l-7 19l-5 12l-37.5 101.5l-38.5 101.5v-0.5v-0.5zM187.998 343.998c-8 -21.333 -6.16602 -40.5 5.50098 -57.5s29.167 -25.5 52.5 -25.5h175c23.333 0 40.833 8.5 52.5 25.5s13.5 36.167 5.5 57.5l-88 234c-4.66699 14 -12.334 24.5 -23.001 31.5
s-22 10.5 -34 10.5s-23.333 -3.5 -34 -10.5s-18.667 -17.167 -24 -30.5z" />
    <glyph glyph-name="Aacute" unicode="&#xc1;" horiz-adv-x="754" 
d="M395 830c-14 0 -24.6689 5.00098 -32.002 15.001s-8.66602 21.667 -3.99902 35l21 59c3.33301 10.667 11 20.167 23 28.5s23.667 12.5 35 12.5h31c17.333 0 29.833 -6.83301 37.5 -20.5s6.5 -27.834 -3.5 -42.501l-38 -59c-4 -6.66699 -11.667 -13 -23 -19
s-20.666 -9 -27.999 -9h-19zM512.998 252.001c1.33301 -4.66699 -0.335938 -7.00098 -5.00293 -7.00098l-313 1c-11.333 0 -22.833 -4 -34.5 -12s-19.5 -17.333 -23.5 -28l-58 -155l-8 -20.5l-8 -20.5c-2 -6 -6 -9 -12 -9h-7h-5c0.666992 2 1.33398 4.33301 2.00098 7
c0.666992 2 1.66699 4.5 3 7.5s2.66602 6.5 3.99902 10.5c3.33301 8 9.33301 23.833 18 47.5l32 85.5l41.5 110l45.5 121l44.5 118l38.5 101.5l27.5 71.5c7 18 10.5 27.333 10.5 28l8 21c2 5.33301 6.16699 10.166 12.5 14.499s12.166 6.5 17.499 6.5h75
c10.667 0 21.834 -4 33.501 -12s19.5 -17.333 23.5 -28l251 -663l9 -22l6.5 -17.5c1.66699 -4.33301 2.5 -6.83301 2.5 -7.5c0.666992 -1.33301 0.333984 -1.66602 -0.999023 -0.999023s-2.66602 1 -3.99902 1h-112c-5.33301 0 -10.666 1.83301 -15.999 5.5
s-9 7.83398 -11 12.501l-7 19l-5 12l-37.5 101.5l-38.5 101.5v-0.5v-0.5zM187.996 344c-8 -21.333 -6.16602 -40.5 5.50098 -57.5s29.167 -25.5 52.5 -25.5h175c23.333 0 40.833 8.5 52.5 25.5s13.5 36.167 5.5 57.5l-88 234c-4.66699 14 -12.334 24.5 -23.001 31.5
s-22 10.5 -34 10.5s-23.333 -3.5 -34 -10.5s-18.667 -17.167 -24 -30.5z" />
    <glyph glyph-name="Acircumflex" unicode="&#xc2;" horiz-adv-x="754" 
d="M403 887c-4.66699 2.66699 -7.66797 3.5 -9.00098 2.5s-3.66602 -3.16699 -6.99902 -6.5l-40 -37c-3.33301 -2.66699 -10 -6 -20 -10s-17.333 -6 -22 -6h-28c-12 0 -20.333 4.66699 -25 14s-3.66699 18.666 3 27.999l63 83c4 6 11.5 11.667 22.5 17s19.833 8 26.5 8h54
c6.66699 0 15.5 -2.66699 26.5 -8s18.5 -11 22.5 -17l63 -83c6.66699 -9.33301 7.66699 -18.666 3 -27.999s-12.667 -14 -24 -14h-22h-31c-6.66699 8.66699 -13.334 16.667 -20.001 24c-6 7.33301 -12.167 14 -18.5 20s-12.166 10.333 -17.499 13zM512.999 252
c1.33301 -4.66699 -0.335938 -7.00098 -5.00293 -7.00098l-313 1c-11.333 0 -22.833 -4 -34.5 -12s-19.5 -17.333 -23.5 -28l-58 -155l-8 -20.5l-8 -20.5c-2 -6 -6 -9 -12 -9h-7h-5c0.666992 2 1.33398 4.33301 2.00098 7c0.666992 2 1.66699 4.5 3 7.5
s2.66602 6.5 3.99902 10.5c3.33301 8 9.33301 23.833 18 47.5l32 85.5l41.5 110l45.5 121l44.5 118l38.5 101.5l27.5 71.5c7 18 10.5 27.333 10.5 28l8 21c2 5.33301 6.16699 10.166 12.5 14.499s12.166 6.5 17.499 6.5h75c10.667 0 21.834 -4 33.501 -12
s19.5 -17.333 23.5 -28l251 -663l9 -22l6.5 -17.5c1.66699 -4.33301 2.5 -6.83301 2.5 -7.5c0.666992 -1.33301 0.333984 -1.66602 -0.999023 -0.999023s-2.66602 1 -3.99902 1h-112c-5.33301 0 -10.666 1.83301 -15.999 5.5s-9 7.83398 -11 12.501l-7 19l-5 12l-37.5 101.5
l-38.5 101.5v-0.5v-0.5zM187.997 343.999c-8 -21.333 -6.16602 -40.5 5.50098 -57.5s29.167 -25.5 52.5 -25.5h175c23.333 0 40.833 8.5 52.5 25.5s13.5 36.167 5.5 57.5l-88 234c-4.66699 14 -12.334 24.5 -23.001 31.5s-22 10.5 -34 10.5s-23.333 -3.5 -34 -10.5
s-18.667 -17.167 -24 -30.5z" />
    <glyph glyph-name="Atilde" unicode="&#xc3;" horiz-adv-x="754" 
d="M315 851c-0.666992 -5.33301 -3.16504 -10.1602 -7.49805 -14.4932s-8.83301 -6.5 -13.5 -6.5l-22 1c-13.333 0 -23.666 3.5 -30.999 10.5s-10 17.167 -8 30.5c4 30.667 12.333 56.167 25 76.5s29 33.166 49 38.499c14 4 21.667 -2.33301 23 -19l1 -12v0
c-0.666992 9.33301 -1.33398 17.166 -2.00098 23.499s-1.33398 9.5 -2.00098 9.5c12.667 0 26.334 -3.83301 41.001 -11.5s28 -16.334 40 -26.001s22.333 -18.5 31 -26.5s13.334 -12.667 14.001 -14c2.66699 -2.66699 3.5 -3.5 2.5 -2.5s0.166992 2.5 3.5 4.5
c7.33301 5.33301 12 20.666 14 45.999c0.666992 5.33301 3.16699 10.166 7.5 14.499s9.16602 6.5 14.499 6.5h22c13.333 0 23.666 -3.5 30.999 -10.5s10 -17.167 8 -30.5c-3.33301 -28.667 -10.833 -52.667 -22.5 -72s-26.167 -32.666 -43.5 -39.999
c-10.667 -4.66699 -18.334 -4.83398 -23.001 -0.500977s-7.66699 12.166 -9 23.499l-1 16l-4 45c1.33301 -16.667 2.33301 -31.667 3 -45c1.33301 -12 2.33301 -22.5 3 -31.5s1.33398 -13.5 2.00098 -13.5c-13.333 0 -25.833 4 -37.5 12s-22.667 17 -33 27l-29 27
c-9 8 -17.833 12 -26.5 12c-5.33301 0 -9.83301 -4.33301 -13.5 -13s-5.83398 -20.334 -6.50098 -35.001zM514.002 253.006c1.33301 -4.66699 -0.335938 -7.00098 -5.00293 -7.00098l-313 1c-11.333 0 -22.833 -4 -34.5 -12s-19.5 -17.333 -23.5 -28l-58 -155l-8 -20.5
l-8 -20.5c-2 -6 -6 -9 -12 -9h-7h-5c0.666992 2 1.33398 4.33301 2.00098 7c0.666992 2 1.66699 4.5 3 7.5s2.66602 6.5 3.99902 10.5c3.33301 8 9.33301 23.833 18 47.5l32 85.5l41.5 110l45.5 121l44.5 118l38.5 101.5l27.5 71.5c7 18 10.5 27.333 10.5 28l8 21
c2 5.33301 6.16699 10.166 12.5 14.499s12.166 6.5 17.499 6.5h75c10.667 0 21.834 -4 33.501 -12s19.5 -17.333 23.5 -28l251 -663l9 -22l6.5 -17.5c1.66699 -4.33301 2.5 -6.83301 2.5 -7.5c0.666992 -1.33301 0.333984 -1.66602 -0.999023 -0.999023
s-2.66602 1 -3.99902 1h-112c-5.33301 0 -10.666 1.83301 -15.999 5.5s-9 7.83398 -11 12.501l-7 19l-5 12l-37.5 101.5l-38.5 101.5v-0.5v-0.5zM189 345.005c-8 -21.333 -6.16602 -40.5 5.50098 -57.5s29.167 -25.5 52.5 -25.5h175c23.333 0 40.833 8.5 52.5 25.5
s13.5 36.167 5.5 57.5l-88 234c-4.66699 14 -12.334 24.5 -23.001 31.5s-22 10.5 -34 10.5s-23.333 -3.5 -34 -10.5s-18.667 -17.167 -24 -30.5z" />
    <glyph glyph-name="Adieresis" unicode="&#xc4;" horiz-adv-x="754" 
d="M473 830c-16.667 0 -31 6 -43 18s-18 26.333 -18 43v3c0 16.667 6 31 18 43s26.333 18 43 18h3c16.667 0 31 -6 43 -18s18 -26.333 18 -43v-3c0 -16.667 -6 -31 -18 -43s-26.333 -18 -43 -18h-3zM312 830c-16.667 0 -31 6 -43 18s-18 26.333 -18 43v3
c0 16.667 6 31 18 43s26.333 18 43 18h3c16.667 0 31 -6 43 -18s18 -26.333 18 -43v-3c0 -16.667 -6 -31 -18 -43s-26.333 -18 -43 -18h-3zM513 252c1.33301 -4.66699 -0.335938 -7.00098 -5.00293 -7.00098l-313 1c-11.333 0 -22.833 -4 -34.5 -12s-19.5 -17.333 -23.5 -28
l-58 -155l-8 -20.5l-8 -20.5c-2 -6 -6 -9 -12 -9h-7h-5c0.666992 2 1.33398 4.33301 2.00098 7c0.666992 2 1.66699 4.5 3 7.5s2.66602 6.5 3.99902 10.5c3.33301 8 9.33301 23.833 18 47.5l32 85.5l41.5 110l45.5 121l44.5 118l38.5 101.5l27.5 71.5
c7 18 10.5 27.333 10.5 28l8 21c2 5.33301 6.16699 10.166 12.5 14.499s12.166 6.5 17.499 6.5h75c10.667 0 21.834 -4 33.501 -12s19.5 -17.333 23.5 -28l251 -663l9 -22l6.5 -17.5c1.66699 -4.33301 2.5 -6.83301 2.5 -7.5
c0.666992 -1.33301 0.333984 -1.66602 -0.999023 -0.999023s-2.66602 1 -3.99902 1h-112c-5.33301 0 -10.666 1.83301 -15.999 5.5s-9 7.83398 -11 12.501l-7 19l-5 12l-37.5 101.5l-38.5 101.5v-0.5v-0.5zM187.998 343.999c-8 -21.333 -6.16602 -40.5 5.50098 -57.5
s29.167 -25.5 52.5 -25.5h175c23.333 0 40.833 8.5 52.5 25.5s13.5 36.167 5.5 57.5l-88 234c-4.66699 14 -12.334 24.5 -23.001 31.5s-22 10.5 -34 10.5s-23.333 -3.5 -34 -10.5s-18.667 -17.167 -24 -30.5z" />
    <glyph glyph-name="Aring" unicode="&#xc5;" horiz-adv-x="754" 
d="M366 915c0 -21.333 9.33301 -32 28 -32c19.333 0 29 10.667 29 32c0 20.667 -9.66699 31 -29 31c-18.667 0 -28 -10.333 -28 -31zM309 915c0 26.667 7.33301 47.334 22 62.001s35.667 22 63 22s48.5 -7.33301 63.5 -22s22.5 -35.334 22.5 -62.001
c0 -56.667 -28.667 -85 -86 -85c-56.667 0 -85 28.333 -85 85zM513 252c1.33301 -4.66699 -0.335938 -7.00098 -5.00293 -7.00098l-313 1c-11.333 0 -22.833 -4 -34.5 -12s-19.5 -17.333 -23.5 -28l-58 -155l-8 -20.5l-8 -20.5c-2 -6 -6 -9 -12 -9h-7h-5
c0.666992 2 1.33398 4.33301 2.00098 7c0.666992 2 1.66699 4.5 3 7.5s2.66602 6.5 3.99902 10.5c3.33301 8 9.33301 23.833 18 47.5l32 85.5l41.5 110l45.5 121l44.5 118l38.5 101.5l27.5 71.5c7 18 10.5 27.333 10.5 28l8 21c2 5.33301 6.16699 10.166 12.5 14.499
s12.166 6.5 17.499 6.5h75c10.667 0 21.834 -4 33.501 -12s19.5 -17.333 23.5 -28l251 -663l9 -22l6.5 -17.5c1.66699 -4.33301 2.5 -6.83301 2.5 -7.5c0.666992 -1.33301 0.333984 -1.66602 -0.999023 -0.999023s-2.66602 1 -3.99902 1h-112
c-5.33301 0 -10.666 1.83301 -15.999 5.5s-9 7.83398 -11 12.501l-7 19l-5 12l-37.5 101.5l-38.5 101.5v-0.5v-0.5zM187.998 343.999c-8 -21.333 -6.16602 -40.5 5.50098 -57.5s29.167 -25.5 52.5 -25.5h175c23.333 0 40.833 8.5 52.5 25.5s13.5 36.167 5.5 57.5l-88 234
c-4.66699 14 -12.334 24.5 -23.001 31.5s-22 10.5 -34 10.5s-23.333 -3.5 -34 -10.5s-18.667 -17.167 -24 -30.5z" />
    <glyph glyph-name="Ccedilla" unicode="&#xc7;" horiz-adv-x="695" 
d="M353 -91c-16.667 0 -27.6689 -3.3291 -33.002 -9.99609c-1.33301 -2 -2.66602 -2.66699 -3.99902 -2c-2 0.666992 -2.66699 1.66699 -2 3l24 48c5.33301 12 4.66602 24.5 -2.00098 37.5s-16 21.5 -28 25.5c-39.333 12.667 -74.666 30.834 -105.999 54.501
s-58 51.5 -80 83.5s-39 67.333 -51 106s-18 79 -18 121c0 52 9 101.167 27 147.5s43.167 87 75.5 122s71.5 62.833 117.5 83.5s97 31 153 31c21.333 0 43.166 -4.16699 65.499 -12.5s44.333 -19.833 66 -34.5s42.167 -32.667 61.5 -54s36.666 -44.666 51.999 -69.999
c0.666992 -1.33301 1.33398 -3.33301 2.00098 -6s0.666992 -4.33398 0 -5.00098l-4 -3l-4 -3c-1.33301 -0.666992 -3 -0.333984 -5 0.999023s-3.33301 2.66602 -4 3.99902c-15.333 25.333 -32.166 48.166 -50.499 68.499s-37.666 37.833 -57.999 52.5s-40.833 26 -61.5 34
s-40.667 12 -60 12c-35.333 0 -67.5 -9.83301 -96.5 -29.5s-53.833 -46.334 -74.5 -80.001s-36.667 -72.667 -48 -117s-17 -91.5 -17 -141.5s5.66699 -97.167 17 -141.5s27.333 -83.333 48 -117s45.5 -60.334 74.5 -80.001s61.167 -29.5 96.5 -29.5
c22.667 0 45.334 4 68.001 12s44 19.333 64 34s38.5 32.167 55.5 52.5s31.5 43.166 43.5 68.499c2.66699 5.33301 6.66699 6 12 2c4.66699 -4 5.66699 -8.66699 3 -14c-12 -25.333 -27 -48.666 -45 -69.999s-37.667 -39.333 -59 -54s-44.166 -26.167 -68.499 -34.5
s-48.833 -12.5 -73.5 -12.5c-18.667 0 -35.334 1 -50.001 3c-6 0.666992 -10.333 -2 -13 -8l-38 -79v-1c0 -0.666992 0.333008 -0.666992 1 0c7.33301 6 16.666 9 27.999 9c30 0 54 -5.5 72 -16.5s27 -25.167 27 -42.5c0 -32 -9.16699 -57.833 -27.5 -77.5
s-42.833 -29.5 -73.5 -29.5c-15.333 0 -26.833 6.83301 -34.5 20.5s-10.5 31.834 -8.5 54.501c0 2 1 4 3 6s3 1.66699 3 -1c0 -7.33301 3.16699 -13.333 9.5 -18s14.5 -7 24.5 -7c11.333 0 20.666 4.83301 27.999 14.5s11 22.167 11 37.5s-3.16699 27.666 -9.5 36.999
s-15.166 14 -26.499 14z" />
    <glyph glyph-name="Egrave" unicode="&#xc8;" horiz-adv-x="640" 
d="M312 830c-7.33301 0 -16.666 2.99902 -27.999 8.99902s-19 12.333 -23 19l-39 59c-9.33301 14.667 -10.333 28.834 -3 42.501s19.666 20.5 36.999 20.5h32c11.333 0 22.833 -4.16699 34.5 -12.5s19.167 -17.833 22.5 -28.5l22 -59c4 -13.333 2.5 -25 -4.5 -35
s-17.167 -15 -30.5 -15h-20zM582 15.999c5.33301 0 8 -2.66699 8 -8s-2.66699 -8 -8 -8h-434c-16.667 0 -31 6 -43 18s-18 26.333 -18 43v628c0 16.667 6 31 18 43s26.333 18 43 18h419c5.33301 0 8 -2.66699 8 -8s-2.66699 -8 -8 -8h-291c-16.667 0 -31 -6 -43 -18
s-18 -26.333 -18 -43v-218c0 -16.667 6 -31 18 -43s26.333 -18 43 -18h272c4.66699 0 7 -2.33301 7 -7s-2.33301 -7 -7 -7h-272c-16.667 0 -31 -6 -43 -18s-18 -26.333 -18 -43v-242c0 -16.667 6 -31 18 -43s26.333 -18 43 -18h306z" />
    <glyph glyph-name="Eacute" unicode="&#xc9;" horiz-adv-x="640" 
d="M332 830c-14 0 -24.6689 5.00098 -32.002 15.001s-8.66602 21.667 -3.99902 35l21 59c3.33301 10.667 11 20.167 23 28.5s23.667 12.5 35 12.5h31c17.333 0 29.833 -6.83301 37.5 -20.5s6.5 -27.834 -3.5 -42.501l-38 -59c-4 -6.66699 -11.667 -13 -23 -19
s-20.666 -9 -27.999 -9h-19zM581.998 16.001c5.33301 0 8 -2.66699 8 -8s-2.66699 -8 -8 -8h-434c-16.667 0 -31 6 -43 18s-18 26.333 -18 43v628c0 16.667 6 31 18 43s26.333 18 43 18h419c5.33301 0 8 -2.66699 8 -8s-2.66699 -8 -8 -8h-291c-16.667 0 -31 -6 -43 -18
s-18 -26.333 -18 -43v-218c0 -16.667 6 -31 18 -43s26.333 -18 43 -18h272c4.66699 0 7 -2.33301 7 -7s-2.33301 -7 -7 -7h-272c-16.667 0 -31 -6 -43 -18s-18 -26.333 -18 -43v-242c0 -16.667 6 -31 18 -43s26.333 -18 43 -18h306z" />
    <glyph glyph-name="Ecircumflex" unicode="&#xca;" horiz-adv-x="640" 
d="M340 887c-4.66699 2.66699 -7.66797 3.5 -9.00098 2.5s-3.66602 -3.16699 -6.99902 -6.5l-40 -37c-3.33301 -2.66699 -10 -6 -20 -10s-17.333 -6 -22 -6h-28c-12 0 -20.333 4.66699 -25 14s-3.66699 18.666 3 27.999l63 83c4 6 11.5 11.667 22.5 17s19.833 8 26.5 8h54
c6.66699 0 15.5 -2.66699 26.5 -8s18.5 -11 22.5 -17l63 -83c6.66699 -9.33301 7.66699 -18.666 3 -27.999s-12.667 -14 -24 -14h-22h-31c-6.66699 8.66699 -13.334 16.667 -20.001 24c-6 7.33301 -12.167 14 -18.5 20s-12.166 10.333 -17.499 13zM581.999 16
c5.33301 0 8 -2.66699 8 -8s-2.66699 -8 -8 -8h-434c-16.667 0 -31 6 -43 18s-18 26.333 -18 43v628c0 16.667 6 31 18 43s26.333 18 43 18h419c5.33301 0 8 -2.66699 8 -8s-2.66699 -8 -8 -8h-291c-16.667 0 -31 -6 -43 -18s-18 -26.333 -18 -43v-218
c0 -16.667 6 -31 18 -43s26.333 -18 43 -18h272c4.66699 0 7 -2.33301 7 -7s-2.33301 -7 -7 -7h-272c-16.667 0 -31 -6 -43 -18s-18 -26.333 -18 -43v-242c0 -16.667 6 -31 18 -43s26.333 -18 43 -18h306z" />
    <glyph glyph-name="Edieresis" unicode="&#xcb;" horiz-adv-x="640" 
d="M410 830c-16.667 0 -31 6 -43 18s-18 26.333 -18 43v3c0 16.667 6 31 18 43s26.333 18 43 18h3c16.667 0 31 -6 43 -18s18 -26.333 18 -43v-3c0 -16.667 -6 -31 -18 -43s-26.333 -18 -43 -18h-3zM249 830c-16.667 0 -31 6 -43 18s-18 26.333 -18 43v3
c0 16.667 6 31 18 43s26.333 18 43 18h3c16.667 0 31 -6 43 -18s18 -26.333 18 -43v-3c0 -16.667 -6 -31 -18 -43s-26.333 -18 -43 -18h-3zM582 16c5.33301 0 8 -2.66699 8 -8s-2.66699 -8 -8 -8h-434c-16.667 0 -31 6 -43 18s-18 26.333 -18 43v628c0 16.667 6 31 18 43
s26.333 18 43 18h419c5.33301 0 8 -2.66699 8 -8s-2.66699 -8 -8 -8h-291c-16.667 0 -31 -6 -43 -18s-18 -26.333 -18 -43v-218c0 -16.667 6 -31 18 -43s26.333 -18 43 -18h272c4.66699 0 7 -2.33301 7 -7s-2.33301 -7 -7 -7h-272c-16.667 0 -31 -6 -43 -18
s-18 -26.333 -18 -43v-242c0 -16.667 6 -31 18 -43s26.333 -18 43 -18h306z" />
    <glyph glyph-name="Igrave" unicode="&#xcc;" horiz-adv-x="301" 
d="M133 830c-7.33301 0 -16.666 2.99902 -27.999 8.99902s-19 12.333 -23 19l-39 59c-9.33301 14.667 -10.333 28.834 -3 42.501s19.666 20.5 36.999 20.5h32c11.333 0 22.833 -4.16699 34.5 -12.5s19.167 -17.833 22.5 -28.5l22 -59c4 -13.333 2.5 -25 -4.5 -35
s-17.167 -15 -30.5 -15h-20zM216 60.999c0 -16.667 -6 -31 -18 -43s-26.333 -18 -43 -18h-6c-16.667 0 -31 6 -43 18s-18 26.333 -18 43v628c0 16.667 6 31 18 43s26.333 18 43 18h6c16.667 0 31 -6 43 -18s18 -26.333 18 -43v-628z" />
    <glyph glyph-name="Iacute" unicode="&#xcd;" horiz-adv-x="301" 
d="M153 830c-14 0 -24.6689 5.00098 -32.002 15.001s-8.66602 21.667 -3.99902 35l21 59c3.33301 10.667 11 20.167 23 28.5s23.667 12.5 35 12.5h31c17.333 0 29.833 -6.83301 37.5 -20.5s6.5 -27.834 -3.5 -42.501l-38 -59c-4 -6.66699 -11.667 -13 -23 -19
s-20.666 -9 -27.999 -9h-19zM215.998 61.001c0 -16.667 -6 -31 -18 -43s-26.333 -18 -43 -18h-6c-16.667 0 -31 6 -43 18s-18 26.333 -18 43v628c0 16.667 6 31 18 43s26.333 18 43 18h6c16.667 0 31 -6 43 -18s18 -26.333 18 -43v-628z" />
    <glyph glyph-name="Icircumflex" unicode="&#xce;" horiz-adv-x="301" 
d="M161 887c-4.66699 2.66699 -7.66797 3.5 -9.00098 2.5s-3.66602 -3.16699 -6.99902 -6.5l-40 -37c-3.33301 -2.66699 -10 -6 -20 -10s-17.333 -6 -22 -6h-28c-12 0 -20.333 4.66699 -25 14s-3.66699 18.666 3 27.999l63 83c4 6 11.5 11.667 22.5 17s19.833 8 26.5 8h54
c6.66699 0 15.5 -2.66699 26.5 -8s18.5 -11 22.5 -17l63 -83c6.66699 -9.33301 7.66699 -18.666 3 -27.999s-12.667 -14 -24 -14h-22h-31c-6.66699 8.66699 -13.334 16.667 -20.001 24c-6 7.33301 -12.167 14 -18.5 20s-12.166 10.333 -17.499 13zM215.999 61
c0 -16.667 -6 -31 -18 -43s-26.333 -18 -43 -18h-6c-16.667 0 -31 6 -43 18s-18 26.333 -18 43v628c0 16.667 6 31 18 43s26.333 18 43 18h6c16.667 0 31 -6 43 -18s18 -26.333 18 -43v-628z" />
    <glyph glyph-name="Idieresis" unicode="&#xcf;" horiz-adv-x="301" 
d="M231 830c-16.667 0 -31 6 -43 18s-18 26.333 -18 43v3c0 16.667 6 31 18 43s26.333 18 43 18h3c16.667 0 31 -6 43 -18s18 -26.333 18 -43v-3c0 -16.667 -6 -31 -18 -43s-26.333 -18 -43 -18h-3zM70 830c-16.667 0 -31 6 -43 18s-18 26.333 -18 43v3c0 16.667 6 31 18 43
s26.333 18 43 18h3c16.667 0 31 -6 43 -18s18 -26.333 18 -43v-3c0 -16.667 -6 -31 -18 -43s-26.333 -18 -43 -18h-3zM216 61c0 -16.667 -6 -31 -18 -43s-26.333 -18 -43 -18h-6c-16.667 0 -31 6 -43 18s-18 26.333 -18 43v628c0 16.667 6 31 18 43s26.333 18 43 18h6
c16.667 0 31 -6 43 -18s18 -26.333 18 -43v-628z" />
    <glyph glyph-name="Ntilde" unicode="&#xd1;" horiz-adv-x="668" 
d="M270 851c-0.666992 -5.33301 -3.16504 -10.1602 -7.49805 -14.4932s-8.83301 -6.5 -13.5 -6.5l-22 1c-13.333 0 -23.666 3.5 -30.999 10.5s-10 17.167 -8 30.5c4 30.667 12.333 56.167 25 76.5s29 33.166 49 38.499c14 4 21.667 -2.33301 23 -19l1 -12v0
c-0.666992 9.33301 -1.33398 17.166 -2.00098 23.499s-1.33398 9.5 -2.00098 9.5c12.667 0 26.334 -3.83301 41.001 -11.5s28 -16.334 40 -26.001s22.333 -18.5 31 -26.5s13.334 -12.667 14.001 -14c2.66699 -2.66699 3.5 -3.5 2.5 -2.5s0.166992 2.5 3.5 4.5
c7.33301 5.33301 12 20.666 14 45.999c0.666992 5.33301 3.16699 10.166 7.5 14.499s9.16602 6.5 14.499 6.5h22c13.333 0 23.666 -3.5 30.999 -10.5s10 -17.167 8 -30.5c-3.33301 -28.667 -10.833 -52.667 -22.5 -72s-26.167 -32.666 -43.5 -39.999
c-10.667 -4.66699 -18.334 -4.83398 -23.001 -0.500977s-7.66699 12.166 -9 23.499l-1 16l-4 45c1.33301 -16.667 2.33301 -31.667 3 -45c1.33301 -12 2.33301 -22.5 3 -31.5s1.33398 -13.5 2.00098 -13.5c-13.333 0 -25.833 4 -37.5 12s-22.667 17 -33 27l-29 27
c-9 8 -17.833 12 -26.5 12c-5.33301 0 -9.83301 -4.33301 -13.5 -13s-5.83398 -20.334 -6.50098 -35.001zM134.002 11.0059c0 -6.66699 -3 -10 -9 -10c-6.66699 0 -10 3.33301 -10 10v679c0 16.667 6 31 18 43s26.333 18 43 18h41c10.667 0 21.834 -3.83301 33.501 -11.5
s19.5 -16.5 23.5 -26.5l173 -411c6 -14.667 15.667 -24.834 29 -30.501s26.5 -7.16699 39.5 -4.5s24.5 9.16699 34.5 19.5s15 23.5 15 39.5v416c0 6 3.33301 9 10 9c6 0 9 -3 9 -9v-680c0 -16.667 -6 -31 -18 -43s-26.333 -18 -43 -18h-51
c-10.667 0 -21.834 3.83301 -33.501 11.5s-19.5 16.5 -23.5 26.5l-163 387c-6 14.667 -15.667 24.834 -29 30.501s-26.5 7.16699 -39.5 4.5s-24.5 -9.16699 -34.5 -19.5s-15 -23.5 -15 -39.5v-391z" />
    <glyph glyph-name="Ograve" unicode="&#xd2;" horiz-adv-x="814" 
d="M389 830c-7.33301 0 -16.666 2.99902 -27.999 8.99902s-19 12.333 -23 19l-39 59c-9.33301 14.667 -10.333 28.834 -3 42.501s19.666 20.5 36.999 20.5h32c11.333 0 22.833 -4.16699 34.5 -12.5s19.167 -17.833 22.5 -28.5l22 -59c4 -13.333 2.5 -25 -4.5 -35
s-17.167 -15 -30.5 -15h-20zM194 374.999c0 -55.333 5.16699 -105.666 15.5 -150.999s24.833 -84 43.5 -116s41.167 -56.833 67.5 -74.5s55.5 -26.5 87.5 -26.5s61.167 8.83301 87.5 26.5s48.833 42.5 67.5 74.5s33.167 70.667 43.5 116s15.5 95.666 15.5 150.999
c0 52.667 -5.5 101.334 -16.5 146.001s-26 83.5 -45 116.5s-41.5 58.833 -67.5 77.5s-54.333 28 -85 28s-59 -9.33301 -85 -28s-48.5 -44.5 -67.5 -77.5s-34 -71.833 -45 -116.5s-16.5 -93.334 -16.5 -146.001zM57 374.999c0 54.667 8.83105 105.5 26.498 152.5
s42.334 87.667 74.001 122s68.834 61.166 111.501 80.499s89 29 139 29s96.333 -9.66699 139 -29s79.834 -46.166 111.501 -80.499s56.334 -75 74.001 -122s26.5 -97.833 26.5 -152.5c0 -57.333 -8.33301 -109.666 -25 -156.999s-40.334 -87.833 -71.001 -121.5
s-67.667 -59.667 -111 -78s-91.333 -27.5 -144 -27.5s-100.667 9.16699 -144 27.5s-80.333 44.333 -111 78s-54.334 74.167 -71.001 121.5s-25 99.666 -25 156.999z" />
    <glyph glyph-name="Oacute" unicode="&#xd3;" horiz-adv-x="814" 
d="M409 830c-14 0 -24.6689 5.00098 -32.002 15.001s-8.66602 21.667 -3.99902 35l21 59c3.33301 10.667 11 20.167 23 28.5s23.667 12.5 35 12.5h31c17.333 0 29.833 -6.83301 37.5 -20.5s6.5 -27.834 -3.5 -42.501l-38 -59c-4 -6.66699 -11.667 -13 -23 -19
s-20.666 -9 -27.999 -9h-19zM193.998 375.001c0 -55.333 5.16699 -105.666 15.5 -150.999s24.833 -84 43.5 -116s41.167 -56.833 67.5 -74.5s55.5 -26.5 87.5 -26.5s61.167 8.83301 87.5 26.5s48.833 42.5 67.5 74.5s33.167 70.667 43.5 116s15.5 95.666 15.5 150.999
c0 52.667 -5.5 101.334 -16.5 146.001s-26 83.5 -45 116.5s-41.5 58.833 -67.5 77.5s-54.333 28 -85 28s-59 -9.33301 -85 -28s-48.5 -44.5 -67.5 -77.5s-34 -71.833 -45 -116.5s-16.5 -93.334 -16.5 -146.001zM56.998 375.001c0 54.667 8.83105 105.5 26.498 152.5
s42.334 87.667 74.001 122s68.834 61.166 111.501 80.499s89 29 139 29s96.333 -9.66699 139 -29s79.834 -46.166 111.501 -80.499s56.334 -75 74.001 -122s26.5 -97.833 26.5 -152.5c0 -57.333 -8.33301 -109.666 -25 -156.999s-40.334 -87.833 -71.001 -121.5
s-67.667 -59.667 -111 -78s-91.333 -27.5 -144 -27.5s-100.667 9.16699 -144 27.5s-80.333 44.333 -111 78s-54.334 74.167 -71.001 121.5s-25 99.666 -25 156.999z" />
    <glyph glyph-name="Ocircumflex" unicode="&#xd4;" horiz-adv-x="814" 
d="M417 887c-4.66699 2.66699 -7.66797 3.5 -9.00098 2.5s-3.66602 -3.16699 -6.99902 -6.5l-40 -37c-3.33301 -2.66699 -10 -6 -20 -10s-17.333 -6 -22 -6h-28c-12 0 -20.333 4.66699 -25 14s-3.66699 18.666 3 27.999l63 83c4 6 11.5 11.667 22.5 17s19.833 8 26.5 8h54
c6.66699 0 15.5 -2.66699 26.5 -8s18.5 -11 22.5 -17l63 -83c6.66699 -9.33301 7.66699 -18.666 3 -27.999s-12.667 -14 -24 -14h-22h-31c-6.66699 8.66699 -13.334 16.667 -20.001 24c-6 7.33301 -12.167 14 -18.5 20s-12.166 10.333 -17.499 13zM193.999 375
c0 -55.333 5.16699 -105.666 15.5 -150.999s24.833 -84 43.5 -116s41.167 -56.833 67.5 -74.5s55.5 -26.5 87.5 -26.5s61.167 8.83301 87.5 26.5s48.833 42.5 67.5 74.5s33.167 70.667 43.5 116s15.5 95.666 15.5 150.999c0 52.667 -5.5 101.334 -16.5 146.001
s-26 83.5 -45 116.5s-41.5 58.833 -67.5 77.5s-54.333 28 -85 28s-59 -9.33301 -85 -28s-48.5 -44.5 -67.5 -77.5s-34 -71.833 -45 -116.5s-16.5 -93.334 -16.5 -146.001zM56.999 375c0 54.667 8.83105 105.5 26.498 152.5s42.334 87.667 74.001 122
s68.834 61.166 111.501 80.499s89 29 139 29s96.333 -9.66699 139 -29s79.834 -46.166 111.501 -80.499s56.334 -75 74.001 -122s26.5 -97.833 26.5 -152.5c0 -57.333 -8.33301 -109.666 -25 -156.999s-40.334 -87.833 -71.001 -121.5s-67.667 -59.667 -111 -78
s-91.333 -27.5 -144 -27.5s-100.667 9.16699 -144 27.5s-80.333 44.333 -111 78s-54.334 74.167 -71.001 121.5s-25 99.666 -25 156.999z" />
    <glyph glyph-name="Otilde" unicode="&#xd5;" horiz-adv-x="814" 
d="M329 851c-0.666992 -5.33301 -3.16504 -10.1602 -7.49805 -14.4932s-8.83301 -6.5 -13.5 -6.5l-22 1c-13.333 0 -23.666 3.5 -30.999 10.5s-10 17.167 -8 30.5c4 30.667 12.333 56.167 25 76.5s29 33.166 49 38.499c14 4 21.667 -2.33301 23 -19l1 -12v0
c-0.666992 9.33301 -1.33398 17.166 -2.00098 23.499s-1.33398 9.5 -2.00098 9.5c12.667 0 26.334 -3.83301 41.001 -11.5s28 -16.334 40 -26.001s22.333 -18.5 31 -26.5s13.334 -12.667 14.001 -14c2.66699 -2.66699 3.5 -3.5 2.5 -2.5s0.166992 2.5 3.5 4.5
c7.33301 5.33301 12 20.666 14 45.999c0.666992 5.33301 3.16699 10.166 7.5 14.499s9.16602 6.5 14.499 6.5h22c13.333 0 23.666 -3.5 30.999 -10.5s10 -17.167 8 -30.5c-3.33301 -28.667 -10.833 -52.667 -22.5 -72s-26.167 -32.666 -43.5 -39.999
c-10.667 -4.66699 -18.334 -4.83398 -23.001 -0.500977s-7.66699 12.166 -9 23.499l-1 16l-4 45c1.33301 -16.667 2.33301 -31.667 3 -45c1.33301 -12 2.33301 -22.5 3 -31.5s1.33398 -13.5 2.00098 -13.5c-13.333 0 -25.833 4 -37.5 12s-22.667 17 -33 27l-29 27
c-9 8 -17.833 12 -26.5 12c-5.33301 0 -9.83301 -4.33301 -13.5 -13s-5.83398 -20.334 -6.50098 -35.001zM195.002 376.006c0 -55.333 5.16699 -105.666 15.5 -150.999s24.833 -84 43.5 -116s41.167 -56.833 67.5 -74.5s55.5 -26.5 87.5 -26.5s61.167 8.83301 87.5 26.5
s48.833 42.5 67.5 74.5s33.167 70.667 43.5 116s15.5 95.666 15.5 150.999c0 52.667 -5.5 101.334 -16.5 146.001s-26 83.5 -45 116.5s-41.5 58.833 -67.5 77.5s-54.333 28 -85 28s-59 -9.33301 -85 -28s-48.5 -44.5 -67.5 -77.5s-34 -71.833 -45 -116.5
s-16.5 -93.334 -16.5 -146.001zM58.002 376.006c0 54.667 8.83105 105.5 26.498 152.5s42.334 87.667 74.001 122s68.834 61.166 111.501 80.499s89 29 139 29s96.333 -9.66699 139 -29s79.834 -46.166 111.501 -80.499s56.334 -75 74.001 -122s26.5 -97.833 26.5 -152.5
c0 -57.333 -8.33301 -109.666 -25 -156.999s-40.334 -87.833 -71.001 -121.5s-67.667 -59.667 -111 -78s-91.333 -27.5 -144 -27.5s-100.667 9.16699 -144 27.5s-80.333 44.333 -111 78s-54.334 74.167 -71.001 121.5s-25 99.666 -25 156.999z" />
    <glyph glyph-name="Odieresis" unicode="&#xd6;" horiz-adv-x="814" 
d="M487 830c-16.667 0 -31 6 -43 18s-18 26.333 -18 43v3c0 16.667 6 31 18 43s26.333 18 43 18h3c16.667 0 31 -6 43 -18s18 -26.333 18 -43v-3c0 -16.667 -6 -31 -18 -43s-26.333 -18 -43 -18h-3zM326 830c-16.667 0 -31 6 -43 18s-18 26.333 -18 43v3
c0 16.667 6 31 18 43s26.333 18 43 18h3c16.667 0 31 -6 43 -18s18 -26.333 18 -43v-3c0 -16.667 -6 -31 -18 -43s-26.333 -18 -43 -18h-3zM194 375c0 -55.333 5.16699 -105.666 15.5 -150.999s24.833 -84 43.5 -116s41.167 -56.833 67.5 -74.5s55.5 -26.5 87.5 -26.5
s61.167 8.83301 87.5 26.5s48.833 42.5 67.5 74.5s33.167 70.667 43.5 116s15.5 95.666 15.5 150.999c0 52.667 -5.5 101.334 -16.5 146.001s-26 83.5 -45 116.5s-41.5 58.833 -67.5 77.5s-54.333 28 -85 28s-59 -9.33301 -85 -28s-48.5 -44.5 -67.5 -77.5
s-34 -71.833 -45 -116.5s-16.5 -93.334 -16.5 -146.001zM57 375c0 54.667 8.83105 105.5 26.498 152.5s42.334 87.667 74.001 122s68.834 61.166 111.501 80.499s89 29 139 29s96.333 -9.66699 139 -29s79.834 -46.166 111.501 -80.499s56.334 -75 74.001 -122
s26.5 -97.833 26.5 -152.5c0 -57.333 -8.33301 -109.666 -25 -156.999s-40.334 -87.833 -71.001 -121.5s-67.667 -59.667 -111 -78s-91.333 -27.5 -144 -27.5s-100.667 9.16699 -144 27.5s-80.333 44.333 -111 78s-54.334 74.167 -71.001 121.5s-25 99.666 -25 156.999z" />
    <glyph glyph-name="Oslash" unicode="&#xd8;" horiz-adv-x="814" 
d="M56 375c0 54.667 8.83887 105.501 26.5059 152.501s42.167 87.667 73.5 122s68.333 61.166 111 80.499s89 29 139 29c34.667 0 67.5 -4.5 98.5 -13.5s59.833 -22.167 86.5 -39.5c7.33301 -5.33301 17.166 -7.5 29.499 -6.5s21.5 4.83301 27.5 11.5l21 26
c3.33301 4.66699 10.5 9.5 21.5 14.5s19.5 7.5 25.5 7.5h7c7.33301 0 12.5 -3.16699 15.5 -9.5s2.16699 -12.166 -2.5 -17.499l-44 -54c-6.66699 -8 -9.83398 -20 -9.50098 -36s3.5 -28.333 9.5 -37c21.333 -32 37.833 -67.333 49.5 -106s17.5 -80 17.5 -124
c0 -57.333 -8.33301 -109.666 -25 -156.999s-40.334 -87.833 -71.001 -121.5s-67.667 -59.667 -111 -78s-91.333 -27.5 -144 -27.5c-71.333 0 -134 16.667 -188 50c-8 4.66699 -17.833 6.66699 -29.5 6s-20.5 -4.66699 -26.5 -12l-18 -22
c-3.33301 -4.66699 -10.5 -9.5 -21.5 -14.5s-19.5 -7.5 -25.5 -7.5h-6c-8 0 -13.5 3.16699 -16.5 9.5s-1.83301 12.166 3.5 17.499l40 50c3.33301 4 5.66602 9.16699 6.99902 15.5s2 13 2 20s-0.833008 13.667 -2.5 20s-3.83398 11.833 -6.50098 16.5
c-20.667 31.333 -36.334 66.666 -47.001 105.999s-16 82.333 -16 129h-1zM545.006 586.001c7.33301 9.33301 11.835 19.8359 13.502 31.5029s-0.833008 22.5 -7.5 32.5c-18.667 29.333 -40.334 52.166 -65.001 68.499s-51.334 24.5 -80.001 24.5
c-30.667 0 -59 -9.33301 -85 -28s-48.5 -44.5 -67.5 -77.5s-34 -71.833 -45 -116.5s-16.5 -93.334 -16.5 -146.001c0 -57.333 5.66699 -110 17 -158c2 -6.66699 5.66699 -10.834 11 -12.501s10.333 -0.166992 15 4.5zM601.008 530.004
c-1.33301 6.66699 -5.00098 10.833 -11.001 12.5s-11 -0.166016 -15 -5.49902l-311 -378c-7.33301 -9.33301 -11.833 -19.666 -13.5 -30.999s0.5 -22 6.5 -32c19.333 -28.667 41.333 -50.834 66 -66.501s52.334 -23.5 83.001 -23.5c32 0 61.167 8.83301 87.5 26.5
s48.833 42.5 67.5 74.5s33.167 70.667 43.5 116s15.5 95.666 15.5 150.999c0 28 -1.66699 55 -5 81s-8 51 -14 75z" />
    <glyph glyph-name="Ugrave" unicode="&#xd9;" horiz-adv-x="704" 
d="M333 821c-7.33301 0 -16.666 2.99902 -27.999 8.99902s-19 12.333 -23 19l-39 59c-9.33301 14.667 -10.333 28.834 -3 42.501s19.666 20.5 36.999 20.5h32c11.333 0 22.833 -4.16699 34.5 -12.5s19.167 -17.833 22.5 -28.5l22 -59c4 -13.333 2.5 -25 -4.5 -35
s-17.167 -15 -30.5 -15h-20zM605 740.999c0 6 3.33301 9.00195 10 9.00195c6 0 9 -3 9 -9v-447c0 -100.667 -22.667 -176.334 -68 -227.001s-113.333 -76 -204 -76c-181.333 0 -272 99.333 -272 298v400c0 16.667 6 31 18 43s26.333 18 43 18h6c16.667 0 31 -6 43 -18
s18 -26.333 18 -43v-377c0 -100.667 12 -176.334 36 -227.001s60 -76 108 -76c168.667 0 253 96.333 253 289v443z" />
    <glyph glyph-name="Uacute" unicode="&#xda;" horiz-adv-x="704" 
d="M353 821c-14 0 -24.6689 5.00098 -32.002 15.001s-8.66602 21.667 -3.99902 35l21 59c3.33301 10.667 11 20.167 23 28.5s23.667 12.5 35 12.5h31c17.333 0 29.833 -6.83301 37.5 -20.5s6.5 -27.834 -3.5 -42.501l-38 -59c-4 -6.66699 -11.667 -13 -23 -19
s-20.666 -9 -27.999 -9h-19zM604.998 741.001c0 6 3.33301 9.00195 10 9.00195c6 0 9 -3 9 -9v-447c0 -100.667 -22.667 -176.334 -68 -227.001s-113.333 -76 -204 -76c-181.333 0 -272 99.333 -272 298v400c0 16.667 6 31 18 43s26.333 18 43 18h6c16.667 0 31 -6 43 -18
s18 -26.333 18 -43v-377c0 -100.667 12 -176.334 36 -227.001s60 -76 108 -76c168.667 0 253 96.333 253 289v443z" />
    <glyph glyph-name="Ucircumflex" unicode="&#xdb;" horiz-adv-x="704" 
d="M361 878c-4.66699 2.66699 -7.66797 3.5 -9.00098 2.5s-3.66602 -3.16699 -6.99902 -6.5l-40 -37c-3.33301 -2.66699 -10 -6 -20 -10s-17.333 -6 -22 -6h-28c-12 0 -20.333 4.66699 -25 14s-3.66699 18.666 3 27.999l63 83c4 6 11.5 11.667 22.5 17s19.833 8 26.5 8h54
c6.66699 0 15.5 -2.66699 26.5 -8s18.5 -11 22.5 -17l63 -83c6.66699 -9.33301 7.66699 -18.666 3 -27.999s-12.667 -14 -24 -14h-22h-31c-6.66699 8.66699 -13.334 16.667 -20.001 24c-6 7.33301 -12.167 14 -18.5 20s-12.166 10.333 -17.499 13zM604.999 741
c0 6 3.33301 9.00195 10 9.00195c6 0 9 -3 9 -9v-447c0 -100.667 -22.667 -176.334 -68 -227.001s-113.333 -76 -204 -76c-181.333 0 -272 99.333 -272 298v400c0 16.667 6 31 18 43s26.333 18 43 18h6c16.667 0 31 -6 43 -18s18 -26.333 18 -43v-377
c0 -100.667 12 -176.334 36 -227.001s60 -76 108 -76c168.667 0 253 96.333 253 289v443z" />
    <glyph glyph-name="Udieresis" unicode="&#xdc;" horiz-adv-x="704" 
d="M431 821c-16.667 0 -31 6 -43 18s-18 26.333 -18 43v3c0 16.667 6 31 18 43s26.333 18 43 18h3c16.667 0 31 -6 43 -18s18 -26.333 18 -43v-3c0 -16.667 -6 -31 -18 -43s-26.333 -18 -43 -18h-3zM270 821c-16.667 0 -31 6 -43 18s-18 26.333 -18 43v3
c0 16.667 6 31 18 43s26.333 18 43 18h3c16.667 0 31 -6 43 -18s18 -26.333 18 -43v-3c0 -16.667 -6 -31 -18 -43s-26.333 -18 -43 -18h-3zM605 741c0 6 3.33301 9.00195 10 9.00195c6 0 9 -3 9 -9v-447c0 -100.667 -22.667 -176.334 -68 -227.001s-113.333 -76 -204 -76
c-181.333 0 -272 99.333 -272 298v400c0 16.667 6 31 18 43s26.333 18 43 18h6c16.667 0 31 -6 43 -18s18 -26.333 18 -43v-377c0 -100.667 12 -176.334 36 -227.001s60 -76 108 -76c168.667 0 253 96.333 253 289v443z" />
    <glyph glyph-name="Yacute" unicode="&#xdd;" horiz-adv-x="600" 
d="M304 830c-14 0 -24.5 5.00098 -31.5 15.001s-8.5 21.667 -4.5 35l22 59c3.33301 10.667 10.833 20.167 22.5 28.5s23.167 12.5 34.5 12.5h32c17.333 0 29.666 -6.83301 36.999 -20.5s6.33301 -27.834 -3 -42.501l-39 -59c-4 -6.66699 -11.667 -13 -23 -19
s-20.666 -9 -27.999 -9h-19zM133 750.001c3.33301 0 6.83496 -1.16602 10.502 -3.49902s6.16699 -4.83301 7.5 -7.5l8 -14c2.66699 -4.66699 5 -9 7 -13c2.66699 -4.66699 5 -9 7 -13l174 -315c2.66699 -4.66699 7 -7 13 -7c5.33301 0.666992 9.33301 3.33398 12 8.00098
l179 328l11.5 21c5 9.33301 7.83301 14.666 8.5 15.999c1.33301 2 2.66602 2.5 3.99902 1.5s3.33301 -1.5 6 -1.5c6 0 7.33301 -2.66699 4 -8l-196 -357c-1.33301 -2 -3 -7 -5 -15s-3 -13 -3 -15v-294c0 -16.667 -6 -31 -18 -43s-26.333 -18 -43 -18h-6
c-16.667 0 -31 6 -43 18s-18 26.333 -18 43v253c0 2 -1 7 -3 15s-3.66699 13 -5 15l-200 356l-4 8c-2 2.66699 -3.83301 5.66699 -5.5 9s-3.5 6.66602 -5.5 9.99902l-6 12c-2 2.66699 -2.33301 5.16699 -1 7.5s3.66602 3.5 6.99902 3.5h103z" />
    <glyph glyph-name="Thorn" unicode="&#xde;" horiz-adv-x="624" 
d="M215 61c0 -16.667 -6 -30.999 -18 -42.999s-26.333 -18 -43 -18h-6c-16.667 0 -31 6 -43 18s-18 26.333 -18 43v628c0 16.667 6 31 18 43s26.333 18 43 18h6c16.667 0 31 -6 43 -18s18 -26.333 18 -43v-33c0 -16 5.33301 -29.333 16 -40s24 -16 40 -16h55
c175.333 0 263 -75 263 -225c0 -74.667 -22 -130.834 -66 -168.501s-109.667 -56.5 -197 -56.5h-55c-16 0 -29.333 -5.33301 -40 -16s-16 -23.667 -16 -39v-34zM215 221.001c0 -15.333 5.5 -28.5 16.5 -39.5s24.167 -16.5 39.5 -16.5h56c89.333 0 134 70 134 210
s-45.333 210 -136 210h-55c-15.333 0 -28.333 -5.33301 -39 -16s-16 -23.667 -16 -39v-309z" />
    <glyph glyph-name="agrave" unicode="&#xe0;" 
d="M257 600c-7.33301 0 -16.666 2.99902 -27.999 8.99902s-19 12.333 -23 19l-39 59c-9.33301 14.667 -10.333 28.834 -3 42.501s19.666 20.5 36.999 20.5h32c11.333 0 22.833 -4.16699 34.5 -12.5s19.167 -17.833 22.5 -28.5l22 -59c4 -13.333 2.5 -25 -4.5 -35
s-17.167 -15 -30.5 -15h-20zM85 380.999c-5.33301 1.33301 -7.33301 4.33203 -6 8.99902c15.333 42 40.833 75.667 76.5 101s75.834 38 120.501 38c30 0 57.167 -3.5 81.5 -10.5s45.166 -18.333 62.499 -34s30.833 -35.667 40.5 -60s14.5 -53.833 14.5 -88.5v-226
c0 -9.33301 1 -15.666 3 -18.999s8.33301 -5.33301 19 -6c6 0 11.333 -2.16699 16 -6.5s7 -9.16602 7 -14.499v-21c0 -12 -4 -22.167 -12 -30.5s-18 -12.5 -30 -12.5c-28 0.666992 -50 2.16699 -66 4.5s-27.833 7.33301 -35.5 15s-12.334 18.667 -14.001 33
s-2.5 33.5 -2.5 57.5v8h-0.5c-0.333008 0 -0.5 -0.333008 -0.5 -1c-10 -48 -27.833 -81 -53.5 -99s-57.167 -27 -94.5 -27c-61.333 0 -105.166 9.66699 -131.499 29s-39.5 44.666 -39.5 75.999c0 44.667 15.5 80.667 46.5 108s72.5 41 124.5 41
c22 0 42.167 2.16699 60.5 6.5s34 11.833 47 22.5s23.167 25 30.5 43s11 40.667 11 68c0 47.333 -7.66699 80.833 -23 100.5s-35.666 29.5 -60.999 29.5c-40.667 0 -77.334 -12 -110.001 -36s-56.334 -55.667 -71.001 -95c-1.33301 -4 -4.66602 -5 -9.99902 -3zM360 281.998
c0 2.66699 -1.83496 4.5 -5.50195 5.5s-6.16699 0.5 -7.5 -1.5c-12.667 -20 -29.667 -33.667 -51 -41s-46 -11 -74 -11c-20 0 -36.167 -12.167 -48.5 -36.5s-18.5 -56.5 -18.5 -96.5c0 -30 4.66699 -53.833 14 -71.5s25 -26.5 47 -26.5c20 0 38.333 2.66699 55 8
s31.334 14.5 44.001 27.5s22.834 30.167 30.501 51.5s12.5 48.333 14.5 81v111z" />
    <glyph glyph-name="aacute" unicode="&#xe1;" 
d="M277 600c-14 0 -24.6689 5.00098 -32.002 15.001s-8.66602 21.667 -3.99902 35l21 59c3.33301 10.667 11 20.167 23 28.5s23.667 12.5 35 12.5h31c17.333 0 29.833 -6.83301 37.5 -20.5s6.5 -27.834 -3.5 -42.501l-38 -59c-4 -6.66699 -11.667 -13 -23 -19
s-20.666 -9 -27.999 -9h-19zM84.998 381.001c-5.33301 1.33301 -7.33301 4.33203 -6 8.99902c15.333 42 40.833 75.667 76.5 101s75.834 38 120.501 38c30 0 57.167 -3.5 81.5 -10.5s45.166 -18.333 62.499 -34s30.833 -35.667 40.5 -60s14.5 -53.833 14.5 -88.5v-226
c0 -9.33301 1 -15.666 3 -18.999s8.33301 -5.33301 19 -6c6 0 11.333 -2.16699 16 -6.5s7 -9.16602 7 -14.499v-21c0 -12 -4 -22.167 -12 -30.5s-18 -12.5 -30 -12.5c-28 0.666992 -50 2.16699 -66 4.5s-27.833 7.33301 -35.5 15s-12.334 18.667 -14.001 33
s-2.5 33.5 -2.5 57.5v8h-0.5c-0.333008 0 -0.5 -0.333008 -0.5 -1c-10 -48 -27.833 -81 -53.5 -99s-57.167 -27 -94.5 -27c-61.333 0 -105.166 9.66699 -131.499 29s-39.5 44.666 -39.5 75.999c0 44.667 15.5 80.667 46.5 108s72.5 41 124.5 41
c22 0 42.167 2.16699 60.5 6.5s34 11.833 47 22.5s23.167 25 30.5 43s11 40.667 11 68c0 47.333 -7.66699 80.833 -23 100.5s-35.666 29.5 -60.999 29.5c-40.667 0 -77.334 -12 -110.001 -36s-56.334 -55.667 -71.001 -95c-1.33301 -4 -4.66602 -5 -9.99902 -3zM359.998 282
c0 2.66699 -1.83496 4.5 -5.50195 5.5s-6.16699 0.5 -7.5 -1.5c-12.667 -20 -29.667 -33.667 -51 -41s-46 -11 -74 -11c-20 0 -36.167 -12.167 -48.5 -36.5s-18.5 -56.5 -18.5 -96.5c0 -30 4.66699 -53.833 14 -71.5s25 -26.5 47 -26.5c20 0 38.333 2.66699 55 8
s31.334 14.5 44.001 27.5s22.834 30.167 30.501 51.5s12.5 48.333 14.5 81v111z" />
    <glyph glyph-name="acircumflex" unicode="&#xe2;" 
d="M285 657c-4.66699 2.66699 -7.66797 3.5 -9.00098 2.5s-3.66602 -3.16699 -6.99902 -6.5l-40 -37c-3.33301 -2.66699 -10 -6 -20 -10s-17.333 -6 -22 -6h-28c-12 0 -20.333 4.66699 -25 14s-3.66699 18.666 3 27.999l63 83c4 6 11.5 11.667 22.5 17s19.833 8 26.5 8h54
c6.66699 0 15.5 -2.66699 26.5 -8s18.5 -11 22.5 -17l63 -83c6.66699 -9.33301 7.66699 -18.666 3 -27.999s-12.667 -14 -24 -14h-22h-31c-6.66699 8.66699 -13.334 16.667 -20.001 24c-6 7.33301 -12.167 14 -18.5 20s-12.166 10.333 -17.499 13zM84.999 381
c-5.33301 1.33301 -7.33301 4.33203 -6 8.99902c15.333 42 40.833 75.667 76.5 101s75.834 38 120.501 38c30 0 57.167 -3.5 81.5 -10.5s45.166 -18.333 62.499 -34s30.833 -35.667 40.5 -60s14.5 -53.833 14.5 -88.5v-226c0 -9.33301 1 -15.666 3 -18.999
s8.33301 -5.33301 19 -6c6 0 11.333 -2.16699 16 -6.5s7 -9.16602 7 -14.499v-21c0 -12 -4 -22.167 -12 -30.5s-18 -12.5 -30 -12.5c-28 0.666992 -50 2.16699 -66 4.5s-27.833 7.33301 -35.5 15s-12.334 18.667 -14.001 33s-2.5 33.5 -2.5 57.5v8h-0.5
c-0.333008 0 -0.5 -0.333008 -0.5 -1c-10 -48 -27.833 -81 -53.5 -99s-57.167 -27 -94.5 -27c-61.333 0 -105.166 9.66699 -131.499 29s-39.5 44.666 -39.5 75.999c0 44.667 15.5 80.667 46.5 108s72.5 41 124.5 41c22 0 42.167 2.16699 60.5 6.5s34 11.833 47 22.5
s23.167 25 30.5 43s11 40.667 11 68c0 47.333 -7.66699 80.833 -23 100.5s-35.666 29.5 -60.999 29.5c-40.667 0 -77.334 -12 -110.001 -36s-56.334 -55.667 -71.001 -95c-1.33301 -4 -4.66602 -5 -9.99902 -3zM359.999 281.999c0 2.66699 -1.83496 4.5 -5.50195 5.5
s-6.16699 0.5 -7.5 -1.5c-12.667 -20 -29.667 -33.667 -51 -41s-46 -11 -74 -11c-20 0 -36.167 -12.167 -48.5 -36.5s-18.5 -56.5 -18.5 -96.5c0 -30 4.66699 -53.833 14 -71.5s25 -26.5 47 -26.5c20 0 38.333 2.66699 55 8s31.334 14.5 44.001 27.5
s22.834 30.167 30.501 51.5s12.5 48.333 14.5 81v111z" />
    <glyph glyph-name="atilde" unicode="&#xe3;" 
d="M197 621c-0.666992 -5.33301 -3.16504 -10.1602 -7.49805 -14.4932s-8.83301 -6.5 -13.5 -6.5l-22 1c-13.333 0 -23.666 3.5 -30.999 10.5s-10 17.167 -8 30.5c4 30.667 12.333 56.167 25 76.5s29 33.166 49 38.499c14 4 21.667 -2.33301 23 -19l1 -12v0
c-0.666992 9.33301 -1.33398 17.166 -2.00098 23.499s-1.33398 9.5 -2.00098 9.5c12.667 0 26.334 -3.83301 41.001 -11.5s28 -16.334 40 -26.001s22.333 -18.5 31 -26.5s13.334 -12.667 14.001 -14c2.66699 -2.66699 3.5 -3.5 2.5 -2.5s0.166992 2.5 3.5 4.5
c7.33301 5.33301 12 20.666 14 45.999c0.666992 5.33301 3.16699 10.166 7.5 14.499s9.16602 6.5 14.499 6.5h22c13.333 0 23.666 -3.5 30.999 -10.5s10 -17.167 8 -30.5c-3.33301 -28.667 -10.833 -52.667 -22.5 -72s-26.167 -32.666 -43.5 -39.999
c-10.667 -4.66699 -18.334 -4.83398 -23.001 -0.500977s-7.66699 12.166 -9 23.499l-1 16l-4 45c1.33301 -16.667 2.33301 -31.667 3 -45c1.33301 -12 2.33301 -22.5 3 -31.5s1.33398 -13.5 2.00098 -13.5c-13.333 0 -25.833 4 -37.5 12s-22.667 17 -33 27l-29 27
c-9 8 -17.833 12 -26.5 12c-5.33301 0 -9.83301 -4.33301 -13.5 -13s-5.83398 -20.334 -6.50098 -35.001zM86.002 382.006c-5.33301 1.33301 -7.33301 4.33203 -6 8.99902c15.333 42 40.833 75.667 76.5 101s75.834 38 120.501 38c30 0 57.167 -3.5 81.5 -10.5
s45.166 -18.333 62.499 -34s30.833 -35.667 40.5 -60s14.5 -53.833 14.5 -88.5v-226c0 -9.33301 1 -15.666 3 -18.999s8.33301 -5.33301 19 -6c6 0 11.333 -2.16699 16 -6.5s7 -9.16602 7 -14.499v-21c0 -12 -4 -22.167 -12 -30.5s-18 -12.5 -30 -12.5
c-28 0.666992 -50 2.16699 -66 4.5s-27.833 7.33301 -35.5 15s-12.334 18.667 -14.001 33s-2.5 33.5 -2.5 57.5v8h-0.5c-0.333008 0 -0.5 -0.333008 -0.5 -1c-10 -48 -27.833 -81 -53.5 -99s-57.167 -27 -94.5 -27c-61.333 0 -105.166 9.66699 -131.499 29
s-39.5 44.666 -39.5 75.999c0 44.667 15.5 80.667 46.5 108s72.5 41 124.5 41c22 0 42.167 2.16699 60.5 6.5s34 11.833 47 22.5s23.167 25 30.5 43s11 40.667 11 68c0 47.333 -7.66699 80.833 -23 100.5s-35.666 29.5 -60.999 29.5c-40.667 0 -77.334 -12 -110.001 -36
s-56.334 -55.667 -71.001 -95c-1.33301 -4 -4.66602 -5 -9.99902 -3zM361.002 283.005c0 2.66699 -1.83496 4.5 -5.50195 5.5s-6.16699 0.5 -7.5 -1.5c-12.667 -20 -29.667 -33.667 -51 -41s-46 -11 -74 -11c-20 0 -36.167 -12.167 -48.5 -36.5s-18.5 -56.5 -18.5 -96.5
c0 -30 4.66699 -53.833 14 -71.5s25 -26.5 47 -26.5c20 0 38.333 2.66699 55 8s31.334 14.5 44.001 27.5s22.834 30.167 30.501 51.5s12.5 48.333 14.5 81v111z" />
    <glyph glyph-name="adieresis" unicode="&#xe4;" 
d="M385 600c-16.667 0 -31 6 -43 18s-18 26.333 -18 43v3c0 16.667 6 31 18 43s26.333 18 43 18h3c16.667 0 31 -6 43 -18s18 -26.333 18 -43v-3c0 -16.667 -6 -31 -18 -43s-26.333 -18 -43 -18h-3zM165 600c-16.667 0 -31 6 -43 18s-18 26.333 -18 43v3
c0 16.667 6 31 18 43s26.333 18 43 18h3c16.667 0 31 -6 43 -18s18 -26.333 18 -43v-3c0 -16.667 -6 -31 -18 -43s-26.333 -18 -43 -18h-3zM85 381c-5.33301 1.33301 -7.33301 4.33203 -6 8.99902c15.333 42 40.833 75.667 76.5 101s75.834 38 120.501 38
c30 0 57.167 -3.5 81.5 -10.5s45.166 -18.333 62.499 -34s30.833 -35.667 40.5 -60s14.5 -53.833 14.5 -88.5v-226c0 -9.33301 1 -15.666 3 -18.999s8.33301 -5.33301 19 -6c6 0 11.333 -2.16699 16 -6.5s7 -9.16602 7 -14.499v-21c0 -12 -4 -22.167 -12 -30.5
s-18 -12.5 -30 -12.5c-28 0.666992 -50 2.16699 -66 4.5s-27.833 7.33301 -35.5 15s-12.334 18.667 -14.001 33s-2.5 33.5 -2.5 57.5v8h-0.5c-0.333008 0 -0.5 -0.333008 -0.5 -1c-10 -48 -27.833 -81 -53.5 -99s-57.167 -27 -94.5 -27
c-61.333 0 -105.166 9.66699 -131.499 29s-39.5 44.666 -39.5 75.999c0 44.667 15.5 80.667 46.5 108s72.5 41 124.5 41c22 0 42.167 2.16699 60.5 6.5s34 11.833 47 22.5s23.167 25 30.5 43s11 40.667 11 68c0 47.333 -7.66699 80.833 -23 100.5s-35.666 29.5 -60.999 29.5
c-40.667 0 -77.334 -12 -110.001 -36s-56.334 -55.667 -71.001 -95c-1.33301 -4 -4.66602 -5 -9.99902 -3zM360 281.999c0 2.66699 -1.83496 4.5 -5.50195 5.5s-6.16699 0.5 -7.5 -1.5c-12.667 -20 -29.667 -33.667 -51 -41s-46 -11 -74 -11
c-20 0 -36.167 -12.167 -48.5 -36.5s-18.5 -56.5 -18.5 -96.5c0 -30 4.66699 -53.833 14 -71.5s25 -26.5 47 -26.5c20 0 38.333 2.66699 55 8s31.334 14.5 44.001 27.5s22.834 30.167 30.501 51.5s12.5 48.333 14.5 81v111z" />
    <glyph glyph-name="aring" unicode="&#xe5;" 
d="M248 685c0 -21.333 9.33301 -32 28 -32c19.333 0 29 10.667 29 32c0 20.667 -9.66699 31 -29 31c-18.667 0 -28 -10.333 -28 -31zM191 685c0 26.667 7.33301 47.334 22 62.001s35.667 22 63 22s48.5 -7.33301 63.5 -22s22.5 -35.334 22.5 -62.001
c0 -56.667 -28.667 -85 -86 -85c-56.667 0 -85 28.333 -85 85zM85 381c-5.33301 1.33301 -7.33301 4.33203 -6 8.99902c15.333 42 40.833 75.667 76.5 101s75.834 38 120.501 38c30 0 57.167 -3.5 81.5 -10.5s45.166 -18.333 62.499 -34s30.833 -35.667 40.5 -60
s14.5 -53.833 14.5 -88.5v-226c0 -9.33301 1 -15.666 3 -18.999s8.33301 -5.33301 19 -6c6 0 11.333 -2.16699 16 -6.5s7 -9.16602 7 -14.499v-21c0 -12 -4 -22.167 -12 -30.5s-18 -12.5 -30 -12.5c-28 0.666992 -50 2.16699 -66 4.5s-27.833 7.33301 -35.5 15
s-12.334 18.667 -14.001 33s-2.5 33.5 -2.5 57.5v8h-0.5c-0.333008 0 -0.5 -0.333008 -0.5 -1c-10 -48 -27.833 -81 -53.5 -99s-57.167 -27 -94.5 -27c-61.333 0 -105.166 9.66699 -131.499 29s-39.5 44.666 -39.5 75.999c0 44.667 15.5 80.667 46.5 108s72.5 41 124.5 41
c22 0 42.167 2.16699 60.5 6.5s34 11.833 47 22.5s23.167 25 30.5 43s11 40.667 11 68c0 47.333 -7.66699 80.833 -23 100.5s-35.666 29.5 -60.999 29.5c-40.667 0 -77.334 -12 -110.001 -36s-56.334 -55.667 -71.001 -95c-1.33301 -4 -4.66602 -5 -9.99902 -3zM360 281.999
c0 2.66699 -1.83496 4.5 -5.50195 5.5s-6.16699 0.5 -7.5 -1.5c-12.667 -20 -29.667 -33.667 -51 -41s-46 -11 -74 -11c-20 0 -36.167 -12.167 -48.5 -36.5s-18.5 -56.5 -18.5 -96.5c0 -30 4.66699 -53.833 14 -71.5s25 -26.5 47 -26.5c20 0 38.333 2.66699 55 8
s31.334 14.5 44.001 27.5s22.834 30.167 30.501 51.5s12.5 48.333 14.5 81v111z" />
    <glyph glyph-name="ccedilla" unicode="&#xe7;" horiz-adv-x="532" 
d="M228 -105c-2 0.666992 -2.66992 1.66699 -2.00293 3l24 47c5.33301 12 4 24.5 -4 37.5s-18 21.5 -30 25.5c-51.333 16 -91.5 44.5 -120.5 85.5s-43.5 96.5 -43.5 166.5c0 46.667 6.66699 86.834 20 120.501s32.333 61.5 57 83.5s54.334 38.333 89.001 49s73 16 115 16
c32.667 0 63 -13.833 91 -41.5s53.333 -64.5 76 -110.5c0.666992 -1.33301 1.16699 -3 1.5 -5s-0.166992 -3.33301 -1.5 -4l-3 -2l-5 -2c-1.33301 -0.666992 -2.83301 -0.333984 -4.5 0.999023s-2.5 2.66602 -2.5 3.99902c-22.667 44 -46.667 79.5 -72 106.5
s-52.333 40.5 -81 40.5c-46.667 0 -84.334 -20.5 -113.001 -61.5s-43 -105.833 -43 -194.5c0 -88 14.333 -152.5 43 -193.5s66.334 -61.5 113.001 -61.5c30.667 0 59.834 11.833 87.501 35.5s49.5 55.167 65.5 94.5c1.33301 4 4.66602 4.66699 9.99902 2s7.33301 -6 6 -10
c-16.667 -41.333 -40.167 -74.333 -70.5 -99s-63.166 -37 -98.499 -37c-16 0 -31 0.666992 -45 2c-6 0.666992 -10.333 -1.66602 -13 -6.99902l-37 -78v-1.5c0 -0.333008 0.333008 -0.5 1 -0.5c6.66699 6.66699 15.667 10 27 10c30 0 54 -5.5 72 -16.5s27 -25.167 27 -42.5
c0 -32 -9.16699 -57.833 -27.5 -77.5s-42.5 -29.5 -72.5 -29.5c-15.333 0 -26.833 6.83301 -34.5 20.5s-10.5 31.834 -8.5 54.501c0 2 1 4 3 6s3 1.66699 3 -1c0 -7.33301 3.16699 -13.333 9.5 -18s14.5 -7 24.5 -7c11.333 0 20.5 4.83301 27.5 14.5s10.5 22.167 10.5 37.5
s-3.16699 27.666 -9.5 36.999s-14.833 14 -25.5 14c-16 0 -26.667 -3.66699 -32 -11c-1.33301 -2 -2.66602 -2.66699 -3.99902 -2z" />
    <glyph glyph-name="egrave" unicode="&#xe8;" horiz-adv-x="538" 
d="M268 600c-7.33301 0 -16.666 2.99902 -27.999 8.99902s-19 12.333 -23 19l-39 59c-9.33301 14.667 -10.333 28.834 -3 42.501s19.666 20.5 36.999 20.5h32c11.333 0 22.833 -4.16699 34.5 -12.5s19.167 -17.833 22.5 -28.5l22 -59c4 -13.333 2.5 -25 -4.5 -35
s-17.167 -15 -30.5 -15h-20zM490 133.999c1.33301 4 4.66699 5.00098 10 3.00098c4.66699 -2.66699 6.33398 -6 5.00098 -10c-6 -20.667 -16 -39.334 -30 -56.001s-31 -31 -51 -43s-42.333 -21.167 -67 -27.5s-51 -9.5 -79 -9.5c-34 0 -65.167 5.33301 -93.5 16
s-52.5 27 -72.5 49s-35.5 49.833 -46.5 83.5s-16.5 73.834 -16.5 120.501s5.66699 86.834 17 120.501s27.333 61.5 48 83.5s45.667 38.333 75 49s61.666 16 96.999 16c37.333 0 69.833 -5.16699 97.5 -15.5s51 -25 70 -44s33.833 -42 44.5 -69s18 -57.167 22 -90.5
c2 -18.667 -2.5 -33.334 -13.5 -44.001s-25.833 -16 -44.5 -16h-226c-18 0 -32.833 -5.33301 -44.5 -16s-16.5 -25 -14.5 -43c4.66699 -64 16.167 -111 34.5 -141s40.833 -45 67.5 -45c52 0 97.167 11.667 135.5 35s63.5 54.666 75.5 93.999zM346.001 262
c18.667 0 33.502 6.16602 44.502 18.499s15.833 27.833 14.5 46.5c-5.33301 58.667 -17.333 104.834 -36 138.501s-46.334 50.5 -83.001 50.5c-29.333 0 -53.833 -15.333 -73.5 -46s-31.834 -79.667 -36.501 -147c-1.33301 -18 3.66699 -32.667 15 -44s26 -17 44 -17h111z
" />
    <glyph glyph-name="eacute" unicode="&#xe9;" horiz-adv-x="538" 
d="M288 600c-14 0 -24.6689 5.00098 -32.002 15.001s-8.66602 21.667 -3.99902 35l21 59c3.33301 10.667 11 20.167 23 28.5s23.667 12.5 35 12.5h31c17.333 0 29.833 -6.83301 37.5 -20.5s6.5 -27.834 -3.5 -42.501l-38 -59c-4 -6.66699 -11.667 -13 -23 -19
s-20.666 -9 -27.999 -9h-19zM489.998 134.001c1.33301 4 4.66699 5.00098 10 3.00098c4.66699 -2.66699 6.33398 -6 5.00098 -10c-6 -20.667 -16 -39.334 -30 -56.001s-31 -31 -51 -43s-42.333 -21.167 -67 -27.5s-51 -9.5 -79 -9.5c-34 0 -65.167 5.33301 -93.5 16
s-52.5 27 -72.5 49s-35.5 49.833 -46.5 83.5s-16.5 73.834 -16.5 120.501s5.66699 86.834 17 120.501s27.333 61.5 48 83.5s45.667 38.333 75 49s61.666 16 96.999 16c37.333 0 69.833 -5.16699 97.5 -15.5s51 -25 70 -44s33.833 -42 44.5 -69s18 -57.167 22 -90.5
c2 -18.667 -2.5 -33.334 -13.5 -44.001s-25.833 -16 -44.5 -16h-226c-18 0 -32.833 -5.33301 -44.5 -16s-16.5 -25 -14.5 -43c4.66699 -64 16.167 -111 34.5 -141s40.833 -45 67.5 -45c52 0 97.167 11.667 135.5 35s63.5 54.666 75.5 93.999zM345.999 262.002
c18.667 0 33.502 6.16602 44.502 18.499s15.833 27.833 14.5 46.5c-5.33301 58.667 -17.333 104.834 -36 138.501s-46.334 50.5 -83.001 50.5c-29.333 0 -53.833 -15.333 -73.5 -46s-31.834 -79.667 -36.501 -147c-1.33301 -18 3.66699 -32.667 15 -44s26 -17 44 -17h111z
" />
    <glyph glyph-name="ecircumflex" unicode="&#xea;" horiz-adv-x="538" 
d="M296 657c-4.66699 2.66699 -7.66797 3.5 -9.00098 2.5s-3.66602 -3.16699 -6.99902 -6.5l-40 -37c-3.33301 -2.66699 -10 -6 -20 -10s-17.333 -6 -22 -6h-28c-12 0 -20.333 4.66699 -25 14s-3.66699 18.666 3 27.999l63 83c4 6 11.5 11.667 22.5 17s19.833 8 26.5 8h54
c6.66699 0 15.5 -2.66699 26.5 -8s18.5 -11 22.5 -17l63 -83c6.66699 -9.33301 7.66699 -18.666 3 -27.999s-12.667 -14 -24 -14h-22h-31c-6.66699 8.66699 -13.334 16.667 -20.001 24c-6 7.33301 -12.167 14 -18.5 20s-12.166 10.333 -17.499 13zM489.999 134
c1.33301 4 4.66699 5.00098 10 3.00098c4.66699 -2.66699 6.33398 -6 5.00098 -10c-6 -20.667 -16 -39.334 -30 -56.001s-31 -31 -51 -43s-42.333 -21.167 -67 -27.5s-51 -9.5 -79 -9.5c-34 0 -65.167 5.33301 -93.5 16s-52.5 27 -72.5 49s-35.5 49.833 -46.5 83.5
s-16.5 73.834 -16.5 120.501s5.66699 86.834 17 120.501s27.333 61.5 48 83.5s45.667 38.333 75 49s61.666 16 96.999 16c37.333 0 69.833 -5.16699 97.5 -15.5s51 -25 70 -44s33.833 -42 44.5 -69s18 -57.167 22 -90.5c2 -18.667 -2.5 -33.334 -13.5 -44.001
s-25.833 -16 -44.5 -16h-226c-18 0 -32.833 -5.33301 -44.5 -16s-16.5 -25 -14.5 -43c4.66699 -64 16.167 -111 34.5 -141s40.833 -45 67.5 -45c52 0 97.167 11.667 135.5 35s63.5 54.666 75.5 93.999zM346 262.001c18.667 0 33.502 6.16602 44.502 18.499
s15.833 27.833 14.5 46.5c-5.33301 58.667 -17.333 104.834 -36 138.501s-46.334 50.5 -83.001 50.5c-29.333 0 -53.833 -15.333 -73.5 -46s-31.834 -79.667 -36.501 -147c-1.33301 -18 3.66699 -32.667 15 -44s26 -17 44 -17h111z" />
    <glyph glyph-name="edieresis" unicode="&#xeb;" horiz-adv-x="538" 
d="M366 600c-16.667 0 -31 6 -43 18s-18 26.333 -18 43v3c0 16.667 6 31 18 43s26.333 18 43 18h3c16.667 0 31 -6 43 -18s18 -26.333 18 -43v-3c0 -16.667 -6 -31 -18 -43s-26.333 -18 -43 -18h-3zM205 600c-16.667 0 -31 6 -43 18s-18 26.333 -18 43v3
c0 16.667 6 31 18 43s26.333 18 43 18h3c16.667 0 31 -6 43 -18s18 -26.333 18 -43v-3c0 -16.667 -6 -31 -18 -43s-26.333 -18 -43 -18h-3zM490 134c1.33301 4 4.66699 5.00098 10 3.00098c4.66699 -2.66699 6.33398 -6 5.00098 -10c-6 -20.667 -16 -39.334 -30 -56.001
s-31 -31 -51 -43s-42.333 -21.167 -67 -27.5s-51 -9.5 -79 -9.5c-34 0 -65.167 5.33301 -93.5 16s-52.5 27 -72.5 49s-35.5 49.833 -46.5 83.5s-16.5 73.834 -16.5 120.501s5.66699 86.834 17 120.501s27.333 61.5 48 83.5s45.667 38.333 75 49s61.666 16 96.999 16
c37.333 0 69.833 -5.16699 97.5 -15.5s51 -25 70 -44s33.833 -42 44.5 -69s18 -57.167 22 -90.5c2 -18.667 -2.5 -33.334 -13.5 -44.001s-25.833 -16 -44.5 -16h-226c-18 0 -32.833 -5.33301 -44.5 -16s-16.5 -25 -14.5 -43c4.66699 -64 16.167 -111 34.5 -141
s40.833 -45 67.5 -45c52 0 97.167 11.667 135.5 35s63.5 54.666 75.5 93.999zM346.001 262.001c18.667 0 33.502 6.16602 44.502 18.499s15.833 27.833 14.5 46.5c-5.33301 58.667 -17.333 104.834 -36 138.501s-46.334 50.5 -83.001 50.5
c-29.333 0 -53.833 -15.333 -73.5 -46s-31.834 -79.667 -36.501 -147c-1.33301 -18 3.66699 -32.667 15 -44s26 -17 44 -17h111z" />
    <glyph glyph-name="igrave" unicode="&#xec;" horiz-adv-x="295" 
d="M148 600c-7.33301 0 -16.666 2.99902 -27.999 8.99902s-19 12.333 -23 19l-39 59c-9.33301 14.667 -10.333 28.834 -3 42.501s19.666 20.5 36.999 20.5h32c11.333 0 22.833 -4.16699 34.5 -12.5s19.167 -17.833 22.5 -28.5l22 -59c4 -13.333 2.5 -25 -4.5 -35
s-17.167 -15 -30.5 -15h-20zM168 -0.000976562c-16 0 -29.667 5.66699 -41 17s-17 25 -17 41v405c0 15.333 5.66699 28.666 17 39.999s25 17 41 17c15.333 0 28.666 -5.66699 39.999 -17s17 -24.666 17 -39.999v-405c0 -16 -5.66699 -29.667 -17 -41
s-24.666 -17 -39.999 -17z" />
    <glyph glyph-name="iacute" unicode="&#xed;" horiz-adv-x="295" 
d="M168 600c-14 0 -24.6689 5.00098 -32.002 15.001s-8.66602 21.667 -3.99902 35l21 59c3.33301 10.667 11 20.167 23 28.5s23.667 12.5 35 12.5h31c17.333 0 29.833 -6.83301 37.5 -20.5s6.5 -27.834 -3.5 -42.501l-38 -59c-4 -6.66699 -11.667 -13 -23 -19
s-20.666 -9 -27.999 -9h-19zM167.998 0.000976562c-16 0 -29.667 5.66699 -41 17s-17 25 -17 41v405c0 15.333 5.66699 28.666 17 39.999s25 17 41 17c15.333 0 28.666 -5.66699 39.999 -17s17 -24.666 17 -39.999v-405c0 -16 -5.66699 -29.667 -17 -41
s-24.666 -17 -39.999 -17z" />
    <glyph glyph-name="icircumflex" unicode="&#xee;" horiz-adv-x="295" 
d="M176 657c-4.66699 2.66699 -7.66797 3.5 -9.00098 2.5s-3.66602 -3.16699 -6.99902 -6.5l-40 -37c-3.33301 -2.66699 -10 -6 -20 -10s-17.333 -6 -22 -6h-28c-12 0 -20.333 4.66699 -25 14s-3.66699 18.666 3 27.999l63 83c4 6 11.5 11.667 22.5 17s19.833 8 26.5 8h54
c6.66699 0 15.5 -2.66699 26.5 -8s18.5 -11 22.5 -17l63 -83c6.66699 -9.33301 7.66699 -18.666 3 -27.999s-12.667 -14 -24 -14h-22h-31c-6.66699 8.66699 -13.334 16.667 -20.001 24c-6 7.33301 -12.167 14 -18.5 20s-12.166 10.333 -17.499 13zM167.999 0
c-16 0 -29.667 5.66699 -41 17s-17 25 -17 41v405c0 15.333 5.66699 28.666 17 39.999s25 17 41 17c15.333 0 28.666 -5.66699 39.999 -17s17 -24.666 17 -39.999v-405c0 -16 -5.66699 -29.667 -17 -41s-24.666 -17 -39.999 -17z" />
    <glyph glyph-name="idieresis" unicode="&#xef;" horiz-adv-x="295" 
d="M276 600c-16.667 0 -31 6 -43 18s-18 26.333 -18 43v3c0 16.667 6 31 18 43s26.333 18 43 18h3c16.667 0 31 -6 43 -18s18 -26.333 18 -43v-3c0 -16.667 -6 -31 -18 -43s-26.333 -18 -43 -18h-3zM56 600c-16.667 0 -31 6 -43 18s-18 26.333 -18 43v3c0 16.667 6 31 18 43
s26.333 18 43 18h3c16.667 0 31 -6 43 -18s18 -26.333 18 -43v-3c0 -16.667 -6 -31 -18 -43s-26.333 -18 -43 -18h-3zM168 0c-16 0 -29.667 5.66699 -41 17s-17 25 -17 41v405c0 15.333 5.66699 28.666 17 39.999s25 17 41 17c15.333 0 28.666 -5.66699 39.999 -17
s17 -24.666 17 -39.999v-405c0 -16 -5.66699 -29.667 -17 -41s-24.666 -17 -39.999 -17z" />
    <glyph glyph-name="ntilde" unicode="&#xf1;" 
d="M199 621c-0.666992 -5.33301 -3.16504 -10.1602 -7.49805 -14.4932s-8.83301 -6.5 -13.5 -6.5l-22 1c-13.333 0 -23.666 3.5 -30.999 10.5s-10 17.167 -8 30.5c4 30.667 12.333 56.167 25 76.5s29 33.166 49 38.499c14 4 21.667 -2.33301 23 -19l1 -12v0
c-0.666992 9.33301 -1.33398 17.166 -2.00098 23.499s-1.33398 9.5 -2.00098 9.5c12.667 0 26.334 -3.83301 41.001 -11.5s28 -16.334 40 -26.001s22.333 -18.5 31 -26.5s13.334 -12.667 14.001 -14c2.66699 -2.66699 3.5 -3.5 2.5 -2.5s0.166992 2.5 3.5 4.5
c7.33301 5.33301 12 20.666 14 45.999c0.666992 5.33301 3.16699 10.166 7.5 14.499s9.16602 6.5 14.499 6.5h22c13.333 0 23.666 -3.5 30.999 -10.5s10 -17.167 8 -30.5c-3.33301 -28.667 -10.833 -52.667 -22.5 -72s-26.167 -32.666 -43.5 -39.999
c-10.667 -4.66699 -18.334 -4.83398 -23.001 -0.500977s-7.66699 12.166 -9 23.499l-1 16l-4 45c1.33301 -16.667 2.33301 -31.667 3 -45c1.33301 -12 2.33301 -22.5 3 -31.5s1.33398 -13.5 2.00098 -13.5c-13.333 0 -25.833 4 -37.5 12s-22.667 17 -33 27l-29 27
c-9 8 -17.833 12 -26.5 12c-5.33301 0 -9.83301 -4.33301 -13.5 -13s-5.83398 -20.334 -6.50098 -35.001zM486.002 59.0059c0 -16 -5.66797 -29.665 -17.001 -40.998s-24.666 -17 -39.999 -17c-16 -0.666992 -29.667 4.66602 -41 15.999s-17 25 -17 41v257
c0 64.667 -2.66699 113.167 -8 145.5s-12.333 48.5 -21 48.5c-23.333 0 -44.666 -4.5 -63.999 -13.5s-35.833 -21.833 -49.5 -38.5s-24.167 -36.667 -31.5 -60s-11 -49 -11 -77v-262c0 -16 -5.66699 -29.667 -17 -41s-24.666 -17 -39.999 -17c-16 0 -29.667 5.66699 -41 17
s-17 25 -17 41v405c0 15.333 5.66699 28.666 17 39.999s25 17 41 17c15.333 0 28.666 -5.66699 39.999 -17s17 -24.666 17 -39.999v-36c0 -2.66699 2 -4.33398 6 -5.00098s6.66699 0.333008 8 3c13.333 31.333 32.666 56 57.999 74s55.333 27 90 27
c42 0 75.5 -17.5 100.5 -52.5s37.5 -87.5 37.5 -157.5v-257z" />
    <glyph glyph-name="ograve" unicode="&#xf2;" horiz-adv-x="590" 
d="M276 600c-7.33301 0 -16.666 2.99902 -27.999 8.99902s-19 12.333 -23 19l-39 59c-9.33301 14.667 -10.333 28.834 -3 42.501s19.666 20.5 36.999 20.5h32c11.333 0 22.833 -4.16699 34.5 -12.5s19.167 -17.833 22.5 -28.5l22 -59c4 -13.333 2.5 -25 -4.5 -35
s-17.167 -15 -30.5 -15h-20zM175 259.999c0 -38.667 2.33301 -73.667 7 -105s12 -58.166 22 -80.499s22.5 -39.666 37.5 -51.999s32.833 -18.5 53.5 -18.5c36 0 65 20.5 87 61.5s33 105.833 33 194.5c0 38.667 -2.33301 73.667 -7 105s-12 58.166 -22 80.499
s-22.5 39.666 -37.5 51.999s-32.833 18.5 -53.5 18.5c-36 0 -65 -20.5 -87 -61.5s-33 -105.833 -33 -194.5zM50 259.999c0 46.667 5.83301 86.834 17.5 120.501s28.334 61.5 50.001 83.5s47.5 38.333 77.5 49s63.333 16 100 16c42 0 78.5 -6.5 109.5 -19.5
s56.5 -31.167 76.5 -54.5s34.833 -51.666 44.5 -84.999s14.5 -70 14.5 -110c0 -46.667 -5.83301 -86.834 -17.5 -120.501s-28.334 -61.5 -50.001 -83.5s-47.5 -38.333 -77.5 -49s-63.333 -16 -100 -16c-42 0 -78.5 6.5 -109.5 19.5s-56.5 31.167 -76.5 54.5
s-34.833 51.666 -44.5 84.999s-14.5 70 -14.5 110z" />
    <glyph glyph-name="oacute" unicode="&#xf3;" horiz-adv-x="590" 
d="M296 600c-14 0 -24.6689 5.00098 -32.002 15.001s-8.66602 21.667 -3.99902 35l21 59c3.33301 10.667 11 20.167 23 28.5s23.667 12.5 35 12.5h31c17.333 0 29.833 -6.83301 37.5 -20.5s6.5 -27.834 -3.5 -42.501l-38 -59c-4 -6.66699 -11.667 -13 -23 -19
s-20.666 -9 -27.999 -9h-19zM174.998 260.001c0 -38.667 2.33301 -73.667 7 -105s12 -58.166 22 -80.499s22.5 -39.666 37.5 -51.999s32.833 -18.5 53.5 -18.5c36 0 65 20.5 87 61.5s33 105.833 33 194.5c0 38.667 -2.33301 73.667 -7 105s-12 58.166 -22 80.499
s-22.5 39.666 -37.5 51.999s-32.833 18.5 -53.5 18.5c-36 0 -65 -20.5 -87 -61.5s-33 -105.833 -33 -194.5zM49.998 260.001c0 46.667 5.83301 86.834 17.5 120.501s28.334 61.5 50.001 83.5s47.5 38.333 77.5 49s63.333 16 100 16c42 0 78.5 -6.5 109.5 -19.5
s56.5 -31.167 76.5 -54.5s34.833 -51.666 44.5 -84.999s14.5 -70 14.5 -110c0 -46.667 -5.83301 -86.834 -17.5 -120.501s-28.334 -61.5 -50.001 -83.5s-47.5 -38.333 -77.5 -49s-63.333 -16 -100 -16c-42 0 -78.5 6.5 -109.5 19.5s-56.5 31.167 -76.5 54.5
s-34.833 51.666 -44.5 84.999s-14.5 70 -14.5 110z" />
    <glyph glyph-name="ocircumflex" unicode="&#xf4;" horiz-adv-x="590" 
d="M304 657c-4.66699 2.66699 -7.66797 3.5 -9.00098 2.5s-3.66602 -3.16699 -6.99902 -6.5l-40 -37c-3.33301 -2.66699 -10 -6 -20 -10s-17.333 -6 -22 -6h-28c-12 0 -20.333 4.66699 -25 14s-3.66699 18.666 3 27.999l63 83c4 6 11.5 11.667 22.5 17s19.833 8 26.5 8h54
c6.66699 0 15.5 -2.66699 26.5 -8s18.5 -11 22.5 -17l63 -83c6.66699 -9.33301 7.66699 -18.666 3 -27.999s-12.667 -14 -24 -14h-22h-31c-6.66699 8.66699 -13.334 16.667 -20.001 24c-6 7.33301 -12.167 14 -18.5 20s-12.166 10.333 -17.499 13zM174.999 260
c0 -38.667 2.33301 -73.667 7 -105s12 -58.166 22 -80.499s22.5 -39.666 37.5 -51.999s32.833 -18.5 53.5 -18.5c36 0 65 20.5 87 61.5s33 105.833 33 194.5c0 38.667 -2.33301 73.667 -7 105s-12 58.166 -22 80.499s-22.5 39.666 -37.5 51.999s-32.833 18.5 -53.5 18.5
c-36 0 -65 -20.5 -87 -61.5s-33 -105.833 -33 -194.5zM49.999 260c0 46.667 5.83301 86.834 17.5 120.501s28.334 61.5 50.001 83.5s47.5 38.333 77.5 49s63.333 16 100 16c42 0 78.5 -6.5 109.5 -19.5s56.5 -31.167 76.5 -54.5s34.833 -51.666 44.5 -84.999
s14.5 -70 14.5 -110c0 -46.667 -5.83301 -86.834 -17.5 -120.501s-28.334 -61.5 -50.001 -83.5s-47.5 -38.333 -77.5 -49s-63.333 -16 -100 -16c-42 0 -78.5 6.5 -109.5 19.5s-56.5 31.167 -76.5 54.5s-34.833 51.666 -44.5 84.999s-14.5 70 -14.5 110z" />
    <glyph glyph-name="otilde" unicode="&#xf5;" horiz-adv-x="590" 
d="M216 621c-0.666992 -5.33301 -3.16504 -10.1602 -7.49805 -14.4932s-8.83301 -6.5 -13.5 -6.5l-22 1c-13.333 0 -23.666 3.5 -30.999 10.5s-10 17.167 -8 30.5c4 30.667 12.333 56.167 25 76.5s29 33.166 49 38.499c14 4 21.667 -2.33301 23 -19l1 -12v0
c-0.666992 9.33301 -1.33398 17.166 -2.00098 23.499s-1.33398 9.5 -2.00098 9.5c12.667 0 26.334 -3.83301 41.001 -11.5s28 -16.334 40 -26.001s22.333 -18.5 31 -26.5s13.334 -12.667 14.001 -14c2.66699 -2.66699 3.5 -3.5 2.5 -2.5s0.166992 2.5 3.5 4.5
c7.33301 5.33301 12 20.666 14 45.999c0.666992 5.33301 3.16699 10.166 7.5 14.499s9.16602 6.5 14.499 6.5h22c13.333 0 23.666 -3.5 30.999 -10.5s10 -17.167 8 -30.5c-3.33301 -28.667 -10.833 -52.667 -22.5 -72s-26.167 -32.666 -43.5 -39.999
c-10.667 -4.66699 -18.334 -4.83398 -23.001 -0.500977s-7.66699 12.166 -9 23.499l-1 16l-4 45c1.33301 -16.667 2.33301 -31.667 3 -45c1.33301 -12 2.33301 -22.5 3 -31.5s1.33398 -13.5 2.00098 -13.5c-13.333 0 -25.833 4 -37.5 12s-22.667 17 -33 27l-29 27
c-9 8 -17.833 12 -26.5 12c-5.33301 0 -9.83301 -4.33301 -13.5 -13s-5.83398 -20.334 -6.50098 -35.001zM176.002 261.006c0 -38.667 2.33301 -73.667 7 -105s12 -58.166 22 -80.499s22.5 -39.666 37.5 -51.999s32.833 -18.5 53.5 -18.5c36 0 65 20.5 87 61.5
s33 105.833 33 194.5c0 38.667 -2.33301 73.667 -7 105s-12 58.166 -22 80.499s-22.5 39.666 -37.5 51.999s-32.833 18.5 -53.5 18.5c-36 0 -65 -20.5 -87 -61.5s-33 -105.833 -33 -194.5zM51.002 261.006c0 46.667 5.83301 86.834 17.5 120.501s28.334 61.5 50.001 83.5
s47.5 38.333 77.5 49s63.333 16 100 16c42 0 78.5 -6.5 109.5 -19.5s56.5 -31.167 76.5 -54.5s34.833 -51.666 44.5 -84.999s14.5 -70 14.5 -110c0 -46.667 -5.83301 -86.834 -17.5 -120.501s-28.334 -61.5 -50.001 -83.5s-47.5 -38.333 -77.5 -49s-63.333 -16 -100 -16
c-42 0 -78.5 6.5 -109.5 19.5s-56.5 31.167 -76.5 54.5s-34.833 51.666 -44.5 84.999s-14.5 70 -14.5 110z" />
    <glyph glyph-name="odieresis" unicode="&#xf6;" horiz-adv-x="590" 
d="M374 600c-16.667 0 -31 6 -43 18s-18 26.333 -18 43v3c0 16.667 6 31 18 43s26.333 18 43 18h3c16.667 0 31 -6 43 -18s18 -26.333 18 -43v-3c0 -16.667 -6 -31 -18 -43s-26.333 -18 -43 -18h-3zM213 600c-16.667 0 -31 6 -43 18s-18 26.333 -18 43v3
c0 16.667 6 31 18 43s26.333 18 43 18h3c16.667 0 31 -6 43 -18s18 -26.333 18 -43v-3c0 -16.667 -6 -31 -18 -43s-26.333 -18 -43 -18h-3zM175 260c0 -38.667 2.33301 -73.667 7 -105s12 -58.166 22 -80.499s22.5 -39.666 37.5 -51.999s32.833 -18.5 53.5 -18.5
c36 0 65 20.5 87 61.5s33 105.833 33 194.5c0 38.667 -2.33301 73.667 -7 105s-12 58.166 -22 80.499s-22.5 39.666 -37.5 51.999s-32.833 18.5 -53.5 18.5c-36 0 -65 -20.5 -87 -61.5s-33 -105.833 -33 -194.5zM50 260c0 46.667 5.83301 86.834 17.5 120.501
s28.334 61.5 50.001 83.5s47.5 38.333 77.5 49s63.333 16 100 16c42 0 78.5 -6.5 109.5 -19.5s56.5 -31.167 76.5 -54.5s34.833 -51.666 44.5 -84.999s14.5 -70 14.5 -110c0 -46.667 -5.83301 -86.834 -17.5 -120.501s-28.334 -61.5 -50.001 -83.5s-47.5 -38.333 -77.5 -49
s-63.333 -16 -100 -16c-42 0 -78.5 6.5 -109.5 19.5s-56.5 31.167 -76.5 54.5s-34.833 51.666 -44.5 84.999s-14.5 70 -14.5 110z" />
    <glyph glyph-name="oslash" unicode="&#xf8;" horiz-adv-x="590" 
d="M50 260c0 46.667 5.83301 86.834 17.5 120.501s28.334 61.5 50.001 83.5s47.5 38.333 77.5 49s63.333 16 100 16c52.667 0 97.667 -10.667 135 -32c5.33301 -3.33301 12 -4.66602 20 -3.99902s13.667 3.33398 17 8.00098l7 9c3.33301 4 9.66602 8.16699 18.999 12.5
s16.666 6.5 21.999 6.5s9 -2.16699 11 -6.5s1.33301 -8.5 -2 -12.5l-24 -30c-4.66699 -5.33301 -6.83398 -13.666 -6.50098 -24.999s2.5 -20 6.5 -26c13.333 -22 23.333 -47.333 30 -76s10 -59.667 10 -93c0 -46.667 -5.83301 -86.834 -17.5 -120.501
s-28.334 -61.5 -50.001 -83.5s-47.5 -38.333 -77.5 -49s-63.333 -16 -100 -16c-52.667 0 -97.667 10.667 -135 32c-5.33301 3.33301 -12 4.66602 -20 3.99902s-13.667 -3.33398 -17 -8.00098l-7 -9c-3.33301 -4 -9.66602 -8.16699 -18.999 -12.5s-16.666 -6.5 -21.999 -6.5
s-9 2.16699 -11 6.5s-1.33301 8.5 2 12.5l24 30c4.66699 5.33301 6.83398 13.666 6.50098 24.999s-2.5 20 -6.5 26c-13.333 22 -23.333 47.333 -30 76s-10 59.667 -10 93zM376 390c6 7.33301 10 16.332 12 26.999s1.33301 20.334 -2 29.001c-10 22.667 -22.5 40 -37.5 52
s-32.833 18 -53.5 18c-36 0 -65 -20.5 -87 -61.5s-33 -105.833 -33 -194.5c0 -34 1.66699 -64 5 -90c0 -3.33301 1.5 -5.5 4.5 -6.5s5.5 -0.166992 7.5 2.5zM410 350.999c0 3.33301 -1.5 5.50098 -4.5 6.50098s-5.5 0.166992 -7.5 -2.5l-184 -225
c-6 -7.33301 -10 -16.333 -12 -27s-1.33301 -20.334 2 -29.001c10 -22 22.5 -39 37.5 -51s32.833 -18 53.5 -18c36 0 65 20.5 87 61.5s33 105.833 33 194.5c0 34 -1.66699 64 -5 90z" />
    <glyph glyph-name="ugrave" unicode="&#xf9;" 
d="M253 600c-7.33301 0 -16.6689 2.99902 -28.002 8.99902s-19 12.333 -23 19l-38 59c-10 14.667 -11.167 28.834 -3.5 42.501s20.167 20.5 37.5 20.5h31c11.333 0 23 -4.16699 35 -12.5s19.667 -17.833 23 -28.5l21 -59c4.66699 -13.333 3.33398 -25 -3.99902 -35
s-17.666 -15 -30.999 -15h-20zM479.997 57.999c0 -16 -5.66699 -29.667 -17 -41s-24.666 -17 -39.999 -17h-7c-14 0 -26 5 -36 15s-15 22 -15 36v16c0 2 -1.66699 3.33301 -5 4s-5.66602 0 -6.99902 -2c-11.333 -24.667 -27.833 -43.834 -49.5 -57.501
s-47.167 -20.5 -76.5 -20.5c-31.333 0 -57.5 4.5 -78.5 13.5s-37.667 22.167 -50 39.5s-21 39 -26 65s-7.5 56.333 -7.5 91v263c0 15.333 5.66699 28.666 17 39.999s25 17 41 17c15.333 0 28.666 -5.66699 39.999 -17s17 -24.666 17 -39.999v-263
c0 -64 3.5 -112.167 10.5 -144.5s20.833 -48.5 41.5 -48.5c40 0 72.167 12.833 96.5 38.5s36.5 59.834 36.5 102.501v315c0 15.333 5.66699 28.666 17 39.999s25 17 41 17c15.333 0 28.666 -5.66699 39.999 -17s17 -24.666 17 -39.999v-405z" />
    <glyph glyph-name="uacute" unicode="&#xfa;" 
d="M273 600c-14 0 -24.5 5.00098 -31.5 15.001s-8.5 21.667 -4.5 35l22 59c3.33301 10.667 10.833 20.167 22.5 28.5s23.167 12.5 34.5 12.5h32c17.333 0 29.666 -6.83301 36.999 -20.5s6.33301 -27.834 -3 -42.501l-39 -59c-4 -6.66699 -11.667 -13 -23 -19
s-20.666 -9 -27.999 -9h-19zM480 58.001c0 -16 -5.66699 -29.667 -17 -41s-24.666 -17 -39.999 -17h-7c-14 0 -26 5 -36 15s-15 22 -15 36v16c0 2 -1.66699 3.33301 -5 4s-5.66602 0 -6.99902 -2c-11.333 -24.667 -27.833 -43.834 -49.5 -57.501s-47.167 -20.5 -76.5 -20.5
c-31.333 0 -57.5 4.5 -78.5 13.5s-37.667 22.167 -50 39.5s-21 39 -26 65s-7.5 56.333 -7.5 91v263c0 15.333 5.66699 28.666 17 39.999s25 17 41 17c15.333 0 28.666 -5.66699 39.999 -17s17 -24.666 17 -39.999v-263c0 -64 3.5 -112.167 10.5 -144.5
s20.833 -48.5 41.5 -48.5c40 0 72.167 12.833 96.5 38.5s36.5 59.834 36.5 102.501v315c0 15.333 5.66699 28.666 17 39.999s25 17 41 17c15.333 0 28.666 -5.66699 39.999 -17s17 -24.666 17 -39.999v-405z" />
    <glyph glyph-name="ucircumflex" unicode="&#xfb;" 
d="M282 657c-4.66699 2.66699 -7.66797 3.5 -9.00098 2.5s-3.66602 -3.16699 -6.99902 -6.5l-40 -37c-3.33301 -2.66699 -10 -6 -20 -10s-17.333 -6 -22 -6h-28c-12 0 -20.333 4.66699 -25 14s-3.66699 18.666 3 27.999l63 83c4 6 11.5 11.667 22.5 17s19.833 8 26.5 8h54
c6.66699 0 15.5 -2.66699 26.5 -8s18.5 -11 22.5 -17l63 -83c6.66699 -9.33301 7.66699 -18.666 3 -27.999s-12.667 -14 -24 -14h-22h-31c-6.66699 8.66699 -13.334 16.667 -20.001 24c-6 7.33301 -12.167 14 -18.5 20s-12.166 10.333 -17.499 13zM479.999 58
c0 -16 -5.66699 -29.667 -17 -41s-24.666 -17 -39.999 -17h-7c-14 0 -26 5 -36 15s-15 22 -15 36v16c0 2 -1.66699 3.33301 -5 4s-5.66602 0 -6.99902 -2c-11.333 -24.667 -27.833 -43.834 -49.5 -57.501s-47.167 -20.5 -76.5 -20.5c-31.333 0 -57.5 4.5 -78.5 13.5
s-37.667 22.167 -50 39.5s-21 39 -26 65s-7.5 56.333 -7.5 91v263c0 15.333 5.66699 28.666 17 39.999s25 17 41 17c15.333 0 28.666 -5.66699 39.999 -17s17 -24.666 17 -39.999v-263c0 -64 3.5 -112.167 10.5 -144.5s20.833 -48.5 41.5 -48.5
c40 0 72.167 12.833 96.5 38.5s36.5 59.834 36.5 102.501v315c0 15.333 5.66699 28.666 17 39.999s25 17 41 17c15.333 0 28.666 -5.66699 39.999 -17s17 -24.666 17 -39.999v-405z" />
    <glyph glyph-name="udieresis" unicode="&#xfc;" 
d="M351 600c-16.667 0 -31 6 -43 18s-18 26.333 -18 43v3c0 16.667 6 31 18 43s26.333 18 43 18h3c16.667 0 31 -6 43 -18s18 -26.333 18 -43v-3c0 -16.667 -6 -31 -18 -43s-26.333 -18 -43 -18h-3zM191 600c-16.667 0 -31 6 -43 18s-18 26.333 -18 43v3
c0 16.667 6 31 18 43s26.333 18 43 18h3c16.667 0 31 -6 43 -18s18 -26.333 18 -43v-3c0 -16.667 -6 -31 -18 -43s-26.333 -18 -43 -18h-3zM480 58c0 -16 -5.66699 -29.667 -17 -41s-24.666 -17 -39.999 -17h-7c-14 0 -26 5 -36 15s-15 22 -15 36v16
c0 2 -1.66699 3.33301 -5 4s-5.66602 0 -6.99902 -2c-11.333 -24.667 -27.833 -43.834 -49.5 -57.501s-47.167 -20.5 -76.5 -20.5c-31.333 0 -57.5 4.5 -78.5 13.5s-37.667 22.167 -50 39.5s-21 39 -26 65s-7.5 56.333 -7.5 91v263c0 15.333 5.66699 28.666 17 39.999
s25 17 41 17c15.333 0 28.666 -5.66699 39.999 -17s17 -24.666 17 -39.999v-263c0 -64 3.5 -112.167 10.5 -144.5s20.833 -48.5 41.5 -48.5c40 0 72.167 12.833 96.5 38.5s36.5 59.834 36.5 102.501v315c0 15.333 5.66699 28.666 17 39.999s25 17 41 17
c15.333 0 28.666 -5.66699 39.999 -17s17 -24.666 17 -39.999v-405z" />
    <glyph glyph-name="yacute" unicode="&#xfd;" horiz-adv-x="462" 
d="M232 600c-14 0 -24.6689 5.00098 -32.002 15.001s-8.66602 21.667 -3.99902 35l21 59c3.33301 10.667 11 20.167 23 28.5s23.667 12.5 35 12.5h31c17.333 0 29.833 -6.83301 37.5 -20.5s6.5 -27.834 -3.5 -42.501l-38 -59c-4 -6.66699 -11.667 -13 -23 -19
s-20.666 -9 -27.999 -9h-19zM242.998 -73.999c-8.66699 -24 -17.3291 -44.165 -25.9961 -60.498s-18.834 -29.333 -30.501 -39s-24.834 -16.5 -39.501 -20.5s-32.334 -6 -53.001 -6h-42c-5.33301 0 -8 2.33301 -8 7c0 5.33301 2.66699 8 8 8h42c18 0 33.667 1.83301 47 5.5
s25.166 10 35.499 19s19.666 21 27.999 36s16.5 33.833 24.5 56.5l3 7v8c0 3.33301 -0.333008 5.66602 -1 6.99902l-198 505c-6 16 -4.83301 30.167 3.5 42.5s20.833 18.5 37.5 18.5h52c3.33301 0 6.83301 -1.33301 10.5 -4s6.16699 -5.33398 7.5 -8.00098l5 -13l9 -24
l75 -196c5.33301 -14 13.333 -24.333 24 -31s22 -10 34 -10s23.333 3.66699 34 11s18.334 18 23.001 32l68 198l13 36c2 6 6.33301 9 13 9s9 -3 7 -9l-146 -418l-59 -169z" />
    <glyph glyph-name="thorn" unicode="&#xfe;" horiz-adv-x="599" 
d="M128 750l28.999 -1.00391c7.33301 0 13.833 -3 19.5 -9s8.5 -13 8.5 -21v-308c0 -2.66699 2.33301 -4.66699 7 -6s7.33398 -0.666016 8.00098 2.00098c15.333 42 36.833 72.667 64.5 92s60.5 29 98.5 29c28 0 53.5 -6.5 76.5 -19.5s42.5 -31.167 58.5 -54.5
s28.5 -51.666 37.5 -84.999s13.5 -70 13.5 -110s-4.5 -76.667 -13.5 -110s-21.5 -61.666 -37.5 -84.999s-35.5 -41.5 -58.5 -54.5s-48.5 -19.5 -76.5 -19.5c-38 0 -70.833 9.66699 -98.5 29s-49.167 50 -64.5 92c-0.666992 2.66699 -3.33398 3.33398 -8.00098 2.00098
s-7 -3.33301 -7 -6v-300c0 -15.333 -5.66699 -28.666 -17 -39.999s-24.666 -17 -39.999 -17c-16 0 -29.667 5.66699 -41 17s-17 24.666 -17 39.999v914c0 8 2.83301 14.833 8.5 20.5s12.5 8.5 20.5 8.5h29zM184.999 257.996c0 -82.667 15.166 -143.165 45.499 -181.498
s70.5 -57.5 120.5 -57.5c11.333 0 21.333 5.66699 30 17s16.334 27.5 23.001 48.5s11.667 46.167 15 75.5s5 62 5 98c0 38 -1.66699 72.667 -5 104s-7.83301 58.166 -13.5 80.499s-12.667 39.666 -21 51.999s-17.5 18.5 -27.5 18.5c-51.333 0 -92.833 -20.5 -124.5 -61.5
s-47.5 -105.5 -47.5 -193.5z" />
    <glyph glyph-name="ydieresis" unicode="&#xff;" horiz-adv-x="462" 
d="M310 600c-16.667 0 -31 6 -43 18s-18 26.333 -18 43v3c0 16.667 6 31 18 43s26.333 18 43 18h3c16.667 0 31 -6 43 -18s18 -26.333 18 -43v-3c0 -16.667 -6 -31 -18 -43s-26.333 -18 -43 -18h-3zM149 600c-16.667 0 -31 6 -43 18s-18 26.333 -18 43v3
c0 16.667 6 31 18 43s26.333 18 43 18h3c16.667 0 31 -6 43 -18s18 -26.333 18 -43v-3c0 -16.667 -6 -31 -18 -43s-26.333 -18 -43 -18h-3zM243 -74c-8.66699 -24 -17.3291 -44.165 -25.9961 -60.498s-18.834 -29.333 -30.501 -39s-24.834 -16.5 -39.501 -20.5
s-32.334 -6 -53.001 -6h-42c-5.33301 0 -8 2.33301 -8 7c0 5.33301 2.66699 8 8 8h42c18 0 33.667 1.83301 47 5.5s25.166 10 35.499 19s19.666 21 27.999 36s16.5 33.833 24.5 56.5l3 7v8c0 3.33301 -0.333008 5.66602 -1 6.99902l-198 505c-6 16 -4.83301 30.167 3.5 42.5
s20.833 18.5 37.5 18.5h52c3.33301 0 6.83301 -1.33301 10.5 -4s6.16699 -5.33398 7.5 -8.00098l5 -13l9 -24l75 -196c5.33301 -14 13.333 -24.333 24 -31s22 -10 34 -10s23.333 3.66699 34 11s18.334 18 23.001 32l68 198l13 36c2 6 6.33301 9 13 9s9 -3 7 -9l-146 -418
l-59 -169z" />
    <glyph glyph-name="Amacron" unicode="&#x100;" horiz-adv-x="754" 
d="M294 830c-11.333 0 -20.833 3.83301 -28.5 11.5s-11.5 17.167 -11.5 28.5s3.83301 20.833 11.5 28.5s17.167 11.5 28.5 11.5h200c11.333 0 20.833 -3.83301 28.5 -11.5s11.5 -17.167 11.5 -28.5s-3.83301 -20.833 -11.5 -28.5s-17.167 -11.5 -28.5 -11.5h-200zM513 252
c1.33301 -4.66699 -0.335938 -7.00098 -5.00293 -7.00098l-313 1c-11.333 0 -22.833 -4 -34.5 -12s-19.5 -17.333 -23.5 -28l-58 -155l-8 -20.5l-8 -20.5c-2 -6 -6 -9 -12 -9h-7h-5c0.666992 2 1.33398 4.33301 2.00098 7c0.666992 2 1.66699 4.5 3 7.5
s2.66602 6.5 3.99902 10.5c3.33301 8 9.33301 23.833 18 47.5l32 85.5l41.5 110l45.5 121l44.5 118l38.5 101.5l27.5 71.5c7 18 10.5 27.333 10.5 28l8 21c2 5.33301 6.16699 10.166 12.5 14.499s12.166 6.5 17.499 6.5h75c10.667 0 21.834 -4 33.501 -12
s19.5 -17.333 23.5 -28l251 -663l9 -22l6.5 -17.5c1.66699 -4.33301 2.5 -6.83301 2.5 -7.5c0.666992 -1.33301 0.333984 -1.66602 -0.999023 -0.999023s-2.66602 1 -3.99902 1h-112c-5.33301 0 -10.666 1.83301 -15.999 5.5s-9 7.83398 -11 12.501l-7 19l-5 12l-37.5 101.5
l-38.5 101.5v-0.5v-0.5zM187.998 343.999c-8 -21.333 -6.16602 -40.5 5.50098 -57.5s29.167 -25.5 52.5 -25.5h175c23.333 0 40.833 8.5 52.5 25.5s13.5 36.167 5.5 57.5l-88 234c-4.66699 14 -12.334 24.5 -23.001 31.5s-22 10.5 -34 10.5s-23.333 -3.5 -34 -10.5
s-18.667 -17.167 -24 -30.5z" />
    <glyph glyph-name="amacron" unicode="&#x101;" 
d="M176 600c-11.333 0 -20.833 3.83301 -28.5 11.5s-11.5 17.167 -11.5 28.5s3.83301 20.833 11.5 28.5s17.167 11.5 28.5 11.5h200c11.333 0 20.833 -3.83301 28.5 -11.5s11.5 -17.167 11.5 -28.5s-3.83301 -20.833 -11.5 -28.5s-17.167 -11.5 -28.5 -11.5h-200zM85 381
c-5.33301 1.33301 -7.33301 4.33203 -6 8.99902c15.333 42 40.833 75.667 76.5 101s75.834 38 120.501 38c30 0 57.167 -3.5 81.5 -10.5s45.166 -18.333 62.499 -34s30.833 -35.667 40.5 -60s14.5 -53.833 14.5 -88.5v-226c0 -9.33301 1 -15.666 3 -18.999
s8.33301 -5.33301 19 -6c6 0 11.333 -2.16699 16 -6.5s7 -9.16602 7 -14.499v-21c0 -12 -4 -22.167 -12 -30.5s-18 -12.5 -30 -12.5c-28 0.666992 -50 2.16699 -66 4.5s-27.833 7.33301 -35.5 15s-12.334 18.667 -14.001 33s-2.5 33.5 -2.5 57.5v8h-0.5
c-0.333008 0 -0.5 -0.333008 -0.5 -1c-10 -48 -27.833 -81 -53.5 -99s-57.167 -27 -94.5 -27c-61.333 0 -105.166 9.66699 -131.499 29s-39.5 44.666 -39.5 75.999c0 44.667 15.5 80.667 46.5 108s72.5 41 124.5 41c22 0 42.167 2.16699 60.5 6.5s34 11.833 47 22.5
s23.167 25 30.5 43s11 40.667 11 68c0 47.333 -7.66699 80.833 -23 100.5s-35.666 29.5 -60.999 29.5c-40.667 0 -77.334 -12 -110.001 -36s-56.334 -55.667 -71.001 -95c-1.33301 -4 -4.66602 -5 -9.99902 -3zM360 281.999c0 2.66699 -1.83496 4.5 -5.50195 5.5
s-6.16699 0.5 -7.5 -1.5c-12.667 -20 -29.667 -33.667 -51 -41s-46 -11 -74 -11c-20 0 -36.167 -12.167 -48.5 -36.5s-18.5 -56.5 -18.5 -96.5c0 -30 4.66699 -53.833 14 -71.5s25 -26.5 47 -26.5c20 0 38.333 2.66699 55 8s31.334 14.5 44.001 27.5
s22.834 30.167 30.501 51.5s12.5 48.333 14.5 81v111z" />
    <glyph glyph-name="Abreve" unicode="&#x102;" horiz-adv-x="754" 
d="M248 923c-3.33301 14 -1.6709 24.5 4.99609 31.5s17.667 10.5 33 10.5h23c4 0 8.33301 -2.16699 13 -6.5s7.33398 -8.5 8.00098 -12.5c4 -14 11.5 -25 22.5 -33s24.833 -12 41.5 -12s30.5 4 41.5 12s18.5 19 22.5 33c0.666992 4 3.33398 8.16699 8.00098 12.5
s9 6.5 13 6.5h24c14.667 0 25.334 -3.5 32.001 -10.5s8.33398 -17.5 5.00098 -31.5c-8.66699 -31.333 -25.667 -56.166 -51 -74.499s-57 -27.5 -95 -27.5s-69.667 9.16699 -95 27.5s-42.333 43.166 -51 74.499zM512.995 252
c1.33301 -4.66699 -0.335938 -7.00098 -5.00293 -7.00098l-313 1c-11.333 0 -22.833 -4 -34.5 -12s-19.5 -17.333 -23.5 -28l-58 -155l-8 -20.5l-8 -20.5c-2 -6 -6 -9 -12 -9h-7h-5c0.666992 2 1.33398 4.33301 2.00098 7c0.666992 2 1.66699 4.5 3 7.5
s2.66602 6.5 3.99902 10.5c3.33301 8 9.33301 23.833 18 47.5l32 85.5l41.5 110l45.5 121l44.5 118l38.5 101.5l27.5 71.5c7 18 10.5 27.333 10.5 28l8 21c2 5.33301 6.16699 10.166 12.5 14.499s12.166 6.5 17.499 6.5h75c10.667 0 21.834 -4 33.501 -12
s19.5 -17.333 23.5 -28l251 -663l9 -22l6.5 -17.5c1.66699 -4.33301 2.5 -6.83301 2.5 -7.5c0.666992 -1.33301 0.333984 -1.66602 -0.999023 -0.999023s-2.66602 1 -3.99902 1h-112c-5.33301 0 -10.666 1.83301 -15.999 5.5s-9 7.83398 -11 12.501l-7 19l-5 12l-37.5 101.5
l-38.5 101.5v-0.5v-0.5zM187.993 343.999c-8 -21.333 -6.16602 -40.5 5.50098 -57.5s29.167 -25.5 52.5 -25.5h175c23.333 0 40.833 8.5 52.5 25.5s13.5 36.167 5.5 57.5l-88 234c-4.66699 14 -12.334 24.5 -23.001 31.5s-22 10.5 -34 10.5s-23.333 -3.5 -34 -10.5
s-18.667 -17.167 -24 -30.5z" />
    <glyph glyph-name="abreve" unicode="&#x103;" 
d="M130 693c-3.33301 14 -1.6709 24.5 4.99609 31.5s17.667 10.5 33 10.5h23c4 0 8.33301 -2.16699 13 -6.5s7.33398 -8.5 8.00098 -12.5c4 -14 11.5 -25 22.5 -33s24.833 -12 41.5 -12s30.5 4 41.5 12s18.5 19 22.5 33c0.666992 4 3.33398 8.16699 8.00098 12.5
s9 6.5 13 6.5h24c14.667 0 25.334 -3.5 32.001 -10.5s8.33398 -17.5 5.00098 -31.5c-8.66699 -31.333 -25.667 -56.166 -51 -74.499s-57 -27.5 -95 -27.5s-69.667 9.16699 -95 27.5s-42.333 43.166 -51 74.499zM84.9951 381c-5.33301 1.33301 -7.33301 4.33203 -6 8.99902
c15.333 42 40.833 75.667 76.5 101s75.834 38 120.501 38c30 0 57.167 -3.5 81.5 -10.5s45.166 -18.333 62.499 -34s30.833 -35.667 40.5 -60s14.5 -53.833 14.5 -88.5v-226c0 -9.33301 1 -15.666 3 -18.999s8.33301 -5.33301 19 -6c6 0 11.333 -2.16699 16 -6.5
s7 -9.16602 7 -14.499v-21c0 -12 -4 -22.167 -12 -30.5s-18 -12.5 -30 -12.5c-28 0.666992 -50 2.16699 -66 4.5s-27.833 7.33301 -35.5 15s-12.334 18.667 -14.001 33s-2.5 33.5 -2.5 57.5v8h-0.5c-0.333008 0 -0.5 -0.333008 -0.5 -1c-10 -48 -27.833 -81 -53.5 -99
s-57.167 -27 -94.5 -27c-61.333 0 -105.166 9.66699 -131.499 29s-39.5 44.666 -39.5 75.999c0 44.667 15.5 80.667 46.5 108s72.5 41 124.5 41c22 0 42.167 2.16699 60.5 6.5s34 11.833 47 22.5s23.167 25 30.5 43s11 40.667 11 68c0 47.333 -7.66699 80.833 -23 100.5
s-35.666 29.5 -60.999 29.5c-40.667 0 -77.334 -12 -110.001 -36s-56.334 -55.667 -71.001 -95c-1.33301 -4 -4.66602 -5 -9.99902 -3zM359.995 281.999c0 2.66699 -1.83496 4.5 -5.50195 5.5s-6.16699 0.5 -7.5 -1.5c-12.667 -20 -29.667 -33.667 -51 -41s-46 -11 -74 -11
c-20 0 -36.167 -12.167 -48.5 -36.5s-18.5 -56.5 -18.5 -96.5c0 -30 4.66699 -53.833 14 -71.5s25 -26.5 47 -26.5c20 0 38.333 2.66699 55 8s31.334 14.5 44.001 27.5s22.834 30.167 30.501 51.5s12.5 48.333 14.5 81v111z" />
    <glyph glyph-name="Aogonek" unicode="&#x104;" horiz-adv-x="754" 
d="M513 252c1.33301 -4.66699 -0.333008 -7.00391 -5 -7.00391l-313 1c-11.333 0 -22.833 -4 -34.5 -12s-19.5 -17.333 -23.5 -28l-58 -155l-8 -20.5l-8 -20.5c-2 -6 -6 -9 -12 -9h-7h-5c0.666992 2 1.33398 4.33301 2.00098 7c0.666992 2 1.66699 4.5 3 7.5
s2.66602 6.5 3.99902 10.5c3.33301 8 9.33301 23.833 18 47.5l32 85.5l41.5 110l45.5 121l44.5 118l38.5 101.5l27.5 71.5c7 18 10.5 27.333 10.5 28l8 21c2 5.33301 6.16699 10.166 12.5 14.499s12.166 6.5 17.499 6.5h75c10.667 0 21.834 -4 33.501 -12
s19.5 -17.333 23.5 -28l251 -663l9 -22l6.5 -17.5c1.66699 -4.33301 2.5 -6.83301 2.5 -7.5c0 -1.33301 -0.5 -2 -1.5 -2s-1.83301 -0.333008 -2.5 -1c-4.66699 -3.33301 -9.83398 -8.33301 -15.501 -15s-11 -14.334 -16 -23.001s-9.33301 -17.667 -13 -27
s-5.5 -18.666 -5.5 -27.999c0 -29.333 6.83301 -52.666 20.5 -69.999s32.167 -26 55.5 -26c14 0 27.5 2.66699 40.5 8s23.5 12.333 31.5 21c2 2 3.33301 1.33301 4 -2c0 -2.66699 -1 -5 -3 -7c-8.66699 -9.33301 -19.667 -16.666 -33 -21.999s-27 -8 -41 -8
c-42 0 -75.667 8.66699 -101 26s-38 40.333 -38 69c0 5.33301 2.83301 12 8.5 20s12.834 16.333 21.501 25s18.167 17.334 28.5 26.001s20.166 16.334 29.499 23.001c2.66699 2 3.66699 4.66699 3 8s-2.66699 5 -6 5h-84c-5.33301 0 -10.666 1.83301 -15.999 5.5
s-9 7.83398 -11 12.501l-7 19l-5 12l-37.5 101.5l-38.5 101.5v-0.5v-0.5zM188.001 343.996c-8 -21.333 -6.16602 -40.5 5.50098 -57.5s29.167 -25.5 52.5 -25.5h175c23.333 0 40.833 8.5 52.5 25.5s13.5 36.167 5.5 57.5l-88 234c-4.66699 14 -12.334 24.5 -23.001 31.5
s-22 10.5 -34 10.5s-23.333 -3.5 -34 -10.5s-18.667 -17.167 -24 -30.5z" />
    <glyph glyph-name="aogonek" unicode="&#x105;" 
d="M85 381c-6 1.33301 -8.00488 4.33008 -6.00488 8.99707c14.667 42 39.834 75.667 75.501 101s75.834 38 120.501 38c30 0 57.167 -3.5 81.5 -10.5s45.166 -18.333 62.499 -34s30.833 -35.667 40.5 -60s14.5 -53.833 14.5 -88.5v-226c0 -9.33301 1 -15.666 3 -18.999
s8.33301 -5.33301 19 -6c6 0 11.333 -2.16699 16 -6.5s7 -9.16602 7 -14.499v-55c0 -1.33301 -0.833008 -3.83301 -2.5 -7.5s-3.16699 -5.83398 -4.5 -6.50098c-4.66699 -4 -9.66699 -9.33301 -15 -16s-10.333 -14.167 -15 -22.5s-8.66699 -17 -12 -26s-5 -17.5 -5 -25.5
c0 -29.333 6.83301 -52.833 20.5 -70.5s32.167 -26.5 55.5 -26.5c14 0 27.5 2.66699 40.5 8s23.5 12.333 31.5 21c2 2 3.33301 1.33301 4 -2c0 -2.66699 -1 -5 -3 -7c-8.66699 -9.33301 -19.667 -16.666 -33 -21.999s-27 -8 -41 -8c-42 0 -75.667 8.66699 -101 26
s-38 40.333 -38 69c0 5.33301 2.83301 11.833 8.5 19.5s12.834 15.834 21.501 24.501s18.334 17.334 29.001 26.001s21 16.667 31 24c2.66699 2 4 4.66699 4 8s-2 5 -6 5c-30.667 0 -54.667 1.16699 -72 3.5s-30.166 7.33301 -38.499 15s-13.5 18.667 -15.5 33
s-3 33.833 -3 58.5v8h-0.5c-0.333008 0 -0.5 -0.333008 -0.5 -1c-10 -48 -27.833 -81 -53.5 -99s-57.167 -27 -94.5 -27c-61.333 0 -105.166 9.66699 -131.499 29s-39.5 44.666 -39.5 75.999c0 44.667 15.5 80.667 46.5 108s72.5 41 124.5 41c22 0 42.167 2.16699 60.5 6.5
s34 11.833 47 22.5s23.167 25 30.5 43s11 40.667 11 68c0 47.333 -7.66699 80.833 -23 100.5s-35.666 29.5 -60.999 29.5c-40.667 0 -77.334 -12 -110.001 -36s-56.334 -55.667 -71.001 -95c-1.33301 -4 -4.66602 -5 -9.99902 -3zM358.995 281.997
c0 2.66699 -1.83496 4.5 -5.50195 5.5s-6.16699 0.5 -7.5 -1.5c-12.667 -20 -29.667 -33.667 -51 -41s-46 -11 -74 -11c-20 0 -36.167 -12.167 -48.5 -36.5s-18.5 -56.5 -18.5 -96.5c0 -30 4.66699 -53.833 14 -71.5s25 -26.5 47 -26.5c20 0 38.333 2.66699 55 8
s31.334 14.5 44.001 27.5s22.834 30.167 30.501 51.5s12.5 48.333 14.5 81v111z" />
    <glyph glyph-name="Cacute" unicode="&#x106;" horiz-adv-x="695" 
d="M364 830c-14 0 -24.5 5.00098 -31.5 15.001s-8.5 21.667 -4.5 35l22 59c3.33301 10.667 10.833 20.167 22.5 28.5s23.167 12.5 34.5 12.5h32c17.333 0 29.666 -6.83301 36.999 -20.5s6.33301 -27.834 -3 -42.501l-39 -59c-4 -6.66699 -11.667 -13 -23 -19
s-20.666 -9 -27.999 -9h-19zM656 174.001c2.66699 5.33301 6.66406 6.00488 11.9971 2.00488c4.66699 -4 5.66699 -8.66699 3 -14c-12 -25.333 -27 -48.666 -45 -69.999s-37.667 -39.333 -59 -54s-44.166 -26.167 -68.499 -34.5s-48.833 -12.5 -73.5 -12.5
c-56 0 -107 10.333 -153 31s-85.167 48.5 -117.5 83.5s-57.5 75.667 -75.5 122s-27 95.5 -27 147.5s9 101.167 27 147.5s43.167 87 75.5 122s71.5 62.833 117.5 83.5s97 31 153 31c21.333 0 43.166 -4.16699 65.499 -12.5s44.333 -19.833 66 -34.5s42.167 -32.667 61.5 -54
s36.666 -44.666 51.999 -69.999c0.666992 -1.33301 1.33398 -3.33301 2.00098 -6s0.666992 -4.33398 0 -5.00098l-4 -3l-4 -3c-1.33301 -0.666992 -3 -0.333984 -5 0.999023s-3.33301 2.66602 -4 3.99902c-15.333 25.333 -32.166 48.166 -50.499 68.499
s-37.666 37.833 -57.999 52.5s-40.833 26 -61.5 34s-40.667 12 -60 12c-35.333 0 -67.5 -9.83301 -96.5 -29.5s-53.833 -46.334 -74.5 -80.001s-36.667 -72.667 -48 -117s-17 -91.5 -17 -141.5s5.66699 -97.167 17 -141.5s27.333 -83.333 48 -117s45.5 -60.334 74.5 -80.001
s61.167 -29.5 96.5 -29.5c22.667 0 45.334 4 68.001 12s44 19.333 64 34s38.5 32.167 55.5 52.5s31.5 43.166 43.5 68.499z" />
    <glyph glyph-name="cacute" unicode="&#x107;" horiz-adv-x="532" 
d="M332 600c-14 0 -24.6689 5.00098 -32.002 15.001s-8.66602 21.667 -3.99902 35l21 59c3.33301 10.667 11 20.167 23 28.5s23.667 12.5 35 12.5h31c17.333 0 29.833 -6.83301 37.5 -20.5s6.5 -27.834 -3.5 -42.501l-38 -59c-4 -6.66699 -11.667 -13 -23 -19
s-20.666 -9 -27.999 -9h-19zM483.998 135.001c1.33301 4 4.99805 4.66699 10.998 2c5.33301 -2.66699 7.33301 -6 6 -10c-16.667 -41.333 -40.167 -74.333 -70.5 -99s-63.166 -37 -98.499 -37c-42 0 -80.333 5.33301 -115 16s-64.334 27 -89.001 49s-43.667 49.833 -57 83.5
s-20 73.834 -20 120.501s6.66699 86.834 20 120.501s32.333 61.5 57 83.5s54.334 38.333 89.001 49s73 16 115 16c32.667 0 63 -13.833 91 -41.5s53.333 -64.5 76 -110.5c0.666992 -1.33301 1.16699 -3 1.5 -5s-0.166992 -3.33301 -1.5 -4l-3 -2l-5 -2
c-1.33301 -0.666992 -2.83301 -0.333984 -4.5 0.999023s-2.5 2.66602 -2.5 3.99902c-22.667 44 -46.667 79.5 -72 106.5s-52.333 40.5 -81 40.5c-46.667 0 -84.334 -20.5 -113.001 -61.5s-43 -105.833 -43 -194.5c0 -88 14.333 -152.5 43 -193.5s66.334 -61.5 113.001 -61.5
c30.667 0 59.834 11.833 87.501 35.5s49.5 55.167 65.5 94.5z" />
    <glyph glyph-name="Ccircumflex" unicode="&#x108;" horiz-adv-x="695" 
d="M373 887c-4.66699 2.66699 -7.66797 3.5 -9.00098 2.5s-3.66602 -3.16699 -6.99902 -6.5l-40 -37c-3.33301 -2.66699 -10 -6 -20 -10s-17.333 -6 -22 -6h-28c-12 0 -20.333 4.66699 -25 14s-3.66699 18.666 3 27.999l63 83c4 6 11.5 11.667 22.5 17s19.833 8 26.5 8h54
c6.66699 0 15.5 -2.66699 26.5 -8s18.5 -11 22.5 -17l63 -83c6.66699 -9.33301 7.66699 -18.666 3 -27.999s-12.667 -14 -24 -14h-22h-31c-6.66699 8.66699 -13.334 16.667 -20.001 24c-6 7.33301 -12.167 14 -18.5 20s-12.166 10.333 -17.499 13zM655.999 174
c2.66699 5.33301 6.66406 6.00488 11.9971 2.00488c4.66699 -4 5.66699 -8.66699 3 -14c-12 -25.333 -27 -48.666 -45 -69.999s-37.667 -39.333 -59 -54s-44.166 -26.167 -68.499 -34.5s-48.833 -12.5 -73.5 -12.5c-56 0 -107 10.333 -153 31s-85.167 48.5 -117.5 83.5
s-57.5 75.667 -75.5 122s-27 95.5 -27 147.5s9 101.167 27 147.5s43.167 87 75.5 122s71.5 62.833 117.5 83.5s97 31 153 31c21.333 0 43.166 -4.16699 65.499 -12.5s44.333 -19.833 66 -34.5s42.167 -32.667 61.5 -54s36.666 -44.666 51.999 -69.999
c0.666992 -1.33301 1.33398 -3.33301 2.00098 -6s0.666992 -4.33398 0 -5.00098l-4 -3l-4 -3c-1.33301 -0.666992 -3 -0.333984 -5 0.999023s-3.33301 2.66602 -4 3.99902c-15.333 25.333 -32.166 48.166 -50.499 68.499s-37.666 37.833 -57.999 52.5s-40.833 26 -61.5 34
s-40.667 12 -60 12c-35.333 0 -67.5 -9.83301 -96.5 -29.5s-53.833 -46.334 -74.5 -80.001s-36.667 -72.667 -48 -117s-17 -91.5 -17 -141.5s5.66699 -97.167 17 -141.5s27.333 -83.333 48 -117s45.5 -60.334 74.5 -80.001s61.167 -29.5 96.5 -29.5
c22.667 0 45.334 4 68.001 12s44 19.333 64 34s38.5 32.167 55.5 52.5s31.5 43.166 43.5 68.499z" />
    <glyph glyph-name="Cdot" unicode="&#x10a;" horiz-adv-x="695" 
d="M362 830c-16.667 0 -31 6 -43 18s-18 26.333 -18 43v3c0 16.667 6 31 18 43s26.333 18 43 18h3c16.667 0 31 -6 43 -18s18 -26.333 18 -43v-3c0 -16.667 -6 -31 -18 -43s-26.333 -18 -43 -18h-3zM656 174c2.66699 5.33301 6.66406 6.00488 11.9971 2.00488
c4.66699 -4 5.66699 -8.66699 3 -14c-12 -25.333 -27 -48.666 -45 -69.999s-37.667 -39.333 -59 -54s-44.166 -26.167 -68.499 -34.5s-48.833 -12.5 -73.5 -12.5c-56 0 -107 10.333 -153 31s-85.167 48.5 -117.5 83.5s-57.5 75.667 -75.5 122s-27 95.5 -27 147.5
s9 101.167 27 147.5s43.167 87 75.5 122s71.5 62.833 117.5 83.5s97 31 153 31c21.333 0 43.166 -4.16699 65.499 -12.5s44.333 -19.833 66 -34.5s42.167 -32.667 61.5 -54s36.666 -44.666 51.999 -69.999c0.666992 -1.33301 1.33398 -3.33301 2.00098 -6
s0.666992 -4.33398 0 -5.00098l-4 -3l-4 -3c-1.33301 -0.666992 -3 -0.333984 -5 0.999023s-3.33301 2.66602 -4 3.99902c-15.333 25.333 -32.166 48.166 -50.499 68.499s-37.666 37.833 -57.999 52.5s-40.833 26 -61.5 34s-40.667 12 -60 12
c-35.333 0 -67.5 -9.83301 -96.5 -29.5s-53.833 -46.334 -74.5 -80.001s-36.667 -72.667 -48 -117s-17 -91.5 -17 -141.5s5.66699 -97.167 17 -141.5s27.333 -83.333 48 -117s45.5 -60.334 74.5 -80.001s61.167 -29.5 96.5 -29.5c22.667 0 45.334 4 68.001 12
s44 19.333 64 34s38.5 32.167 55.5 52.5s31.5 43.166 43.5 68.499z" />
    <glyph glyph-name="cdot" unicode="&#x10b;" horiz-adv-x="532" 
d="M330 600c-16.667 0 -31 6 -43 18s-18 26.333 -18 43v3c0 16.667 6 31 18 43s26.333 18 43 18h3c16.667 0 31 -6 43 -18s18 -26.333 18 -43v-3c0 -16.667 -6 -31 -18 -43s-26.333 -18 -43 -18h-3zM484 135c1.33301 4 4.99805 4.66699 10.998 2
c5.33301 -2.66699 7.33301 -6 6 -10c-16.667 -41.333 -40.167 -74.333 -70.5 -99s-63.166 -37 -98.499 -37c-42 0 -80.333 5.33301 -115 16s-64.334 27 -89.001 49s-43.667 49.833 -57 83.5s-20 73.834 -20 120.501s6.66699 86.834 20 120.501s32.333 61.5 57 83.5
s54.334 38.333 89.001 49s73 16 115 16c32.667 0 63 -13.833 91 -41.5s53.333 -64.5 76 -110.5c0.666992 -1.33301 1.16699 -3 1.5 -5s-0.166992 -3.33301 -1.5 -4l-3 -2l-5 -2c-1.33301 -0.666992 -2.83301 -0.333984 -4.5 0.999023s-2.5 2.66602 -2.5 3.99902
c-22.667 44 -46.667 79.5 -72 106.5s-52.333 40.5 -81 40.5c-46.667 0 -84.334 -20.5 -113.001 -61.5s-43 -105.833 -43 -194.5c0 -88 14.333 -152.5 43 -193.5s66.334 -61.5 113.001 -61.5c30.667 0 59.834 11.833 87.501 35.5s49.5 55.167 65.5 94.5z" />
    <glyph glyph-name="Ccaron" unicode="&#x10c;" horiz-adv-x="695" 
d="M357 927c3.33301 -3.33301 5.66895 -5.49902 7.00195 -6.49902s4.33301 -0.166992 9 2.5c5.33301 2.66699 11.166 7 17.499 13s12.166 12.167 17.499 18.5l14 17c4 5 6.33301 7.83301 7 8.5c4 5.33301 8.5 6.66602 13.5 3.99902s10.833 -4 17.5 -4h22
c11.333 0 19.333 -4.66699 24 -14s3.66699 -18.666 -3 -27.999l-63 -83c-4 -6 -11.5 -11.667 -22.5 -17s-19.833 -8 -26.5 -8h-54c-6.66699 0 -15.5 2.66699 -26.5 8s-18.5 11 -22.5 17l-63 83c-6.66699 9.33301 -7.66699 18.666 -3 27.999s13 14 25 14h28
c4.66699 0 12 -2 22 -6s16.667 -7.33301 20 -10zM656.003 174.001c2.66699 5.33301 6.66406 6.00488 11.9971 2.00488c4.66699 -4 5.66699 -8.66699 3 -14c-12 -25.333 -27 -48.666 -45 -69.999s-37.667 -39.333 -59 -54s-44.166 -26.167 -68.499 -34.5
s-48.833 -12.5 -73.5 -12.5c-56 0 -107 10.333 -153 31s-85.167 48.5 -117.5 83.5s-57.5 75.667 -75.5 122s-27 95.5 -27 147.5s9 101.167 27 147.5s43.167 87 75.5 122s71.5 62.833 117.5 83.5s97 31 153 31c21.333 0 43.166 -4.16699 65.499 -12.5
s44.333 -19.833 66 -34.5s42.167 -32.667 61.5 -54s36.666 -44.666 51.999 -69.999c0.666992 -1.33301 1.33398 -3.33301 2.00098 -6s0.666992 -4.33398 0 -5.00098l-4 -3l-4 -3c-1.33301 -0.666992 -3 -0.333984 -5 0.999023s-3.33301 2.66602 -4 3.99902
c-15.333 25.333 -32.166 48.166 -50.499 68.499s-37.666 37.833 -57.999 52.5s-40.833 26 -61.5 34s-40.667 12 -60 12c-35.333 0 -67.5 -9.83301 -96.5 -29.5s-53.833 -46.334 -74.5 -80.001s-36.667 -72.667 -48 -117s-17 -91.5 -17 -141.5s5.66699 -97.167 17 -141.5
s27.333 -83.333 48 -117s45.5 -60.334 74.5 -80.001s61.167 -29.5 96.5 -29.5c22.667 0 45.334 4 68.001 12s44 19.333 64 34s38.5 32.167 55.5 52.5s31.5 43.166 43.5 68.499z" />
    <glyph glyph-name="ccaron" unicode="&#x10d;" horiz-adv-x="532" 
d="M324 697c3.33301 -3.33301 5.66895 -5.49902 7.00195 -6.49902s4.33301 -0.166992 9 2.5c5.33301 2.66699 11.166 7 17.499 13s12.166 12.167 17.499 18.5l14 17c4 5 6.33301 7.83301 7 8.5c4 5.33301 8.5 6.66602 13.5 3.99902s10.833 -4 17.5 -4h22
c11.333 0 19.333 -4.66699 24 -14s3.66699 -18.666 -3 -27.999l-63 -83c-4 -6 -11.5 -11.667 -22.5 -17s-19.833 -8 -26.5 -8h-54c-6.66699 0 -15.5 2.66699 -26.5 8s-18.5 11 -22.5 17l-63 83c-6.66699 9.33301 -7.66699 18.666 -3 27.999s13 14 25 14h28
c4.66699 0 12 -2 22 -6s16.667 -7.33301 20 -10zM484.003 135.001c1.33301 4 4.99805 4.66699 10.998 2c5.33301 -2.66699 7.33301 -6 6 -10c-16.667 -41.333 -40.167 -74.333 -70.5 -99s-63.166 -37 -98.499 -37c-42 0 -80.333 5.33301 -115 16s-64.334 27 -89.001 49
s-43.667 49.833 -57 83.5s-20 73.834 -20 120.501s6.66699 86.834 20 120.501s32.333 61.5 57 83.5s54.334 38.333 89.001 49s73 16 115 16c32.667 0 63 -13.833 91 -41.5s53.333 -64.5 76 -110.5c0.666992 -1.33301 1.16699 -3 1.5 -5s-0.166992 -3.33301 -1.5 -4l-3 -2
l-5 -2c-1.33301 -0.666992 -2.83301 -0.333984 -4.5 0.999023s-2.5 2.66602 -2.5 3.99902c-22.667 44 -46.667 79.5 -72 106.5s-52.333 40.5 -81 40.5c-46.667 0 -84.334 -20.5 -113.001 -61.5s-43 -105.833 -43 -194.5c0 -88 14.333 -152.5 43 -193.5
s66.334 -61.5 113.001 -61.5c30.667 0 59.834 11.833 87.501 35.5s49.5 55.167 65.5 94.5z" />
    <glyph glyph-name="Dcaron" unicode="&#x10e;" horiz-adv-x="765" 
d="M323 927c3.33301 -3.33301 5.66895 -5.49902 7.00195 -6.49902s4.33301 -0.166992 9 2.5c5.33301 2.66699 11.166 7 17.499 13s12.166 12.167 17.499 18.5l14 17c4 5 6.33301 7.83301 7 8.5c4 5.33301 8.5 6.66602 13.5 3.99902s10.833 -4 17.5 -4h22
c11.333 0 19.333 -4.66699 24 -14s3.66699 -18.666 -3 -27.999l-63 -83c-4 -6 -11.5 -11.667 -22.5 -17s-19.833 -8 -26.5 -8h-54c-6.66699 0 -15.5 2.66699 -26.5 8s-18.5 11 -22.5 17l-63 83c-6.66699 9.33301 -7.66699 18.666 -3 27.999s13 14 25 14h28
c4.66699 0 12 -2 22 -6s16.667 -7.33301 20 -10zM350.003 0.000976562l-201.998 0.000976562c-16.667 0 -31 6 -43 18s-18 26.333 -18 43v628c0 16.667 6 31 18 43s26.333 18 43 18h172c129.333 0 226.666 -31.333 291.999 -94s98 -156.334 98 -281.001
c0 -128 -29.333 -222.5 -88 -283.5s-149.334 -91.5 -272.001 -91.5zM215.005 76.002c0 -16.667 5.99902 -31.001 17.999 -43.001s26.333 -18 43 -18h73c76.667 0 133.167 29.333 169.5 88s54.5 149.334 54.5 272.001c0 120 -21.167 210 -63.5 270s-105.166 90 -188.499 90
h-53c-14.667 0 -27.167 -5.16699 -37.5 -15.5s-15.5 -22.833 -15.5 -37.5v-606z" />
    <glyph glyph-name="dcaron" unicode="&#x10f;" horiz-adv-x="632" 
d="M612 698c0 16.667 6.00098 31 18.001 43s26.333 18 43 18h2c16.667 0 29.5 -6 38.5 -18s11.5 -26 7.5 -42l-13 -49c-2.66699 -10.667 -9.33398 -20.167 -20.001 -28.5s-21.667 -12.5 -33 -12.5c-12 0 -22.167 4.16699 -30.5 12.5s-12.5 18.5 -12.5 30.5v46zM175.001 260
c0 -38 2 -72.667 6 -104s9.66699 -58.166 17 -80.499s16 -39.666 26 -51.999s21.333 -18.5 34 -18.5c28 0 53.667 6.16699 77 18.5s43.333 29.666 60 51.999s29.5 49.166 38.5 80.499s13.5 66 13.5 104s-4.5 72.667 -13.5 104s-21.833 58.166 -38.5 80.499
s-36.667 39.666 -60 51.999s-49 18.5 -77 18.5c-12.667 0 -24 -6.16699 -34 -18.5s-18.667 -29.666 -26 -51.999s-13 -49.166 -17 -80.499s-6 -66 -6 -104zM50.001 260c0 40 4.83301 76.6729 14.5 110.006s23.334 61.666 41.001 84.999s39 41.5 64 54.5
s52.833 19.5 83.5 19.5c41.333 0 77.166 -11.5 107.499 -34.5s53.833 -54.833 70.5 -95.5c0.666992 -2.66699 3.5 -3.83398 8.5 -3.50098s7.5 2.16602 7.5 5.49902v292c0 15.333 5.66699 28.666 17 39.999s25 17 41 17c15.333 0 28.666 -5.66699 39.999 -17
s17 -24.666 17 -39.999v-636c0 -15.333 -5.66699 -28.666 -17 -39.999s-24.666 -17 -39.999 -17c-16 0 -29.667 5.66699 -41 17s-17 24.666 -17 39.999v62c0 3.33301 -2.5 5.16602 -7.5 5.49902s-7.83301 -0.833984 -8.5 -3.50098
c-16.667 -40.667 -40.167 -72.5 -70.5 -95.5s-66.166 -34.5 -107.499 -34.5c-30.667 0 -58.5 6.5 -83.5 19.5s-46.333 31.167 -64 54.5s-31.334 51.666 -41.001 84.999s-14.5 70 -14.5 110z" />
    <glyph glyph-name="Dcroat" unicode="&#x110;" horiz-adv-x="765" 
d="M13 369c-4 0 -5.99805 2.00098 -5.99805 6.00098s2 6 6 6h34c11.333 0 20.833 3.83301 28.5 11.5s11.5 17.167 11.5 28.5v268c0 16.667 6 31 18 43s26.333 18 43 18h172c129.333 0 226.666 -31.333 291.999 -94s98 -156.334 98 -281.001
c0 -128 -29.333 -222.5 -88 -283.5s-149.334 -91.5 -272.001 -91.5h-202c-16.667 0 -31 6 -43 18s-18 26.333 -18 43v268c0 11.333 -3.83301 20.833 -11.5 28.5s-17.167 11.5 -28.5 11.5h-34zM215.002 76.001c0 -16.667 5.99902 -31.002 17.999 -43.002s26.333 -18 43 -18
h73c76.667 0 133.167 29.333 169.5 88s54.5 149.334 54.5 272.001c0 120 -21.167 210 -63.5 270s-105.166 90 -188.499 90h-53c-14.667 0 -27.167 -5.16699 -37.5 -15.5s-15.5 -22.833 -15.5 -37.5v-243c0 -16 5.66699 -29.667 17 -41s25 -17 41 -17h51c4 0 6 -2 6 -6
s-2 -6 -6 -6h-51c-16 0 -29.667 -5.66699 -41 -17s-17 -24.666 -17 -39.999v-236z" />
    <glyph glyph-name="dcroat" unicode="&#x111;" horiz-adv-x="632" 
d="M259 634c-4 0 -6.00098 2.00684 -6.00098 6.00684s2 6 6 6h136c14.667 0 27 5 37 15s15 22.333 15 37s5 27 15 37s22.333 15 37 15h11c14.667 0 27 -5 37 -15s15 -22.333 15 -37s5 -27 15 -37s22.333 -15 37 -15h55c4 0 6 -2 6 -6s-2 -6 -6 -6h-50
c-16 0 -29.5 -5.5 -40.5 -16.5s-16.5 -24.167 -16.5 -39.5v-520c0 -16 -5.66699 -29.667 -17 -41s-24.666 -17 -39.999 -17c-16 0 -29.667 5.66699 -41 17s-17 24.666 -17 39.999v62c0 3.33301 -2.5 5.16602 -7.5 5.49902s-7.83301 -0.833984 -8.5 -3.50098
c-16.667 -40.667 -40.167 -72.5 -70.5 -95.5s-66.166 -34.5 -107.499 -34.5c-30.667 0 -58.5 6.5 -83.5 19.5s-46.333 31.167 -64 54.5s-31.334 51.666 -41.001 84.999s-14.5 70 -14.5 110s4.83301 76.667 14.5 110s23.334 61.666 41.001 84.999s39 41.5 64 54.5
s52.833 19.5 83.5 19.5c41.333 0 77.166 -11.5 107.499 -34.5s53.833 -54.833 70.5 -95.5c0.666992 -2.66699 3.5 -3.83398 8.5 -3.50098s7.5 2.16602 7.5 5.49902v172c0 16.667 -6 31 -18 43s-26.333 18 -43 18h-127zM174.999 260.007c0 -38 2 -72.667 6 -104
s9.66699 -58.166 17 -80.499s16 -39.666 26 -51.999s21.333 -18.5 34 -18.5c28 0 53.667 6.16699 77 18.5s43.333 29.666 60 51.999s29.5 49.166 38.5 80.499s13.5 66 13.5 104s-4.5 72.667 -13.5 104s-21.833 58.166 -38.5 80.499s-36.667 39.666 -60 51.999
s-49 18.5 -77 18.5c-12.667 0 -24 -6.16699 -34 -18.5s-18.667 -29.666 -26 -51.999s-13 -49.166 -17 -80.499s-6 -66 -6 -104z" />
    <glyph glyph-name="Emacron" unicode="&#x112;" horiz-adv-x="640" 
d="M231 830c-11.333 0 -20.833 3.83301 -28.5 11.5s-11.5 17.167 -11.5 28.5s3.83301 20.833 11.5 28.5s17.167 11.5 28.5 11.5h200c11.333 0 20.833 -3.83301 28.5 -11.5s11.5 -17.167 11.5 -28.5s-3.83301 -20.833 -11.5 -28.5s-17.167 -11.5 -28.5 -11.5h-200zM582 16
c5.33301 0 8 -2.66699 8 -8s-2.66699 -8 -8 -8h-434c-16.667 0 -31 6 -43 18s-18 26.333 -18 43v628c0 16.667 6 31 18 43s26.333 18 43 18h419c5.33301 0 8 -2.66699 8 -8s-2.66699 -8 -8 -8h-291c-16.667 0 -31 -6 -43 -18s-18 -26.333 -18 -43v-218
c0 -16.667 6 -31 18 -43s26.333 -18 43 -18h272c4.66699 0 7 -2.33301 7 -7s-2.33301 -7 -7 -7h-272c-16.667 0 -31 -6 -43 -18s-18 -26.333 -18 -43v-242c0 -16.667 6 -31 18 -43s26.333 -18 43 -18h306z" />
    <glyph glyph-name="emacron" unicode="&#x113;" horiz-adv-x="538" 
d="M187 600c-11.333 0 -20.833 3.83301 -28.5 11.5s-11.5 17.167 -11.5 28.5s3.83301 20.833 11.5 28.5s17.167 11.5 28.5 11.5h200c11.333 0 20.833 -3.83301 28.5 -11.5s11.5 -17.167 11.5 -28.5s-3.83301 -20.833 -11.5 -28.5s-17.167 -11.5 -28.5 -11.5h-200zM490 134
c1.33301 4 4.66699 5.00098 10 3.00098c4.66699 -2.66699 6.33398 -6 5.00098 -10c-6 -20.667 -16 -39.334 -30 -56.001s-31 -31 -51 -43s-42.333 -21.167 -67 -27.5s-51 -9.5 -79 -9.5c-34 0 -65.167 5.33301 -93.5 16s-52.5 27 -72.5 49s-35.5 49.833 -46.5 83.5
s-16.5 73.834 -16.5 120.501s5.66699 86.834 17 120.501s27.333 61.5 48 83.5s45.667 38.333 75 49s61.666 16 96.999 16c37.333 0 69.833 -5.16699 97.5 -15.5s51 -25 70 -44s33.833 -42 44.5 -69s18 -57.167 22 -90.5c2 -18.667 -2.5 -33.334 -13.5 -44.001
s-25.833 -16 -44.5 -16h-226c-18 0 -32.833 -5.33301 -44.5 -16s-16.5 -25 -14.5 -43c4.66699 -64 16.167 -111 34.5 -141s40.833 -45 67.5 -45c52 0 97.167 11.667 135.5 35s63.5 54.666 75.5 93.999zM346.001 262.001c18.667 0 33.502 6.16602 44.502 18.499
s15.833 27.833 14.5 46.5c-5.33301 58.667 -17.333 104.834 -36 138.501s-46.334 50.5 -83.001 50.5c-29.333 0 -53.833 -15.333 -73.5 -46s-31.834 -79.667 -36.501 -147c-1.33301 -18 3.66699 -32.667 15 -44s26 -17 44 -17h111z" />
    <glyph glyph-name="Ebreve" unicode="&#x114;" horiz-adv-x="640" 
d="M185 923c-3.33301 14 -1.6709 24.5 4.99609 31.5s17.667 10.5 33 10.5h23c4 0 8.33301 -2.16699 13 -6.5s7.33398 -8.5 8.00098 -12.5c4 -14 11.5 -25 22.5 -33s24.833 -12 41.5 -12s30.5 4 41.5 12s18.5 19 22.5 33c0.666992 4 3.33398 8.16699 8.00098 12.5
s9 6.5 13 6.5h24c14.667 0 25.334 -3.5 32.001 -10.5s8.33398 -17.5 5.00098 -31.5c-8.66699 -31.333 -25.667 -56.166 -51 -74.499s-57 -27.5 -95 -27.5s-69.667 9.16699 -95 27.5s-42.333 43.166 -51 74.499zM581.995 16c5.33301 0 8 -2.66699 8 -8s-2.66699 -8 -8 -8
h-434c-16.667 0 -31 6 -43 18s-18 26.333 -18 43v628c0 16.667 6 31 18 43s26.333 18 43 18h419c5.33301 0 8 -2.66699 8 -8s-2.66699 -8 -8 -8h-291c-16.667 0 -31 -6 -43 -18s-18 -26.333 -18 -43v-218c0 -16.667 6 -31 18 -43s26.333 -18 43 -18h272
c4.66699 0 7 -2.33301 7 -7s-2.33301 -7 -7 -7h-272c-16.667 0 -31 -6 -43 -18s-18 -26.333 -18 -43v-242c0 -16.667 6 -31 18 -43s26.333 -18 43 -18h306z" />
    <glyph glyph-name="ebreve" unicode="&#x115;" horiz-adv-x="538" 
d="M141 693c-3.33301 14 -1.6709 24.5 4.99609 31.5s17.667 10.5 33 10.5h23c4 0 8.33301 -2.16699 13 -6.5s7.33398 -8.5 8.00098 -12.5c4 -14 11.5 -25 22.5 -33s24.833 -12 41.5 -12s30.5 4 41.5 12s18.5 19 22.5 33c0.666992 4 3.33398 8.16699 8.00098 12.5
s9 6.5 13 6.5h24c14.667 0 25.334 -3.5 32.001 -10.5s8.33398 -17.5 5.00098 -31.5c-8.66699 -31.333 -25.667 -56.166 -51 -74.499s-57 -27.5 -95 -27.5s-69.667 9.16699 -95 27.5s-42.333 43.166 -51 74.499zM489.995 134c1.33301 4 4.66699 5.00098 10 3.00098
c4.66699 -2.66699 6.33398 -6 5.00098 -10c-6 -20.667 -16 -39.334 -30 -56.001s-31 -31 -51 -43s-42.333 -21.167 -67 -27.5s-51 -9.5 -79 -9.5c-34 0 -65.167 5.33301 -93.5 16s-52.5 27 -72.5 49s-35.5 49.833 -46.5 83.5s-16.5 73.834 -16.5 120.501
s5.66699 86.834 17 120.501s27.333 61.5 48 83.5s45.667 38.333 75 49s61.666 16 96.999 16c37.333 0 69.833 -5.16699 97.5 -15.5s51 -25 70 -44s33.833 -42 44.5 -69s18 -57.167 22 -90.5c2 -18.667 -2.5 -33.334 -13.5 -44.001s-25.833 -16 -44.5 -16h-226
c-18 0 -32.833 -5.33301 -44.5 -16s-16.5 -25 -14.5 -43c4.66699 -64 16.167 -111 34.5 -141s40.833 -45 67.5 -45c52 0 97.167 11.667 135.5 35s63.5 54.666 75.5 93.999zM345.996 262.001c18.667 0 33.502 6.16602 44.502 18.499s15.833 27.833 14.5 46.5
c-5.33301 58.667 -17.333 104.834 -36 138.501s-46.334 50.5 -83.001 50.5c-29.333 0 -53.833 -15.333 -73.5 -46s-31.834 -79.667 -36.501 -147c-1.33301 -18 3.66699 -32.667 15 -44s26 -17 44 -17h111z" />
    <glyph glyph-name="Edot" unicode="&#x116;" horiz-adv-x="640" 
d="M330 830c-16.667 0 -31 6 -43 18s-18 26.333 -18 43v3c0 16.667 6 31 18 43s26.333 18 43 18h3c16.667 0 31 -6 43 -18s18 -26.333 18 -43v-3c0 -16.667 -6 -31 -18 -43s-26.333 -18 -43 -18h-3zM582 16c5.33301 0 8 -2.66699 8 -8s-2.66699 -8 -8 -8h-434
c-16.667 0 -31 6 -43 18s-18 26.333 -18 43v628c0 16.667 6 31 18 43s26.333 18 43 18h419c5.33301 0 8 -2.66699 8 -8s-2.66699 -8 -8 -8h-291c-16.667 0 -31 -6 -43 -18s-18 -26.333 -18 -43v-218c0 -16.667 6 -31 18 -43s26.333 -18 43 -18h272
c4.66699 0 7 -2.33301 7 -7s-2.33301 -7 -7 -7h-272c-16.667 0 -31 -6 -43 -18s-18 -26.333 -18 -43v-242c0 -16.667 6 -31 18 -43s26.333 -18 43 -18h306z" />
    <glyph glyph-name="edot" unicode="&#x117;" horiz-adv-x="538" 
d="M286 600c-16.667 0 -31 6 -43 18s-18 26.333 -18 43v3c0 16.667 6 31 18 43s26.333 18 43 18h3c16.667 0 31 -6 43 -18s18 -26.333 18 -43v-3c0 -16.667 -6 -31 -18 -43s-26.333 -18 -43 -18h-3zM490 134c1.33301 4 4.66699 5.00098 10 3.00098
c4.66699 -2.66699 6.33398 -6 5.00098 -10c-6 -20.667 -16 -39.334 -30 -56.001s-31 -31 -51 -43s-42.333 -21.167 -67 -27.5s-51 -9.5 -79 -9.5c-34 0 -65.167 5.33301 -93.5 16s-52.5 27 -72.5 49s-35.5 49.833 -46.5 83.5s-16.5 73.834 -16.5 120.501
s5.66699 86.834 17 120.501s27.333 61.5 48 83.5s45.667 38.333 75 49s61.666 16 96.999 16c37.333 0 69.833 -5.16699 97.5 -15.5s51 -25 70 -44s33.833 -42 44.5 -69s18 -57.167 22 -90.5c2 -18.667 -2.5 -33.334 -13.5 -44.001s-25.833 -16 -44.5 -16h-226
c-18 0 -32.833 -5.33301 -44.5 -16s-16.5 -25 -14.5 -43c4.66699 -64 16.167 -111 34.5 -141s40.833 -45 67.5 -45c52 0 97.167 11.667 135.5 35s63.5 54.666 75.5 93.999zM346.001 262.001c18.667 0 33.502 6.16602 44.502 18.499s15.833 27.833 14.5 46.5
c-5.33301 58.667 -17.333 104.834 -36 138.501s-46.334 50.5 -83.001 50.5c-29.333 0 -53.833 -15.333 -73.5 -46s-31.834 -79.667 -36.501 -147c-1.33301 -18 3.66699 -32.667 15 -44s26 -17 44 -17h111z" />
    <glyph glyph-name="Eogonek" unicode="&#x118;" horiz-adv-x="640" 
d="M582 16c5.33301 0 7.99805 -2.66992 7.99805 -8.00293c-0.666992 -5.33301 -3.66699 -8 -9 -8h-218c-2 0 -4.66699 -0.5 -8 -1.5s-6 -2.16699 -8 -3.5c-4.66699 -4 -9.66699 -9.33301 -15 -16s-10.333 -14.167 -15 -22.5s-8.66699 -17 -12 -26s-5 -17.5 -5 -25.5
c0 -29.333 6.83301 -52.833 20.5 -70.5s32.167 -26.5 55.5 -26.5c14 0 27.5 2.66699 40.5 8s23.5 12.333 31.5 21c2 2 3.33301 1.33301 4 -2c0 -2.66699 -1 -5 -3 -7c-8.66699 -9.33301 -19.667 -16.666 -33 -21.999s-27 -8 -41 -8c-42 0 -75.667 8.66699 -101 26
s-38 40.333 -38 69c0 5.33301 2.83301 11.833 8.5 19.5s12.834 15.834 21.501 24.501s18.334 17.334 29.001 26.001s21 16.667 31 24c2.66699 2 3.5 4.66699 2.5 8s-3.16699 5 -6.5 5h-174c-16.667 0 -31 6 -43 18s-18 26.333 -18 43v628c0 16.667 6 31 18 43
s26.333 18 43 18h419c5.33301 0 8 -2.66699 8 -8s-2.66699 -8 -8 -8h-291c-16.667 0 -31 -6 -43 -18s-18 -26.333 -18 -43v-218c0 -16.667 6 -31 18 -43s26.333 -18 43 -18h272c4.66699 0 7 -2.33301 7 -7s-2.33301 -7 -7 -7h-272c-16.667 0 -31 -6 -43 -18
s-18 -26.333 -18 -43v-242c0 -16.667 6 -31 18 -43s26.333 -18 43 -18h306z" />
    <glyph glyph-name="eogonek" unicode="&#x119;" horiz-adv-x="538" 
d="M490 134c1.33301 4 4.66895 4.99902 10.002 2.99902c4.66699 -2 6 -6 4 -12c-11.333 -34 -33 -62.667 -65 -86c0 -0.666992 -1.5 -2.16699 -4.5 -4.5s-4.5 -3.83301 -4.5 -4.5c-9.33301 -10 -18.833 -24.833 -28.5 -44.5s-14.5 -39.834 -14.5 -60.501
c0 -35.333 6.83301 -63.666 20.5 -84.999s32.167 -32 55.5 -32c14 0 27.5 2.66699 40.5 8s23.5 12.333 31.5 21c2 2 3.33301 1.33301 4 -2c0 -2.66699 -1 -5 -3 -7c-8.66699 -9.33301 -19.667 -16.666 -33 -21.999s-27 -8 -41 -8c-42 0 -75.667 10.5 -101 31.5
s-38 49.167 -38 84.5c0 12 6.33301 26.333 19 43s27 32.334 43 47.001c1.33301 0.666992 1.16602 1.66699 -0.500977 3s-3.16699 1.66602 -4.5 0.999023c-31.333 -11.333 -65.333 -17 -102 -17c-34 0 -65.167 5.33301 -93.5 16s-52.5 27 -72.5 49s-35.5 49.833 -46.5 83.5
s-16.5 73.834 -16.5 120.501s5.66699 86.834 17 120.501s27.333 61.5 48 83.5s45.667 38.333 75 49s61.666 16 96.999 16c37.333 0 69.833 -5.16699 97.5 -15.5s51 -25 70 -44s33.833 -42 44.5 -69s18 -57.167 22 -90.5c2 -18.667 -2.5 -33.334 -13.5 -44.001
s-25.833 -16 -44.5 -16h-226c-18 0 -32.833 -5.33301 -44.5 -16s-16.5 -25 -14.5 -43c4.66699 -64 16.167 -111 34.5 -141s40.833 -45 67.5 -45c52 0 97.167 11.667 135.5 35s63.5 54.666 75.5 93.999zM346.003 262.999c18.667 0 33.502 6.16602 44.502 18.499
s15.833 27.833 14.5 46.5c-5.33301 58.667 -17.333 104.834 -36 138.501s-46.334 50.5 -83.001 50.5c-29.333 0 -53.833 -15.333 -73.5 -46s-31.834 -79.667 -36.501 -147c-1.33301 -18 3.66699 -32.667 15 -44s26 -17 44 -17h111z" />
    <glyph glyph-name="Ecaron" unicode="&#x11a;" horiz-adv-x="640" 
d="M324 927c3.33301 -3.33301 5.66895 -5.49902 7.00195 -6.49902s4.33301 -0.166992 9 2.5c5.33301 2.66699 11.166 7 17.499 13s12.166 12.167 17.499 18.5l14 17c4 5 6.33301 7.83301 7 8.5c4 5.33301 8.5 6.66602 13.5 3.99902s10.833 -4 17.5 -4h22
c11.333 0 19.333 -4.66699 24 -14s3.66699 -18.666 -3 -27.999l-63 -83c-4 -6 -11.5 -11.667 -22.5 -17s-19.833 -8 -26.5 -8h-54c-6.66699 0 -15.5 2.66699 -26.5 8s-18.5 11 -22.5 17l-63 83c-6.66699 9.33301 -7.66699 18.666 -3 27.999s13 14 25 14h28
c4.66699 0 12 -2 22 -6s16.667 -7.33301 20 -10zM582.003 16.001c5.33301 0 8 -2.66699 8 -8s-2.66699 -8 -8 -8h-434c-16.667 0 -31 6 -43 18s-18 26.333 -18 43v628c0 16.667 6 31 18 43s26.333 18 43 18h419c5.33301 0 8 -2.66699 8 -8s-2.66699 -8 -8 -8h-291
c-16.667 0 -31 -6 -43 -18s-18 -26.333 -18 -43v-218c0 -16.667 6 -31 18 -43s26.333 -18 43 -18h272c4.66699 0 7 -2.33301 7 -7s-2.33301 -7 -7 -7h-272c-16.667 0 -31 -6 -43 -18s-18 -26.333 -18 -43v-242c0 -16.667 6 -31 18 -43s26.333 -18 43 -18h306z" />
    <glyph glyph-name="ecaron" unicode="&#x11b;" horiz-adv-x="538" 
d="M280 697c3.33301 -3.33301 5.66895 -5.49902 7.00195 -6.49902s4.33301 -0.166992 9 2.5c5.33301 2.66699 11.166 7 17.499 13s12.166 12.167 17.499 18.5l14 17c4 5 6.33301 7.83301 7 8.5c4 5.33301 8.5 6.66602 13.5 3.99902s10.833 -4 17.5 -4h22
c11.333 0 19.333 -4.66699 24 -14s3.66699 -18.666 -3 -27.999l-63 -83c-4 -6 -11.5 -11.667 -22.5 -17s-19.833 -8 -26.5 -8h-54c-6.66699 0 -15.5 2.66699 -26.5 8s-18.5 11 -22.5 17l-63 83c-6.66699 9.33301 -7.66699 18.666 -3 27.999s13 14 25 14h28
c4.66699 0 12 -2 22 -6s16.667 -7.33301 20 -10zM490.003 134.001c1.33301 4 4.66699 5.00098 10 3.00098c4.66699 -2.66699 6.33398 -6 5.00098 -10c-6 -20.667 -16 -39.334 -30 -56.001s-31 -31 -51 -43s-42.333 -21.167 -67 -27.5s-51 -9.5 -79 -9.5
c-34 0 -65.167 5.33301 -93.5 16s-52.5 27 -72.5 49s-35.5 49.833 -46.5 83.5s-16.5 73.834 -16.5 120.501s5.66699 86.834 17 120.501s27.333 61.5 48 83.5s45.667 38.333 75 49s61.666 16 96.999 16c37.333 0 69.833 -5.16699 97.5 -15.5s51 -25 70 -44
s33.833 -42 44.5 -69s18 -57.167 22 -90.5c2 -18.667 -2.5 -33.334 -13.5 -44.001s-25.833 -16 -44.5 -16h-226c-18 0 -32.833 -5.33301 -44.5 -16s-16.5 -25 -14.5 -43c4.66699 -64 16.167 -111 34.5 -141s40.833 -45 67.5 -45c52 0 97.167 11.667 135.5 35
s63.5 54.666 75.5 93.999zM346.004 262.002c18.667 0 33.502 6.16602 44.502 18.499s15.833 27.833 14.5 46.5c-5.33301 58.667 -17.333 104.834 -36 138.501s-46.334 50.5 -83.001 50.5c-29.333 0 -53.833 -15.333 -73.5 -46s-31.834 -79.667 -36.501 -147
c-1.33301 -18 3.66699 -32.667 15 -44s26 -17 44 -17h111z" />
    <glyph glyph-name="Gcircumflex" unicode="&#x11c;" horiz-adv-x="746" 
d="M456 887c-4.66699 2.66699 -7.66797 3.5 -9.00098 2.5s-3.66602 -3.16699 -6.99902 -6.5l-40 -37c-3.33301 -2.66699 -10 -6 -20 -10s-17.333 -6 -22 -6h-28c-12 0 -20.333 4.66699 -25 14s-3.66699 18.666 3 27.999l63 83c4 6 11.5 11.667 22.5 17s19.833 8 26.5 8h54
c6.66699 0 15.5 -2.66699 26.5 -8s18.5 -11 22.5 -17l63 -83c6.66699 -9.33301 7.66699 -18.666 3 -27.999s-12.667 -14 -24 -14h-22h-31c-6.66699 8.66699 -13.334 16.667 -20.001 24c-6 7.33301 -12.167 14 -18.5 20s-12.166 10.333 -17.499 13zM459.999 395
c-5.33301 0 -8.00098 2.66992 -8.00098 8.00293s2.66699 8 8 8h180c16.667 0 31 -6 43 -18s18 -26.333 18 -43v-217c0 -6.66699 -2.83301 -15.5 -8.5 -26.5s-11.167 -18.5 -16.5 -22.5c-37.333 -28.667 -75.833 -51.334 -115.5 -68.001s-77.5 -25 -113.5 -25
c-59.333 0 -113.333 9.16699 -162 27.5s-90.167 44.333 -124.5 78s-61 74.167 -80 121.5s-28.5 99.666 -28.5 156.999s9.5 109.666 28.5 156.999s45.667 87.833 80 121.5s75.833 59.667 124.5 78s102.667 27.5 162 27.5c18 0 36.833 -4.16699 56.5 -12.5
s39 -19.833 58 -34.5s37.667 -32.667 56 -54s35.166 -44.666 50.499 -69.999c0.666992 -1.33301 1.33398 -3.33301 2.00098 -6s0.666992 -4.33398 0 -5.00098l-4 -3l-4 -3c-1.33301 -0.666992 -3 -0.333984 -5 0.999023s-3.33301 2.66602 -4 3.99902
c-14.667 25.333 -30.667 48.166 -48 68.499s-35 37.833 -53 52.5s-36 26 -54 34s-35 12 -51 12c-38.667 0 -73.834 -8.83301 -105.501 -26.5s-58.834 -42.5 -81.501 -74.5s-40.167 -70.667 -52.5 -116s-18.5 -95.666 -18.5 -150.999s6.16699 -105.666 18.5 -150.999
s29.833 -84 52.5 -116s49.834 -56.833 81.501 -74.5s66.834 -26.5 105.501 -26.5c32.667 0 67.334 7.83301 104.001 23.5s72.667 36.834 108 63.501c5.33301 4.66699 10.5 12.167 15.5 22.5s7.5 18.833 7.5 25.5v192c0 16.667 -6 31 -18 43s-26.333 18 -43 18h-161z" />
    <glyph glyph-name="Gbreve" unicode="&#x11e;" horiz-adv-x="746" 
d="M301 923c-3.33301 14 -1.6709 24.5 4.99609 31.5s17.667 10.5 33 10.5h23c4 0 8.33301 -2.16699 13 -6.5s7.33398 -8.5 8.00098 -12.5c4 -14 11.5 -25 22.5 -33s24.833 -12 41.5 -12s30.5 4 41.5 12s18.5 19 22.5 33c0.666992 4 3.33398 8.16699 8.00098 12.5
s9 6.5 13 6.5h24c14.667 0 25.334 -3.5 32.001 -10.5s8.33398 -17.5 5.00098 -31.5c-8.66699 -31.333 -25.667 -56.166 -51 -74.499s-57 -27.5 -95 -27.5s-69.667 9.16699 -95 27.5s-42.333 43.166 -51 74.499zM459.995 395c-5.33301 0 -8.00098 2.66992 -8.00098 8.00293
s2.66699 8 8 8h180c16.667 0 31 -6 43 -18s18 -26.333 18 -43v-217c0 -6.66699 -2.83301 -15.5 -8.5 -26.5s-11.167 -18.5 -16.5 -22.5c-37.333 -28.667 -75.833 -51.334 -115.5 -68.001s-77.5 -25 -113.5 -25c-59.333 0 -113.333 9.16699 -162 27.5
s-90.167 44.333 -124.5 78s-61 74.167 -80 121.5s-28.5 99.666 -28.5 156.999s9.5 109.666 28.5 156.999s45.667 87.833 80 121.5s75.833 59.667 124.5 78s102.667 27.5 162 27.5c18 0 36.833 -4.16699 56.5 -12.5s39 -19.833 58 -34.5s37.667 -32.667 56 -54
s35.166 -44.666 50.499 -69.999c0.666992 -1.33301 1.33398 -3.33301 2.00098 -6s0.666992 -4.33398 0 -5.00098l-4 -3l-4 -3c-1.33301 -0.666992 -3 -0.333984 -5 0.999023s-3.33301 2.66602 -4 3.99902c-14.667 25.333 -30.667 48.166 -48 68.499s-35 37.833 -53 52.5
s-36 26 -54 34s-35 12 -51 12c-38.667 0 -73.834 -8.83301 -105.501 -26.5s-58.834 -42.5 -81.501 -74.5s-40.167 -70.667 -52.5 -116s-18.5 -95.666 -18.5 -150.999s6.16699 -105.666 18.5 -150.999s29.833 -84 52.5 -116s49.834 -56.833 81.501 -74.5
s66.834 -26.5 105.501 -26.5c32.667 0 67.334 7.83301 104.001 23.5s72.667 36.834 108 63.501c5.33301 4.66699 10.5 12.167 15.5 22.5s7.5 18.833 7.5 25.5v192c0 16.667 -6 31 -18 43s-26.333 18 -43 18h-161z" />
    <glyph glyph-name="gbreve" unicode="&#x11f;" horiz-adv-x="622" 
d="M155 693c-3.33301 14 -1.6709 24.5 4.99609 31.5s17.667 10.5 33 10.5h23c4 0 8.33301 -2.16699 13 -6.5s7.33398 -8.5 8.00098 -12.5c4 -14 11.5 -25 22.5 -33s24.833 -12 41.5 -12s30.5 4 41.5 12s18.5 19 22.5 33c0.666992 4 3.33398 8.16699 8.00098 12.5
s9 6.5 13 6.5h24c14.667 0 25.334 -3.5 32.001 -10.5s8.33398 -17.5 5.00098 -31.5c-8.66699 -31.333 -25.667 -56.166 -51 -74.499s-57 -27.5 -95 -27.5s-69.667 9.16699 -95 27.5s-42.333 43.166 -51 74.499zM76.9951 -96c-1.33301 5.33301 1.66602 8 8.99902 8
c1.33301 0 3.33301 -1.16699 6 -3.5s4 -4.16602 4 -5.49902c6 -18.667 28.167 -31.834 66.5 -39.501s87.833 -11.5 148.5 -11.5c46 0 78.5 13.5 97.5 40.5s28.5 62.833 28.5 107.5v122c0 2.66699 -2.5 4.33398 -7.5 5.00098s-7.83301 -0.333008 -8.5 -3
c-16 -39.333 -38.833 -70 -68.5 -92s-64.5 -33 -104.5 -33c-30 0 -57.167 4.83301 -81.5 14.5s-45.166 24.834 -62.499 45.501s-30.666 47.5 -39.999 80.5s-14 72.833 -14 119.5c0 48.667 4.66699 90 14 124s22.666 61.833 39.999 83.5s38.166 37.334 62.499 47.001
s51.5 14.5 81.5 14.5c40 0 74.833 -11.333 104.5 -34s52.5 -54.334 68.5 -95.001c0.666992 -2.66699 3.5 -3.66699 8.5 -3s7.5 2.66699 7.5 6v61c0 15.333 5.66699 28.666 17 39.999s25 17 41 17c15.333 0 28.666 -5.66699 39.999 -17s17 -24.666 17 -39.999v-414
c0 -32 -4.33301 -60.833 -13 -86.5s-22.667 -47.834 -42 -66.501s-44.166 -33 -74.499 -43s-67.166 -15 -110.499 -15c-67.333 0 -122.333 5.16699 -165 15.5s-66 27.166 -70 50.499zM174.994 260c0 -88.667 7.16699 -151.832 21.5 -189.499s33.166 -56.5 56.499 -56.5
c27.333 0 52.333 5.83301 75 17.5s42 28.334 58 50.001s28.5 47.667 37.5 78s13.5 63.833 13.5 100.5c0 38 -4.5 72.667 -13.5 104s-21.5 58.166 -37.5 80.499s-35.333 39.666 -58 51.999s-47.667 18.5 -75 18.5c-23.333 0 -42.166 -19.5 -56.499 -58.5
s-21.5 -104.5 -21.5 -196.5z" />
    <glyph glyph-name="Gdot" unicode="&#x120;" horiz-adv-x="746" 
d="M446 830c-16.667 0 -31 6 -43 18s-18 26.333 -18 43v3c0 16.667 6 31 18 43s26.333 18 43 18h3c16.667 0 31 -6 43 -18s18 -26.333 18 -43v-3c0 -16.667 -6 -31 -18 -43s-26.333 -18 -43 -18h-3zM460 395c-5.33301 0 -8.00098 2.66992 -8.00098 8.00293s2.66699 8 8 8
h180c16.667 0 31 -6 43 -18s18 -26.333 18 -43v-217c0 -6.66699 -2.83301 -15.5 -8.5 -26.5s-11.167 -18.5 -16.5 -22.5c-37.333 -28.667 -75.833 -51.334 -115.5 -68.001s-77.5 -25 -113.5 -25c-59.333 0 -113.333 9.16699 -162 27.5s-90.167 44.333 -124.5 78
s-61 74.167 -80 121.5s-28.5 99.666 -28.5 156.999s9.5 109.666 28.5 156.999s45.667 87.833 80 121.5s75.833 59.667 124.5 78s102.667 27.5 162 27.5c18 0 36.833 -4.16699 56.5 -12.5s39 -19.833 58 -34.5s37.667 -32.667 56 -54s35.166 -44.666 50.499 -69.999
c0.666992 -1.33301 1.33398 -3.33301 2.00098 -6s0.666992 -4.33398 0 -5.00098l-4 -3l-4 -3c-1.33301 -0.666992 -3 -0.333984 -5 0.999023s-3.33301 2.66602 -4 3.99902c-14.667 25.333 -30.667 48.166 -48 68.499s-35 37.833 -53 52.5s-36 26 -54 34s-35 12 -51 12
c-38.667 0 -73.834 -8.83301 -105.501 -26.5s-58.834 -42.5 -81.501 -74.5s-40.167 -70.667 -52.5 -116s-18.5 -95.666 -18.5 -150.999s6.16699 -105.666 18.5 -150.999s29.833 -84 52.5 -116s49.834 -56.833 81.501 -74.5s66.834 -26.5 105.501 -26.5
c32.667 0 67.334 7.83301 104.001 23.5s72.667 36.834 108 63.501c5.33301 4.66699 10.5 12.167 15.5 22.5s7.5 18.833 7.5 25.5v192c0 16.667 -6 31 -18 43s-26.333 18 -43 18h-161z" />
    <glyph glyph-name="gdot" unicode="&#x121;" horiz-adv-x="622" 
d="M300 600c-16.667 0 -31 6 -43 18s-18 26.333 -18 43v3c0 16.667 6 31 18 43s26.333 18 43 18h3c16.667 0 31 -6 43 -18s18 -26.333 18 -43v-3c0 -16.667 -6 -31 -18 -43s-26.333 -18 -43 -18h-3zM77 -96c-1.33301 5.33301 1.66602 8 8.99902 8
c1.33301 0 3.33301 -1.16699 6 -3.5s4 -4.16602 4 -5.49902c6 -18.667 28.167 -31.834 66.5 -39.501s87.833 -11.5 148.5 -11.5c46 0 78.5 13.5 97.5 40.5s28.5 62.833 28.5 107.5v122c0 2.66699 -2.5 4.33398 -7.5 5.00098s-7.83301 -0.333008 -8.5 -3
c-16 -39.333 -38.833 -70 -68.5 -92s-64.5 -33 -104.5 -33c-30 0 -57.167 4.83301 -81.5 14.5s-45.166 24.834 -62.499 45.501s-30.666 47.5 -39.999 80.5s-14 72.833 -14 119.5c0 48.667 4.66699 90 14 124s22.666 61.833 39.999 83.5s38.166 37.334 62.499 47.001
s51.5 14.5 81.5 14.5c40 0 74.833 -11.333 104.5 -34s52.5 -54.334 68.5 -95.001c0.666992 -2.66699 3.5 -3.66699 8.5 -3s7.5 2.66699 7.5 6v61c0 15.333 5.66699 28.666 17 39.999s25 17 41 17c15.333 0 28.666 -5.66699 39.999 -17s17 -24.666 17 -39.999v-414
c0 -32 -4.33301 -60.833 -13 -86.5s-22.667 -47.834 -42 -66.501s-44.166 -33 -74.499 -43s-67.166 -15 -110.499 -15c-67.333 0 -122.333 5.16699 -165 15.5s-66 27.166 -70 50.499zM174.999 260c0 -88.667 7.16699 -151.832 21.5 -189.499s33.166 -56.5 56.499 -56.5
c27.333 0 52.333 5.83301 75 17.5s42 28.334 58 50.001s28.5 47.667 37.5 78s13.5 63.833 13.5 100.5c0 38 -4.5 72.667 -13.5 104s-21.5 58.166 -37.5 80.499s-35.333 39.666 -58 51.999s-47.667 18.5 -75 18.5c-23.333 0 -42.166 -19.5 -56.499 -58.5
s-21.5 -104.5 -21.5 -196.5z" />
    <glyph glyph-name="Hcircumflex" unicode="&#x124;" horiz-adv-x="778" 
d="M399 887c-4.66699 2.66699 -7.66797 3.5 -9.00098 2.5s-3.66602 -3.16699 -6.99902 -6.5l-40 -37c-3.33301 -2.66699 -10 -6 -20 -10s-17.333 -6 -22 -6h-28c-12 0 -20.333 4.66699 -25 14s-3.66699 18.666 3 27.999l63 83c4 6 11.5 11.667 22.5 17s19.833 8 26.5 8h54
c6.66699 0 15.5 -2.66699 26.5 -8s18.5 -11 22.5 -17l63 -83c6.66699 -9.33301 7.66699 -18.666 3 -27.999s-12.667 -14 -24 -14h-22h-31c-6.66699 8.66699 -13.334 16.667 -20.001 24c-6 7.33301 -12.167 14 -18.5 20s-12.166 10.333 -17.499 13zM692.999 61
c0 -16.667 -6 -31 -18 -43s-26.333 -18 -43 -18h-6c-16.667 0 -31 6 -43 18s-18 26.333 -18 43v265c0 16.667 -6 31 -18 43s-26.333 18 -43 18h-228c-16.667 0 -31 -6 -43 -18s-18 -26.333 -18 -43v-265c0 -16.667 -6 -31 -18 -43s-26.333 -18 -43 -18h-6
c-16.667 0 -31 6 -43 18s-18 26.333 -18 43v628c0 16.667 6 31 18 43s26.333 18 43 18h6c16.667 0 31 -6 43 -18s18 -26.333 18 -43v-225c0 -16.667 6 -31 18 -43s26.333 -18 43 -18h228c16.667 0 31 6 43 18s18 26.333 18 43v225c0 16.667 6 31 18 43s26.333 18 43 18h6
c16.667 0 31 -6 43 -18s18 -26.333 18 -43v-628z" />
    </font>
</defs>
</svg>
